<svg width="486" height="360" viewBox="0 0 486 360" fill="none" xmlns="http://www.w3.org/2000/svg">
<g clip-path="url(#clip0_5022_80410)">
<path d="M440.074 358.332H337.025V355.17C337.025 352.424 338.116 349.791 340.057 347.85C341.999 345.909 344.632 344.818 347.377 344.818H429.721C432.467 344.818 435.1 345.909 437.042 347.85C438.983 349.791 440.074 352.424 440.074 355.17V358.332Z" fill="#E6E6E6"/>
<path d="M386.138 345.449L389.272 344.188C356.482 262.802 359.641 160.128 387.359 72.0511C390.651 61.8462 390.889 50.9014 388.042 40.5633C385.195 30.2252 379.388 20.9447 371.336 13.8636C355.248 -0.49259 333.068 -3.98989 313.448 4.73561C294.083 13.3498 291.413 28.3543 291.413 43.2859H294.792C294.792 27.3472 298.198 15.2168 314.822 7.82255C333.21 -0.354842 354.002 2.92511 369.086 16.3847C376.649 23.0354 382.104 31.7519 384.778 41.4619C387.451 51.1718 387.228 61.4516 384.136 71.0365C356.098 160.13 353.125 263.51 386.138 345.449Z" fill="#E6E6E6"/>
<path d="M293.947 93.1184C300.478 93.1184 305.773 87.8242 305.773 81.2936C305.773 74.7629 300.478 69.4688 293.947 69.4688C287.416 69.4688 282.122 74.7629 282.122 81.2936C282.122 87.8242 287.416 93.1184 293.947 93.1184Z" fill="#E6E6E6"/>
<path d="M275.735 101.909V79.5039H279.219V101.909C280.219 102.313 281.046 103.053 281.56 104C282.075 104.948 282.243 106.044 282.037 107.103C281.831 108.161 281.264 109.114 280.432 109.8C279.6 110.485 278.555 110.86 277.477 110.86C276.399 110.86 275.355 110.485 274.523 109.8C273.691 109.114 273.123 108.161 272.918 107.103C272.712 106.044 272.88 104.948 273.394 104C273.908 103.053 274.736 102.313 275.735 101.909Z" fill="#E6E6E6"/>
<path d="M258.894 62.2898C258.9 57.1393 260.948 52.2015 264.59 48.5596C268.232 44.9177 273.17 42.8691 278.321 42.8633H310.418C315.571 42.8633 320.512 44.91 324.155 48.5532C327.799 52.1963 329.845 57.1375 329.845 62.2898C329.845 67.442 327.799 72.3832 324.155 76.0264C320.512 79.6695 315.571 81.7163 310.418 81.7163H278.321C273.17 81.7104 268.232 79.6618 264.59 76.0199C260.948 72.378 258.9 67.4402 258.894 62.2898Z" fill="#C0D921"/>
<path d="M213.67 182.592C216.893 141.363 233.37 121.72 222.82 109.401C212.713 97.6016 184.246 100.039 165.964 111.362C116.653 141.902 98.5871 263.622 162.043 323.092C222.342 379.603 336.621 361.503 362.017 315.25C367.943 304.457 372.651 285.538 363.978 274.08C342.446 245.633 264.161 297.158 229.355 264.931C208.727 245.832 211.902 205.218 213.67 182.592Z" fill="#0A4A3F"/>
<path d="M251.364 162.108C250.167 162.659 249.231 163.656 248.757 164.886C248.283 166.116 248.308 167.482 248.826 168.695C248.935 168.939 249.064 169.175 249.212 169.398L238.628 183.53L243.909 191.423L256.315 170.497C257.194 169.811 257.821 168.854 258.099 167.775C258.377 166.696 258.29 165.555 257.851 164.53C257.595 163.949 257.228 163.425 256.77 162.986C256.312 162.547 255.772 162.203 255.181 161.973C254.59 161.743 253.959 161.632 253.325 161.646C252.691 161.659 252.066 161.798 251.485 162.053C251.445 162.071 251.404 162.089 251.364 162.108Z" fill="#FFD0B6"/>
<path d="M251.356 186.474C252.049 187.088 250.127 187.846 248.095 186.65C247.513 186.304 247.265 186.16 247.2 186.252C247.036 186.48 247.99 188.166 247.735 191.911C247.579 194.146 243.867 198.348 239.652 202.445C233.953 207.987 227.326 213.332 227.326 213.332L225 211.47L200.604 191.911L196.487 186.212C196.864 183.962 197.43 181.748 198.18 179.592C199.212 176.609 200.439 173.697 201.852 170.875C202.61 169.339 203.388 167.875 204.133 166.529L217.203 180.932L228.156 192.996C228.156 192.996 231.345 187.859 233.816 186.461C234.131 186.259 234.489 186.136 234.861 186.101C237.358 185.984 237.508 184.624 234.613 181.664C231.718 178.704 235.371 181.468 237.946 180.671C240.521 179.873 237.946 180.671 238.488 178.678C239.031 176.684 246.252 172.685 246.252 172.685L246.553 172.953L252.009 177.769L253.571 179.148C253.571 179.148 251.866 183.827 251.395 184.814C250.925 185.801 250.67 185.853 251.356 186.474Z" fill="#C0D921"/>
<path d="M395.205 277.252L395.471 270.044L367.794 265.588L367.401 276.226L395.205 277.252Z" fill="#FFD0B6"/>
<path d="M390.181 279.422L389.918 267.881L394.852 268.063L402.818 257.394C403.211 256.867 403.763 256.479 404.392 256.288C405.021 256.096 405.695 256.111 406.315 256.33C406.935 256.549 407.469 256.96 407.839 257.504C408.209 258.047 408.396 258.695 408.371 259.352L407.865 273.062L402.898 275.245L407.744 276.348L407.553 281.517L390.181 279.422Z" fill="#151E2B"/>
<path d="M239.434 280.059L327.098 282.282C327.098 282.282 364.955 284.468 373.837 278.691L383.203 277.508L383.711 263.75C383.711 263.75 377.983 263.793 374.69 262.259C371.397 260.724 373.686 258.847 370.546 260.693C367.406 262.539 367.738 262.761 365.311 261.912C362.883 261.064 251.567 244.098 251.567 244.098L239.434 280.059Z" fill="#151E2B"/>
<path d="M354.952 274.09L360.05 268.987L342.791 246.896L335.267 254.429L354.952 274.09Z" fill="#FFD0B6"/>
<path d="M349.793 269.649L357.45 261.01L360.944 264.499L374.04 262.095C374.687 261.976 375.355 262.067 375.946 262.354C376.538 262.642 377.022 263.111 377.327 263.693C377.633 264.275 377.745 264.94 377.647 265.59C377.548 266.24 377.244 266.842 376.779 267.307L367.084 277.014L361.957 275.236L364.76 279.34L361.104 283L349.793 269.649Z" fill="#151E2B"/>
<path d="M204.848 232.051L205.72 252.309C206.746 276.157 233.01 290.591 253.376 278.139C253.751 277.91 254.128 277.672 254.506 277.426C254.506 277.426 262.227 275.353 261.992 272.069C261.758 268.786 263.644 267.188 265.313 268.083C266.982 268.978 288.837 237.964 288.837 237.964C288.837 237.964 334.244 260.613 344.261 265.944C344.261 265.944 353.679 251.219 352.996 251.374C352.314 251.528 296.823 212.691 296.823 212.691C296.823 212.691 287.782 203.542 276.568 209.582C276.335 210.47 276.535 210.501 276.535 210.501L239.491 240.684L234.256 230.744L204.848 232.051Z" fill="#151E2B"/>
<path d="M239.776 206.725C239.705 207.66 239.572 208.591 239.377 209.508C239.11 210.837 238.68 212.128 238.096 213.351C238.096 213.351 238.096 214.717 235.482 219.291C232.868 223.866 236.136 221.905 238.096 225.303C240.057 228.695 238.096 227.133 235.92 229.316C235.293 229.951 234.848 230.742 234.631 231.608C234.414 232.473 234.432 233.381 234.685 234.236C234.685 234.236 206.61 234.256 201.382 232.296C196.154 230.335 194.964 219.291 199.65 218.2C204.329 217.109 198.232 216.024 195.481 213.508C192.729 210.992 198.232 206.875 198.232 206.875C198.232 206.875 195.964 202.961 196.154 189.819C196.18 188.61 196.292 187.405 196.487 186.212C196.864 183.961 197.43 181.747 198.18 179.592C199.212 176.609 200.439 173.697 201.852 170.874C202.61 169.339 203.388 167.875 204.133 166.529C204.251 166.32 204.362 166.117 204.479 165.914C205.898 163.405 207.191 161.353 208.048 160.04C208.708 159.02 209.106 158.445 209.106 158.445L213.864 150.172L229.744 157.615L228.842 169.79L231.581 178.971L232.842 183.199L233.816 186.46L235.319 191.511C235.319 191.511 234.907 191.531 235.397 192.204C237.654 195.205 239.118 198.727 239.651 202.444C239.84 203.863 239.881 205.297 239.776 206.725Z" fill="#C0D921"/>
<path d="M285.636 208.038L285.338 207.941L247.329 195.702L261.335 149.754C261.614 148.839 262.097 148 262.748 147.299C263.398 146.597 264.2 146.053 265.091 145.707C265.983 145.36 266.941 145.22 267.895 145.298C268.848 145.376 269.772 145.669 270.595 146.156L294.884 160.506C296.807 161.64 298.27 163.415 299.017 165.518C299.764 167.622 299.749 169.921 298.973 172.015L285.636 208.038Z" fill="#151E2B"/>
<path d="M285.791 210.958L247.476 198.62L261.482 152.672C261.761 151.757 262.244 150.918 262.894 150.217C263.545 149.515 264.346 148.971 265.238 148.625C266.13 148.278 267.088 148.138 268.042 148.216C268.995 148.294 269.918 148.587 270.742 149.074L296.191 161.779C300.014 164.037 299.925 169.882 298.149 174.678L285.791 210.958Z" fill="#C0D921"/>
<path d="M281.954 214.284C281.072 214.782 280.096 215.091 279.088 215.191C278.08 215.291 277.062 215.181 276.099 214.866L251.609 206.98C249.73 206.366 248.166 205.042 247.25 203.29C246.334 201.539 246.14 199.498 246.708 197.605L258.986 157.326C259.231 156.521 259.635 155.774 260.173 155.127C260.711 154.48 261.373 153.948 262.12 153.56C262.866 153.173 263.683 152.938 264.521 152.87C265.36 152.802 266.204 152.903 267.003 153.165L292.382 161.498C293.591 161.895 294.709 162.53 295.668 163.366C296.628 164.202 297.41 165.222 297.969 166.366C298.528 167.509 298.852 168.753 298.922 170.024C298.992 171.294 298.807 172.566 298.377 173.764L285.249 210.362C284.66 212.024 283.49 213.416 281.954 214.284Z" fill="#0A4A3F"/>
<path d="M228.846 150.313C238.534 150.313 246.387 142.46 246.387 132.773C246.387 123.085 238.534 115.232 228.846 115.232C219.159 115.232 211.306 123.085 211.306 132.773C211.306 142.46 219.159 150.313 228.846 150.313Z" fill="#FFD0B6"/>
<path d="M169.532 150.579C171.141 153.699 173.781 156.166 177.002 157.562C178.288 158.148 179.639 158.575 181.028 158.836C181.42 157.28 182.048 155.792 182.891 154.426C182.61 155.966 182.61 157.544 182.891 159.084C185.006 159.257 187.134 158.993 189.143 158.308C191.116 157.637 192.905 156.516 194.369 155.033C195.833 153.55 196.931 151.746 197.576 149.765C198.973 145.116 197.468 140.15 197.35 135.297C197.228 130.443 199.532 124.638 204.351 124.038C208.02 123.58 207.566 123.935 210.203 126.527C206.515 130.624 215.506 148.769 220.331 147.968C223.058 147.514 225.066 145.349 225.605 145.424C228.368 152.189 220.058 161.784 226.649 164.933L226.16 164.286C222.71 158.587 232.918 148.962 229.468 143.263C228.506 141.668 227.506 139.799 228.101 138.036C228.666 136.359 231.526 135.828 232.13 137.354C231.149 133.856 233.887 129.751 237.524 129.394C240.755 129.075 240.569 129.996 243.65 130.836C244.043 129.509 244.611 128.24 245.337 127.061C245.091 128.406 245.061 129.781 245.247 131.135C246.358 131.267 247.482 131.029 248.444 130.458C251.289 128.752 251.374 124.35 249.42 121.671C247.462 118.991 244.182 117.668 241.018 116.667C240.989 109.976 222.984 106.773 219.673 112.993C219.332 107.956 213.559 104.564 208.584 105.419C203.61 106.275 199.686 110.263 197.294 114.708C194.902 119.15 193.715 124.124 191.964 128.855C190.213 133.586 187.709 138.304 183.516 141.111C179.324 143.914 173.093 144.169 169.593 140.535C168.794 142.087 168.373 143.805 168.362 145.55C168.351 147.294 168.752 149.017 169.532 150.579Z" fill="#151E2B"/>
<path d="M187.53 230.788C187.893 230.498 188.286 230.248 188.704 230.044C195.418 226.703 216.297 218.03 232.622 218.386C264.034 219.07 304.009 253.736 294.706 277.015C287.626 294.728 252.431 304.806 226.74 296.746C190.749 285.454 176.543 239.548 187.53 230.788Z" fill="#0A4A3F"/>
<path d="M57.1269 358.399C46.8628 356.462 37.7773 310.223 57.9715 287.45C64.8904 279.647 73.5208 276.251 85.0007 273.091C151.076 254.901 201.472 272.237 208.245 276.469C215.002 280.693 226.848 344.324 211.7 353.331C203.177 358.399 186.284 360.932 177.913 355.02C165.598 346.32 186.27 323.755 177.069 308.565C166.627 291.329 111.645 285.523 84.0795 302.653C54.6698 320.929 115.332 369.379 57.1269 358.399Z" fill="#F2F2F2"/>
<path d="M125.751 279.783H86.5386C76.8586 270.506 69.9375 261.566 75.4786 254.145C75.4786 252.012 76.3261 249.966 77.8346 248.457C79.343 246.949 81.3889 246.102 83.5222 246.102H128.767C130.901 246.102 132.947 246.949 134.455 248.457C135.963 249.966 136.811 252.012 136.811 254.145C138.921 262.601 135.152 271.148 125.751 279.783Z" fill="#CCCCCC"/>
<path d="M118.709 235.976C118.337 235.993 117.968 235.895 117.654 235.696C117.339 235.497 117.093 235.206 116.949 234.862C116.806 234.519 116.771 234.139 116.85 233.775C116.93 233.411 117.119 233.081 117.392 232.828L117.517 232.333C117.5 232.293 117.484 232.254 117.467 232.214C117.092 231.329 116.464 230.574 115.662 230.045C114.86 229.515 113.919 229.235 112.957 229.238C111.996 229.242 111.057 229.529 110.258 230.065C109.46 230.6 108.837 231.36 108.469 232.248C106.998 235.792 105.124 239.342 104.663 243.09C104.459 244.746 104.545 246.426 104.916 248.053C101.459 240.513 99.6645 232.318 99.6529 224.024C99.6522 221.943 99.7678 219.863 99.9993 217.794C100.191 216.099 100.456 214.415 100.795 212.744C102.648 203.674 106.626 195.173 112.402 187.939C115.197 186.414 117.458 184.069 118.88 181.219C119.395 180.194 119.759 179.101 119.96 177.972C119.645 178.014 118.771 173.211 119.009 172.916C118.57 172.249 117.783 171.918 117.303 171.267C114.916 168.031 111.627 168.596 109.91 172.994C106.242 174.845 106.207 177.915 108.457 180.867C109.889 182.746 110.086 185.287 111.342 187.298C111.213 187.464 111.078 187.624 110.949 187.79C108.586 190.827 106.527 194.09 104.801 197.529C105.221 193.676 104.72 189.778 103.339 186.156C101.94 182.78 99.3169 179.937 97.0073 177.019C94.233 173.514 88.544 175.044 88.0552 179.487C88.0505 179.53 88.0458 179.573 88.0414 179.616C88.3844 179.81 88.7202 180.015 89.0488 180.232C89.4616 180.508 89.7815 180.902 89.9665 181.363C90.1515 181.824 90.193 182.329 90.0856 182.814C89.9783 183.299 89.727 183.74 89.3647 184.079C89.0024 184.418 88.5461 184.64 88.0554 184.716L88.0052 184.724C88.1274 185.96 88.3434 187.186 88.6514 188.389C85.6884 199.848 92.0854 204.021 101.219 204.209C101.421 204.312 101.618 204.415 101.819 204.514C100.085 209.428 98.9969 214.548 98.5828 219.743C98.3484 222.809 98.3622 225.888 98.6241 228.951L98.6086 228.842C97.9468 225.436 96.1299 222.363 93.4646 220.142C89.5059 216.89 83.9131 215.692 79.6425 213.079C79.1886 212.787 78.6608 212.632 78.1215 212.63C77.5821 212.629 77.0536 212.782 76.5984 213.071C76.1431 213.36 75.78 213.774 75.5519 214.262C75.3238 214.751 75.2403 215.295 75.3111 215.83C75.3168 215.868 75.3227 215.906 75.3286 215.944C75.9652 216.203 76.5851 216.502 77.1846 216.838C77.5276 217.032 77.8635 217.237 78.192 217.454C78.6048 217.73 78.9246 218.124 79.1096 218.585C79.2946 219.045 79.3362 219.551 79.2288 220.036C79.1214 220.521 78.8701 220.961 78.5079 221.301C78.1456 221.64 77.6893 221.862 77.1986 221.938L77.1484 221.946C77.1122 221.951 77.0811 221.956 77.045 221.961C78.1328 224.558 79.6595 226.949 81.5583 229.028C83.411 239.031 91.3685 239.98 99.8804 237.067H99.8856C100.82 241.125 102.173 245.076 103.923 248.854H118.347C118.399 248.694 118.446 248.528 118.492 248.368C117.157 248.452 115.817 248.372 114.501 248.13C115.571 246.817 116.641 245.494 117.711 244.181C117.735 244.156 117.758 244.13 117.779 244.103C118.321 243.431 118.869 242.764 119.412 242.092L119.413 242.091C119.442 240.031 119.205 237.976 118.709 235.976Z" fill="#CCCCCC"/>
<path d="M167.906 277.68C168.145 278.377 168.599 278.98 169.202 279.402C169.806 279.825 170.527 280.045 171.264 280.032L185.649 279.662C186.391 279.647 187.108 279.393 187.693 278.937C188.278 278.482 188.701 277.849 188.896 277.133L190.932 255.366C191.654 255.694 192.441 255.855 193.233 255.839C194.624 255.804 195.944 255.218 196.903 254.21C197.862 253.202 198.381 251.854 198.346 250.463C198.311 249.072 197.725 247.752 196.717 246.794C195.709 245.835 194.361 245.316 192.97 245.351C192.653 245.35 192.337 245.383 192.027 245.449C191.69 245.084 191.281 244.794 190.825 244.598C190.369 244.401 189.877 244.302 189.381 244.307L167.253 244.878C167.069 244.885 166.887 244.908 166.707 244.946C166.222 245.036 165.762 245.23 165.357 245.513C164.953 245.796 164.614 246.163 164.364 246.588C164.113 247.013 163.956 247.487 163.904 247.978C163.852 248.469 163.905 248.965 164.061 249.433L167.906 277.68ZM191.35 253.889L192.798 248.702C192.963 248.102 192.967 247.47 192.809 246.869C192.879 246.869 192.941 246.836 193.012 246.836C194.005 246.815 194.965 247.189 195.683 247.876C196.401 248.563 196.817 249.506 196.84 250.499C196.863 251.492 196.492 252.454 195.807 253.173C195.122 253.893 194.18 254.312 193.187 254.338C192.545 254.358 191.91 254.203 191.35 253.889Z" fill="#CCCCCC"/>
<path d="M166.707 244.947C167.178 247.642 172.479 249.537 178.852 249.208C184.712 248.938 189.504 246.88 190.382 244.441C190.057 244.345 189.719 244.3 189.381 244.307L167.253 244.879C167.069 244.886 166.887 244.908 166.707 244.947Z" fill="white"/>
<path d="M0.770395 359.42L485.23 359.619C485.434 359.619 485.63 359.537 485.774 359.393C485.919 359.248 486 359.052 486 358.848C486 358.644 485.919 358.448 485.774 358.303C485.63 358.159 485.434 358.078 485.23 358.078L0.770395 357.879C0.566072 357.879 0.370121 357.96 0.225643 358.105C0.0811652 358.249 0 358.445 0 358.649C0 358.854 0.0811652 359.05 0.225643 359.194C0.370121 359.339 0.566072 359.42 0.770395 359.42Z" fill="#CACACA"/>
<path d="M272.488 187.249C271.171 187.298 269.924 187.858 269.014 188.811C268.103 189.764 267.6 191.035 267.612 192.353C267.619 192.621 267.648 192.888 267.699 193.151L252.494 202.127L254.335 211.444L273.833 196.897C274.908 196.602 275.855 195.96 276.527 195.07C277.198 194.18 277.556 193.093 277.545 191.979C277.532 191.345 277.395 190.719 277.141 190.138C276.887 189.557 276.521 189.032 276.063 188.592C275.606 188.153 275.067 187.807 274.476 187.576C273.886 187.345 273.255 187.233 272.621 187.245C272.577 187.246 272.533 187.247 272.488 187.249Z" fill="#FFD0B6"/>
<path d="M260.034 208.649C259.627 208.104 259.452 207.876 259.36 207.939C259.122 208.083 259.351 210.008 257.676 213.363C255.319 218.076 230.602 225.295 230.602 225.295L227.559 219.724L214.173 195.242L209.56 175.618C209.398 174.934 209.32 174.233 209.326 173.53C213.44 170.635 217.808 168.121 222.378 166.018C224.204 167.053 225.595 168.712 226.299 170.689L235.513 196.523L239.19 206.838C239.19 206.838 245.676 202.2 248.028 203.052C250.377 203.908 251.045 202.707 249.509 198.862C247.974 195.017 250.278 198.975 252.96 199.227C255.647 199.482 252.96 199.227 254.229 197.595C255.499 195.964 263.705 195.046 263.705 195.046L263.879 195.41L267.059 201.951L267.97 203.831C267.97 203.831 264.598 207.488 263.785 208.217C262.968 208.952 262.715 208.901 263.116 209.737C263.51 210.57 261.446 210.532 260.034 208.649Z" fill="#C0D921"/>
</g>
<defs>
<clipPath id="clip0_5022_80410">
<rect width="486" height="360" fill="white"/>
</clipPath>
</defs>
</svg>
