<svg width="486" height="369" viewBox="0 0 486 369" fill="none" xmlns="http://www.w3.org/2000/svg">
<g clip-path="url(#clip0_5022_80440)">
<path d="M82.7852 292.032L50.6009 280.787C47.0577 263.236 47.8522 245.086 52.9155 227.912C65.125 257.307 103.206 265.525 124.35 289.317C130.887 296.788 135.66 305.634 138.314 315.2C140.968 324.767 141.436 334.808 139.682 344.579L145.844 367.96C129.922 366.134 114.586 360.878 100.891 352.554C87.196 344.23 75.4685 333.036 66.5164 319.743C61.5682 312.236 57.5849 304.136 54.6608 295.633C68.5536 294.648 82.7852 292.032 82.7852 292.032Z" fill="#F2F2F2"/>
<path d="M301.594 25.2924V282.312L300.702 293.014C299.136 311.591 291.267 329.074 278.399 342.564C276.574 344.472 274.665 346.28 272.673 347.986C270.219 350.102 267.639 352.066 264.947 353.867C263.407 354.903 261.828 355.88 260.224 356.805C250.892 362.194 240.585 365.68 229.898 367.06H153.316C147.222 367.065 141.332 364.861 136.739 360.855C134.466 358.876 132.56 356.51 131.11 353.867C129.085 350.159 128.025 346 128.03 341.774V25.2924C128.039 18.5871 130.706 12.1588 135.448 7.41738C140.189 2.67598 146.617 0.0085228 153.322 0H276.309C276.6 0 276.885 0.00646319 277.176 0.0129335C277.363 0.0194038 277.551 0.0258761 277.739 0.045287C277.991 0.0517573 278.243 0.0711694 278.489 0.0970506C278.806 0.116462 279.117 0.148783 279.427 0.187605C279.712 0.226427 279.997 0.26525 280.282 0.310542C280.34 0.317012 280.392 0.329949 280.45 0.336419C280.812 0.394652 281.174 0.459353 281.53 0.536997C281.886 0.60817 282.248 0.692287 282.598 0.782871C282.85 0.847575 283.109 0.918743 283.361 0.989916C283.368 0.989916 283.381 0.996393 283.387 0.996393C284.131 1.21638 284.869 1.46872 285.594 1.75991C285.82 1.84399 286.046 1.94109 286.266 2.03814L286.364 2.07696C286.545 2.15461 286.719 2.23225 286.894 2.31636C287.418 2.55576 287.936 2.82105 288.447 3.09927C289.288 3.56283 290.102 4.07262 290.886 4.62629C291.139 4.80096 291.384 4.98863 291.624 5.17627C291.824 5.32509 292.025 5.48037 292.219 5.6486C292.236 5.65718 292.251 5.66808 292.264 5.68095C292.29 5.70037 292.316 5.72624 292.342 5.74565C292.517 5.88153 292.685 6.02388 292.847 6.16623C293.164 6.43798 293.474 6.72267 293.778 7.01384C293.863 7.09148 293.947 7.16912 294.031 7.25323C294.115 7.33088 294.193 7.41499 294.277 7.49911C294.361 7.57675 294.438 7.66086 294.516 7.73851C294.562 7.77835 294.606 7.82162 294.645 7.86792C294.878 8.11379 295.105 8.36613 295.325 8.61847C295.603 8.93551 295.875 9.25903 296.127 9.58901C296.347 9.86077 296.554 10.1325 296.755 10.4107C296.942 10.6631 297.117 10.9154 297.292 11.1742C297.339 11.2386 297.382 11.3056 297.421 11.3748C297.602 11.6401 297.771 11.9119 297.939 12.1836C298.359 12.8695 298.741 13.5812 299.09 14.2994C299.22 14.5711 299.343 14.8364 299.459 15.1082C299.608 15.4382 299.744 15.7682 299.873 16.0981C299.925 16.2211 299.97 16.3505 300.016 16.4734C300.087 16.6611 300.152 16.8487 300.216 17.0363C300.287 17.2434 300.359 17.4569 300.423 17.664L300.579 18.1686C300.669 18.4727 300.747 18.7704 300.825 19.0745C300.87 19.2556 300.915 19.4368 300.954 19.6245C301.258 20.9459 301.455 22.2895 301.543 23.6425C301.549 23.8107 301.562 23.9725 301.569 24.1407C301.588 24.5224 301.594 24.9042 301.594 25.2924Z" fill="#0A4A3F"/>
<path d="M126.276 115.15C125.521 115.15 124.798 114.849 124.264 114.316C123.73 113.782 123.43 113.059 123.429 112.304V92.9501C123.429 92.576 123.502 92.2054 123.645 91.8596C123.788 91.5138 123.997 91.1995 124.262 90.9348C124.526 90.67 124.84 90.46 125.185 90.3167C125.531 90.1734 125.901 90.0996 126.276 90.0996C126.65 90.0996 127.02 90.1734 127.366 90.3167C127.711 90.46 128.025 90.67 128.29 90.9348C128.554 91.1995 128.764 91.5138 128.906 91.8596C129.049 92.2054 129.122 92.576 129.122 92.9501V112.304C129.121 113.059 128.821 113.782 128.287 114.316C127.754 114.849 127.03 115.15 126.276 115.15Z" fill="#0A4A3F"/>
<path d="M125.707 77.5813C124.952 77.5805 124.229 77.2803 123.695 76.7467C123.161 76.2132 122.861 75.4897 122.86 74.7351V55.381C122.861 54.6269 123.162 53.904 123.695 53.3712C124.229 52.8383 124.952 52.5391 125.707 52.5391C126.461 52.5391 127.184 52.8383 127.718 53.3712C128.251 53.904 128.552 54.6269 128.553 55.381V74.7351C128.552 75.4897 128.252 76.2132 127.718 76.7467C127.185 77.2803 126.461 77.5805 125.707 77.5813Z" fill="#0A4A3F"/>
<path d="M195.591 9.40284C195.592 8.64825 195.892 7.92482 196.426 7.39125C196.959 6.85767 197.683 6.55752 198.437 6.55664H217.791C218.546 6.55664 219.27 6.8565 219.804 7.39027C220.338 7.92403 220.638 8.64798 220.638 9.40284C220.638 10.1577 220.338 10.8816 219.804 11.4154C219.27 11.9492 218.546 12.249 217.791 12.249H198.437C197.683 12.2482 196.959 11.948 196.426 11.4144C195.892 10.8808 195.592 10.1574 195.591 9.40284Z" fill="white"/>
<path d="M126.276 148.166C125.521 148.165 124.798 147.865 124.264 147.331C123.73 146.798 123.43 146.074 123.429 145.32V125.966C123.429 125.592 123.502 125.221 123.645 124.875C123.788 124.529 123.997 124.215 124.262 123.95C124.526 123.686 124.84 123.476 125.185 123.332C125.531 123.189 125.901 123.115 126.276 123.115C126.65 123.115 127.02 123.189 127.366 123.332C127.711 123.476 128.025 123.686 128.29 123.95C128.554 124.215 128.764 124.529 128.906 124.875C129.049 125.221 129.122 125.592 129.122 125.966V145.32C129.121 146.074 128.821 146.798 128.287 147.331C127.754 147.865 127.03 148.165 126.276 148.166Z" fill="#0A4A3F"/>
<path d="M303.56 106.109C302.806 106.109 302.082 105.808 301.549 105.275C301.015 104.741 300.715 104.018 300.714 103.263V83.9091C300.714 83.535 300.787 83.1644 300.93 82.8186C301.072 82.4728 301.282 82.1585 301.546 81.8937C301.811 81.629 302.124 81.419 302.47 81.2757C302.816 81.1324 303.186 81.0586 303.56 81.0586C303.934 81.0586 304.305 81.1324 304.65 81.2757C304.996 81.419 305.31 81.629 305.574 81.8937C305.839 82.1585 306.048 82.4728 306.191 82.8186C306.334 83.1644 306.407 83.535 306.406 83.9091V103.263C306.406 104.018 306.105 104.741 305.572 105.275C305.038 105.808 304.315 106.109 303.56 106.109Z" fill="#0A4A3F"/>
<path d="M228.607 12.249C230.179 12.249 231.453 10.9747 231.453 9.40284C231.453 7.83093 230.179 6.55664 228.607 6.55664C227.035 6.55664 225.761 7.83093 225.761 9.40284C225.761 10.9747 227.035 12.249 228.607 12.249Z" fill="white"/>
<path d="M289.006 34.4233H140.628C140.456 34.4195 140.293 34.3486 140.173 34.2258C140.053 34.103 139.985 33.9381 139.985 33.7663C139.985 33.5946 140.053 33.4297 140.173 33.3069C140.293 33.1841 140.456 33.1132 140.628 33.1094H289.006C289.177 33.1132 289.341 33.1841 289.461 33.3069C289.581 33.4297 289.648 33.5946 289.648 33.7663C289.648 33.9381 289.581 34.103 289.461 34.2258C289.341 34.3486 289.177 34.4195 289.006 34.4233Z" fill="white"/>
<path d="M151.873 29.7546C154 29.7546 155.723 27.9925 155.723 25.8187C155.723 23.645 154 21.8828 151.873 21.8828C149.747 21.8828 148.023 23.645 148.023 25.8187C148.023 27.9925 149.747 29.7546 151.873 29.7546Z" fill="white"/>
<path d="M165.174 29.7546C167.3 29.7546 169.024 27.9925 169.024 25.8187C169.024 23.645 167.3 21.8828 165.174 21.8828C163.047 21.8828 161.323 23.645 161.323 25.8187C161.323 27.9925 163.047 29.7546 165.174 29.7546Z" fill="white"/>
<path d="M178.474 29.7546C180.6 29.7546 182.324 27.9925 182.324 25.8187C182.324 23.645 180.6 21.8828 178.474 21.8828C176.348 21.8828 174.624 23.645 174.624 25.8187C174.624 27.9925 176.348 29.7546 178.474 29.7546Z" fill="white"/>
<path d="M280.998 22.8594H271.55C271.363 22.8631 271.184 22.9401 271.053 23.0739C270.922 23.2076 270.849 23.3874 270.849 23.5747C270.849 23.762 270.922 23.9419 271.053 24.0756C271.184 24.2094 271.363 24.2864 271.55 24.2901H280.998C281.185 24.2864 281.363 24.2094 281.494 24.0756C281.625 23.9419 281.699 23.762 281.699 23.5747C281.699 23.3874 281.625 23.2076 281.494 23.0739C281.363 22.9401 281.185 22.8631 280.998 22.8594Z" fill="white"/>
<path d="M280.998 25.5449H271.55C271.363 25.5487 271.184 25.6257 271.053 25.7594C270.922 25.8932 270.849 26.073 270.849 26.2603C270.849 26.4476 270.922 26.6274 271.053 26.7612C271.184 26.8949 271.363 26.9719 271.55 26.9757H280.998C281.185 26.9719 281.363 26.8949 281.494 26.7612C281.625 26.6274 281.699 26.4476 281.699 26.2603C281.699 26.073 281.625 25.8932 281.494 25.7594C281.363 25.6257 281.185 25.5487 280.998 25.5449Z" fill="white"/>
<path d="M280.998 28.2266H271.55C271.363 28.2303 271.184 28.3073 271.053 28.4411C270.922 28.5748 270.849 28.7546 270.849 28.9419C270.849 29.1292 270.922 29.3091 271.053 29.4428C271.184 29.5766 271.363 29.6536 271.55 29.6573H280.998C281.185 29.6536 281.363 29.5766 281.494 29.4428C281.625 29.3091 281.699 29.1292 281.699 28.9419C281.699 28.7546 281.625 28.5748 281.494 28.4411C281.363 28.3073 281.185 28.2303 280.998 28.2266Z" fill="white"/>
<path d="M175.971 134.835C176.035 135.752 176.306 136.643 176.762 137.442C177.781 139.105 179.323 140.384 181.146 141.078C183.364 141.986 185.837 142.014 188.19 141.811C190.376 141.623 192.54 141.188 194.735 141.098C196.431 141.044 198.13 141.084 199.822 141.219C203.106 141.452 206.376 141.885 209.624 142.409C210.504 142.549 211.382 142.7 212.258 142.861C212.341 142.868 212.423 142.883 212.503 142.906C212.519 142.913 212.544 142.908 212.559 142.917C212.585 142.934 212.452 142.875 212.533 142.942C212.645 143.06 212.746 143.189 212.833 143.328L214.033 144.872C214.348 145.357 214.72 145.804 215.141 146.201C215.454 146.444 215.832 146.588 216.228 146.615C216.623 146.643 217.018 146.553 217.362 146.356C217.721 146.129 218.008 145.803 218.188 145.418C218.464 144.912 218.793 144.437 219.17 144C220.597 142.335 222.581 141.311 224.24 139.91C225.044 139.259 225.73 138.475 226.268 137.592C226.728 136.792 227.013 135.905 227.106 134.988C227.252 133.109 226.784 131.233 225.772 129.643C224.727 127.941 223.225 126.566 221.438 125.675C219.409 124.702 217.221 124.102 214.98 123.906C212.609 123.682 210.227 123.603 207.846 123.669C205.179 123.699 202.517 123.816 199.859 124.021C197.198 124.227 194.548 124.52 191.908 124.899C189.358 125.222 186.829 125.685 184.331 126.288C182.093 126.768 180.02 127.827 178.32 129.359C177.564 130.055 176.965 130.902 176.56 131.846C176.155 132.79 175.954 133.808 175.971 134.835Z" fill="#E6E6E6"/>
<path d="M212.962 128.615H187.717C187.217 128.616 186.737 128.815 186.383 129.169C186.03 129.522 185.831 130.002 185.83 130.502V130.807C185.831 131.307 186.03 131.786 186.383 132.14C186.737 132.494 187.217 132.693 187.717 132.694H212.962C213.463 132.693 213.942 132.494 214.296 132.14C214.65 131.786 214.849 131.307 214.849 130.807V130.502C214.849 130.002 214.65 129.522 214.296 129.169C213.942 128.815 213.463 128.616 212.962 128.615Z" fill="white"/>
<path d="M212.962 133.793H187.717C187.217 133.794 186.737 133.993 186.383 134.347C186.03 134.7 185.831 135.18 185.83 135.68V135.984C185.831 136.485 186.03 136.964 186.383 137.318C186.737 137.672 187.217 137.871 187.717 137.871H212.962C213.463 137.871 213.942 137.672 214.296 137.318C214.65 136.964 214.849 136.485 214.849 135.984V135.68C214.849 135.18 214.65 134.7 214.296 134.347C213.942 133.993 213.463 133.794 212.962 133.793Z" fill="white"/>
<path d="M265.379 97.3078C265.315 98.225 265.045 99.1159 264.589 99.9142C263.569 101.578 262.027 102.857 260.204 103.551C257.986 104.458 255.514 104.486 253.16 104.284C250.974 104.096 248.81 103.66 246.616 103.571C244.919 103.516 243.22 103.557 241.528 103.692C238.244 103.925 234.975 104.357 231.726 104.882C230.846 105.022 229.968 105.172 229.092 105.334C229.009 105.341 228.927 105.356 228.847 105.379C228.832 105.386 228.806 105.38 228.791 105.39C228.765 105.406 228.898 105.347 228.818 105.414C228.705 105.532 228.604 105.662 228.518 105.8L227.318 107.344C227.002 107.83 226.63 108.276 226.21 108.674C225.896 108.916 225.518 109.06 225.123 109.088C224.727 109.115 224.333 109.025 223.989 108.829C223.629 108.602 223.342 108.276 223.163 107.891C222.887 107.384 222.557 106.909 222.18 106.473C220.753 104.808 218.769 103.783 217.11 102.382C216.306 101.731 215.62 100.947 215.082 100.064C214.623 99.265 214.337 98.378 214.244 97.4611C214.098 95.5819 214.566 93.7061 215.578 92.1157C216.623 90.4137 218.125 89.0391 219.913 88.148C221.941 87.1746 224.129 86.5751 226.37 86.3782C228.741 86.1544 231.124 86.0755 233.504 86.142C236.171 86.1716 238.834 86.2889 241.491 86.4938C244.152 86.6998 246.802 86.9926 249.443 87.3721C251.992 87.6942 254.522 88.1577 257.02 88.7604C259.257 89.2407 261.33 90.2998 263.03 91.832C263.786 92.5275 264.386 93.3749 264.79 94.3187C265.195 95.2624 265.396 96.281 265.379 97.3078Z" fill="#E6E6E6"/>
<path d="M226.501 92.975V93.2793C226.501 93.7795 226.701 94.2591 227.054 94.6128C227.408 94.9666 227.888 95.1656 228.388 95.1664H253.633C254.134 95.1656 254.613 94.9666 254.967 94.6128C255.321 94.2591 255.52 93.7795 255.52 93.2793V92.975C255.52 92.4747 255.321 91.9951 254.967 91.6414C254.613 91.2877 254.134 91.0886 253.633 91.0879H228.388C227.888 91.0886 227.408 91.2877 227.054 91.6414C226.701 91.9951 226.501 92.4747 226.501 92.975Z" fill="white"/>
<path d="M226.501 98.1508V98.4551C226.501 98.9553 226.701 99.4349 227.054 99.7886C227.408 100.142 227.888 100.341 228.388 100.342H253.633C254.134 100.341 254.613 100.142 254.967 99.7886C255.321 99.4349 255.52 98.9553 255.52 98.4551V98.1508C255.52 97.6505 255.321 97.1709 254.967 96.8172C254.613 96.4635 254.134 96.2644 253.633 96.2637H228.388C227.888 96.2644 227.408 96.4635 227.054 96.8172C226.701 97.1709 226.501 97.6505 226.501 98.1508Z" fill="white"/>
<path d="M387.943 359.111L379.926 359.11L376.113 328.189L387.944 328.19L387.943 359.111Z" fill="#B87C22"/>
<path d="M387.729 356.49L379.176 353.016L378.923 352.912L374.2 356.49C371.608 356.49 369.116 357.49 367.244 359.283C365.371 361.076 364.264 363.522 364.152 366.112C364.139 366.254 364.139 366.403 364.139 366.551V366.881H389.987V356.49H387.729Z" fill="#151E2B"/>
<path d="M369.169 351.651L361.607 354.312L347.746 326.409L358.908 322.482L369.169 351.651Z" fill="#B87C22"/>
<path d="M368.098 349.249L358.876 348.811L358.603 348.797L355.336 353.74C352.89 354.6 350.872 356.371 349.701 358.683C348.53 360.996 348.297 363.671 349.05 366.151C349.085 366.29 349.135 366.43 349.184 366.57L349.294 366.882L373.677 358.302L370.228 348.5L368.098 349.249Z" fill="#151E2B"/>
<path d="M390.776 225.784C398.11 225.5 389.025 283.946 389.025 283.946C389.025 283.946 391.682 335.259 391.119 337.952C390.555 340.644 391.048 347.907 391.048 347.907C389.611 345.292 374.787 347.266 374.787 347.266L372.77 295.26L362.474 253.592L348.199 281.523L361.881 324.395C361.881 324.395 367.421 329.522 366.832 331.548C366.243 333.574 351.73 338.144 349.063 338.247C346.396 338.35 347.6 334.965 347.471 331.631C347.342 328.298 334.792 297.4 330.378 286.888C325.964 276.375 329.396 261.552 331.649 250.78C333.902 240.009 345.756 219.795 345.756 219.795C360.47 203.199 383.442 226.069 390.776 225.784Z" fill="#151E2B"/>
<path d="M386.967 235.155C368.779 235.156 358.756 231.515 353.434 228.264C346.925 224.289 345.812 220.097 345.768 219.92L345.755 219.87L346.388 211.898L346.665 211.278C347.942 208.42 348.111 205.19 347.14 202.215L347.12 202.154L347.125 202.09L351.378 146.934L366.428 142.004L370.806 137.605L390.299 137.322L393.015 142.829L408.383 148.614L400.833 193.555L397.214 199.793L398.67 206.589L398.66 206.65L393.912 234.99L393.651 235.001C391.309 235.106 389.081 235.157 386.967 235.155Z" fill="#E6E6E6"/>
<path d="M394.548 118.767C393.963 123.032 391.709 126.891 388.281 129.494C384.852 132.098 380.531 133.235 376.265 132.654C372 132.074 368.139 129.824 365.531 126.398C362.924 122.973 361.783 118.652 362.358 114.386L362.39 114.156C363.063 109.946 365.363 106.17 368.795 103.642C372.227 101.114 376.516 100.036 380.735 100.641C384.955 101.246 388.767 103.486 391.351 106.877C393.934 110.267 395.08 114.538 394.543 118.767L394.548 118.767Z" fill="#B87C22"/>
<path d="M390.414 127.135C391.248 125.44 392.105 123.621 391.871 121.747C391.636 119.873 389.799 118.082 387.994 118.639C386.915 118.972 386.099 120.037 384.971 120.092C383.419 120.167 382.529 118.39 382.046 116.913L380.078 110.898C378.189 112.371 375.998 113.408 373.661 113.936C371.325 114.464 368.9 114.47 366.561 113.953C364.735 113.535 362.889 112.721 361.817 111.183C360.746 109.646 360.752 107.261 362.222 106.099C362.943 105.529 363.902 105.312 364.591 104.704C365.018 104.327 365.312 103.822 365.43 103.264C365.548 102.706 365.484 102.125 365.246 101.607C365.008 101.089 364.61 100.662 364.11 100.387C363.611 100.113 363.036 100.007 362.471 100.085L367.425 99.4658L365.949 96.7961C366.51 97.1779 367.145 97.4385 367.813 97.5609C368.48 97.6834 369.166 97.6651 369.826 97.5073C371.159 97.2673 372.414 96.7185 373.718 96.3525C376.879 95.5454 380.217 95.792 383.224 97.055C386.232 98.318 388.745 100.528 390.382 103.35C391.601 102.943 392.915 102.916 394.15 103.272C395.385 103.629 396.482 104.352 397.297 105.347C398.623 107.03 398.984 109.276 399.035 111.419C399.131 115.643 398.21 119.828 396.35 123.622C395.816 124.827 395.049 125.914 394.094 126.822C393.613 127.272 393.039 127.611 392.413 127.816C391.787 128.02 391.123 128.086 390.469 128.007" fill="#151E2B"/>
<path d="M206.752 272.913C206.675 272.913 206.599 272.912 206.521 272.909C205.621 272.876 204.741 272.626 203.958 272.181C203.174 271.735 202.51 271.107 202.021 270.349C198.363 264.881 193.873 260.017 188.713 255.933C185.59 253.437 182.326 251.116 179.17 248.871C171.028 243.081 163.36 237.629 159.104 230.094C149.823 213.665 160.752 190.782 176.365 180.52C193.878 169.01 216.912 167.205 239.196 166.968C241.512 166.944 243.829 166.932 246.148 166.932C286.298 166.947 326.363 170.611 365.85 177.877C378.981 180.3 392.725 183.267 403.77 190.469C414.749 197.629 421.422 208.903 420.771 219.193C419.821 234.214 403.897 245.438 389.397 248.373C375.577 251.168 361.219 249.279 346.019 247.279C342.664 246.838 339.194 246.381 335.763 245.984C298.475 241.674 228.427 254.959 225.463 255.527L222.523 256.089L211.115 270.77C210.602 271.439 209.941 271.981 209.184 272.352C208.427 272.724 207.595 272.916 206.752 272.913Z" fill="#C0D921"/>
<path d="M372.8 199.634H215.195C214.286 199.634 213.414 199.272 212.771 198.629C212.128 197.986 211.766 197.114 211.766 196.205C211.766 195.295 212.128 194.423 212.771 193.78C213.414 193.137 214.286 192.775 215.195 192.775H372.8C373.709 192.775 374.582 193.137 375.225 193.78C375.868 194.423 376.229 195.295 376.229 196.205C376.229 197.114 375.868 197.986 375.225 198.629C374.582 199.272 373.709 199.634 372.8 199.634Z" fill="white"/>
<path d="M372.8 220.683H215.196C214.745 220.683 214.299 220.595 213.882 220.424C213.465 220.252 213.087 220 212.768 219.682C212.449 219.364 212.195 218.986 212.022 218.57C211.85 218.154 211.76 217.708 211.76 217.257C211.759 216.806 211.848 216.36 212.02 215.944C212.192 215.527 212.444 215.149 212.763 214.83C213.081 214.511 213.459 214.258 213.875 214.086C214.292 213.913 214.738 213.824 215.188 213.824H372.8C373.709 213.825 374.58 214.187 375.222 214.83C375.864 215.473 376.224 216.345 376.224 217.253C376.224 218.162 375.864 219.034 375.222 219.676C374.58 220.319 373.709 220.681 372.8 220.683Z" fill="white"/>
<path d="M233.562 241.729H215.195C214.287 241.728 213.416 241.366 212.774 240.723C212.132 240.08 211.771 239.209 211.771 238.3C211.771 237.392 212.132 236.52 212.774 235.877C213.416 235.234 214.287 234.872 215.195 234.871H233.562C234.471 234.872 235.342 235.234 235.984 235.877C236.626 236.52 236.986 237.392 236.986 238.3C236.986 239.209 236.626 240.08 235.984 240.723C235.342 241.366 234.471 241.728 233.562 241.729Z" fill="white"/>
<path d="M385.77 253.582C386.718 253.214 387.574 252.642 388.277 251.906C388.98 251.171 389.513 250.291 389.839 249.327C390.165 248.364 390.276 247.34 390.164 246.329C390.052 245.318 389.719 244.344 389.19 243.475L406.344 182.461L391.293 180.889L379.164 241.358C377.764 242.344 376.774 243.809 376.382 245.477C375.99 247.144 376.223 248.897 377.037 250.404C377.851 251.911 379.19 253.067 380.799 253.653C382.409 254.238 384.177 254.213 385.77 253.582Z" fill="#B87C22"/>
<path d="M408.882 148.969C408.882 148.969 412.556 149.101 410.74 156.675C409.286 162.738 403.947 200.775 399.773 208.359C400.674 209.172 401.28 210.261 401.494 211.455C401.709 212.649 401.52 213.881 400.958 214.956L384.324 208.095C382.942 204.26 384.012 200.777 385.583 200.469L387.527 189.376L390.391 152.162L406.228 148.826L408.882 148.969Z" fill="#E6E6E6"/>
<path d="M318.513 248.63C317.902 247.817 317.477 246.879 317.268 245.884C317.059 244.888 317.071 243.859 317.302 242.868C317.534 241.878 317.98 240.95 318.609 240.15C319.238 239.351 320.035 238.699 320.943 238.241L338.582 177.365L352.195 183.975L330.576 241.735C331.245 243.312 331.312 245.079 330.765 246.702C330.218 248.325 329.094 249.691 327.607 250.541C326.12 251.391 324.373 251.666 322.697 251.314C321.021 250.962 319.532 250.007 318.513 248.63Z" fill="#B87C22"/>
<path d="M354.107 147.579C354.107 147.579 350.918 145.752 348.462 153.143C346.496 159.06 330.951 194.184 330.492 202.829C329.298 203.043 328.209 203.648 327.396 204.549C326.583 205.45 326.094 206.596 326.004 207.806L343.753 210.76C346.951 208.232 347.88 204.709 346.709 203.618L350.914 193.171L368.126 160.052L356.436 148.859L354.107 147.579Z" fill="#E6E6E6"/>
<path d="M485.23 368.351L0.77037 368.55C0.566434 368.55 0.371057 368.468 0.22706 368.324C0.0830639 368.179 0.00219727 367.984 0.00219727 367.78C0.00219727 367.576 0.0830639 367.38 0.22706 367.236C0.371057 367.091 0.566434 367.01 0.77037 367.009L485.23 366.811C485.434 366.811 485.629 366.893 485.773 367.037C485.917 367.181 485.998 367.377 485.998 367.581C485.998 367.785 485.917 367.981 485.773 368.125C485.629 368.269 485.434 368.351 485.23 368.351Z" fill="#CACACA"/>
<path d="M208.27 334.159C203.316 334.159 198.473 332.69 194.354 329.938C190.234 327.186 187.024 323.274 185.128 318.697C183.232 314.12 182.736 309.083 183.703 304.224C184.669 299.365 187.055 294.902 190.558 291.399C194.061 287.896 198.524 285.51 203.383 284.544C208.242 283.577 213.278 284.073 217.855 285.969C222.432 287.865 226.344 291.076 229.096 295.195C231.849 299.314 233.318 304.157 233.318 309.111C233.31 315.752 230.669 322.119 225.973 326.815C221.277 331.51 214.91 334.152 208.27 334.159ZM208.27 285.357C203.571 285.357 198.979 286.75 195.073 289.36C191.166 291.97 188.122 295.68 186.324 300.021C184.526 304.361 184.055 309.137 184.972 313.745C185.888 318.353 188.151 322.586 191.473 325.908C194.795 329.23 199.028 331.492 203.635 332.409C208.243 333.325 213.019 332.855 217.36 331.057C221.7 329.259 225.41 326.215 228.02 322.308C230.631 318.402 232.024 313.809 232.024 309.111C232.017 302.813 229.512 296.775 225.058 292.322C220.605 287.869 214.567 285.364 208.27 285.357Z" fill="white"/>
<path d="M206.443 318.863C206.391 318.863 206.339 318.861 206.287 318.859C205.827 318.836 205.378 318.715 204.97 318.503C204.561 318.291 204.204 317.993 203.921 317.63L199.843 312.387C199.586 312.056 199.396 311.678 199.285 311.273C199.174 310.869 199.143 310.447 199.195 310.031C199.247 309.615 199.38 309.213 199.588 308.848C199.795 308.484 200.072 308.164 200.403 307.906L200.55 307.792C200.881 307.535 201.259 307.345 201.663 307.233C202.068 307.122 202.49 307.092 202.906 307.144C203.323 307.196 203.724 307.329 204.089 307.536C204.454 307.744 204.774 308.021 205.031 308.352C205.237 308.617 205.498 308.834 205.795 308.988C206.093 309.142 206.42 309.231 206.755 309.247C207.09 309.263 207.424 309.207 207.735 309.082C208.046 308.958 208.327 308.767 208.557 308.524L216.837 299.783C217.42 299.169 218.222 298.811 219.069 298.788C219.915 298.765 220.736 299.079 221.351 299.66L221.487 299.79C221.791 300.078 222.036 300.423 222.207 300.806C222.378 301.189 222.471 301.602 222.483 302.021C222.494 302.44 222.423 302.858 222.273 303.249C222.123 303.641 221.897 303.999 221.608 304.303L208.76 317.866C208.462 318.181 208.102 318.432 207.704 318.603C207.306 318.775 206.876 318.863 206.443 318.863Z" fill="#C0D921"/>
</g>
<defs>
<clipPath id="clip0_5022_80440">
<rect width="486" height="368.55" fill="white"/>
</clipPath>
</defs>
</svg>
