<svg width="486" height="340" viewBox="0 0 486 340" fill="none" xmlns="http://www.w3.org/2000/svg">
<g clip-path="url(#clip0_5033_80562)">
<path d="M410.344 236.102C409.841 235.545 409.465 234.885 409.245 234.168C409.024 233.451 408.963 232.694 409.066 231.951C409.17 231.207 409.435 230.496 409.842 229.866C410.25 229.236 410.791 228.704 411.427 228.306L407.359 210.523L416.233 213.845L418.736 230.222C419.333 231.335 419.502 232.629 419.21 233.858C418.917 235.087 418.185 236.166 417.15 236.891C416.116 237.616 414.852 237.936 413.597 237.79C412.343 237.645 411.185 237.044 410.344 236.102Z" fill="#FFDEB8"/>
<path d="M409.73 221.988L401.929 206.899L402.984 168.902L403.485 169.959C404.069 171.19 417.757 200.181 416.781 209.887L418.345 218.756L409.73 221.988Z" fill="#0A4A3F"/>
<path d="M404.644 333.505H410.899L413.875 309.365L404.643 309.366L404.644 333.505Z" fill="#FFDEB8"/>
<path d="M403.048 331.463L415.367 331.463H415.368C417.45 331.463 419.446 332.29 420.919 333.763C422.391 335.236 423.218 337.234 423.218 339.317V339.572L403.048 339.573L403.048 331.463Z" fill="#151E2B"/>
<path d="M342.838 328.749L348.865 330.426L358.196 307.967L349.301 305.492L342.838 328.749Z" fill="#FFDEB8"/>
<path d="M341.848 326.354L353.716 329.655L353.717 329.656C355.723 330.214 357.425 331.546 358.449 333.36C359.473 335.174 359.735 337.32 359.177 339.327L359.109 339.573L339.676 334.167L341.848 326.354Z" fill="#151E2B"/>
<path d="M398.407 324.094L385.783 233.659L358.516 323.583L337.077 316.258L367.805 195.848L368.007 195.834L400.197 193.594L423.454 316.785L398.407 324.094Z" fill="#151E2B"/>
<path d="M395.068 153.235C395.068 153.235 383.333 147.109 367.516 149.661C367.516 149.661 359.098 169.982 367.516 178.071L369.812 198.412C369.812 198.412 391.242 211.174 398.385 196.37L397.364 179.524C397.364 179.524 402.467 171.445 398.385 165.53C395.938 161.917 394.771 157.589 395.068 153.235Z" fill="#C0D921"/>
<path d="M396.555 245.755L398.615 202.994L392.785 152.124L393.053 152.083C400.7 150.93 403.152 164.11 403.253 164.671L416.563 239.961L396.555 245.755Z" fill="#0A4A3F"/>
<path d="M370.606 246.2L347.076 243.585L347.082 243.327C347.166 239.842 349.191 157.9 354.866 152.097C360.574 146.259 371.346 148.785 371.802 148.896L372.029 148.95L370.092 183.623L370.606 246.2Z" fill="#0A4A3F"/>
<path d="M374.939 197.225C374.227 197.459 373.471 197.534 372.727 197.444C371.982 197.355 371.266 197.103 370.629 196.706C369.992 196.31 369.45 195.778 369.041 195.15C368.631 194.521 368.365 193.81 368.26 193.067L350.367 189.559L357.006 182.797L372.98 187.164C374.239 187.07 375.489 187.442 376.493 188.209C377.497 188.975 378.184 190.084 378.426 191.324C378.668 192.564 378.446 193.85 377.803 194.937C377.161 196.025 376.142 196.839 374.939 197.225Z" fill="#FFDEB8"/>
<path d="M365.391 193.12L359.561 191.866C350.954 194.456 335.931 185.339 329.859 181.289C328.717 180.527 328.346 179.017 328.758 176.802C329.365 173.704 331.072 170.93 333.564 168.992L354.948 152.028L360.346 151.125L361.949 160.215L348.324 174.856L368.381 185.778L365.391 193.12Z" fill="#0A4A3F"/>
<path d="M363.085 141.966V130.179C363.085 125.193 365.065 120.41 368.59 116.884C372.114 113.358 376.894 111.377 381.879 111.377C386.863 111.377 391.643 113.358 395.167 116.884C398.692 120.41 400.672 125.193 400.672 130.179V141.966C400.671 142.636 400.405 143.278 399.931 143.751C399.458 144.225 398.816 144.491 398.147 144.492H365.61C364.941 144.491 364.299 144.225 363.826 143.751C363.352 143.278 363.086 142.636 363.085 141.966Z" fill="#151E2B"/>
<path d="M381.123 144.375C388.733 144.375 394.902 138.203 394.902 130.59C394.902 122.977 388.733 116.805 381.123 116.805C373.514 116.805 367.345 122.977 367.345 130.59C367.345 138.203 373.514 144.375 381.123 144.375Z" fill="#FFDEB8"/>
<path d="M366.967 130.537C366.835 130.385 366.737 130.207 366.681 130.014C366.624 129.821 366.61 129.618 366.638 129.419L368.27 118.047C368.303 117.816 368.392 117.596 368.531 117.408C368.669 117.22 368.853 117.07 369.064 116.97C377.395 113.069 385.843 113.065 394.174 116.956C394.395 117.06 394.585 117.221 394.725 117.421C394.866 117.621 394.952 117.855 394.975 118.098L396.065 129.484C396.083 129.679 396.061 129.875 396 130.061C395.938 130.247 395.838 130.417 395.707 130.562C395.575 130.707 395.415 130.822 395.236 130.901C395.057 130.98 394.864 131.021 394.669 131.021H391.905C391.639 131.021 391.378 130.944 391.153 130.801C390.928 130.658 390.748 130.453 390.635 130.212L389.442 127.655C389.365 127.49 389.236 127.354 389.075 127.268C388.914 127.182 388.729 127.151 388.549 127.18C388.368 127.208 388.202 127.294 388.075 127.425C387.948 127.557 387.867 127.726 387.845 127.907L387.609 129.792C387.566 130.131 387.401 130.443 387.145 130.669C386.889 130.896 386.559 131.021 386.217 131.021H368.027C367.826 131.021 367.627 130.978 367.444 130.895C367.261 130.811 367.098 130.689 366.967 130.537Z" fill="#151E2B"/>
<path d="M309.104 22.6562H0V215.235H309.104V22.6562Z" fill="#E6E6E6"/>
<path d="M77.3402 59.7559H20.7278V96.5723H77.3402V59.7559Z" fill="white"/>
<path d="M147.685 59.7559H91.073V96.5723H147.685V59.7559Z" fill="white"/>
<path d="M218.031 59.7559H161.418V96.5723H218.031V59.7559Z" fill="white"/>
<path d="M288.376 59.7559H231.763V96.5723H288.376V59.7559Z" fill="white"/>
<path d="M77.3402 111.865H20.7278V148.682H77.3402V111.865Z" fill="white"/>
<path d="M147.685 111.865H91.073V148.682H147.685V111.865Z" fill="white"/>
<path d="M218.031 111.865H161.418V148.682H218.031V111.865Z" fill="white"/>
<path d="M288.376 111.865H231.763V148.682H288.376V111.865Z" fill="white"/>
<path d="M77.3402 163.975H20.7278V200.791H77.3402V163.975Z" fill="white"/>
<path d="M147.685 163.975H91.073V200.791H147.685V163.975Z" fill="white"/>
<path d="M218.031 163.975H161.418V200.791H218.031V163.975Z" fill="white"/>
<path d="M288.376 163.975H231.763V200.791H288.376V163.975Z" fill="white"/>
<path d="M80.9557 45.3125C85.6456 45.3125 89.4476 41.5087 89.4476 36.8164C89.4476 32.1241 85.6456 28.3203 80.9557 28.3203C76.2658 28.3203 72.4639 32.1241 72.4639 36.8164C72.4639 41.5087 76.2658 45.3125 80.9557 45.3125Z" fill="white"/>
<path d="M221.354 45.3125C226.044 45.3125 229.846 41.5087 229.846 36.8164C229.846 32.1241 226.044 28.3203 221.354 28.3203C216.664 28.3203 212.863 32.1241 212.863 36.8164C212.863 41.5087 216.664 45.3125 221.354 45.3125Z" fill="white"/>
<path d="M84.3526 0H77.5591V39.0821H84.3526V0Z" fill="#E6E6E6"/>
<path d="M224.751 0H217.958V39.0821H224.751V0Z" fill="#E6E6E6"/>
<path d="M272.872 78.1636C272.869 81.2394 271.756 84.211 269.739 86.5321C267.722 88.8533 264.935 90.3681 261.891 90.7984C258.847 91.2286 255.75 90.5453 253.169 88.8741C250.588 87.2028 248.697 84.6558 247.842 81.7011C246.988 78.7464 247.228 75.5825 248.518 72.7906C249.809 69.9988 252.063 67.7666 254.866 66.5042C257.67 65.2418 260.834 65.034 263.779 65.919C266.723 66.804 269.249 68.7223 270.893 71.3215C272.188 73.3683 272.874 75.7413 272.872 78.1636Z" fill="#C0D921"/>
<path d="M270.893 71.3213L258.291 83.9273C257.499 82.7005 253.087 76.999 253.087 76.999C253.652 76.4272 254.256 75.8942 254.893 75.4038L258.552 80.285L269.417 69.4141C269.969 70.0018 270.463 70.6404 270.893 71.3213Z" fill="white"/>
<path d="M132.181 130.273C132.178 133.349 131.066 136.32 129.049 138.641C127.032 140.963 124.245 142.477 121.201 142.908C118.157 143.338 115.06 142.655 112.479 140.983C109.898 139.312 108.007 136.765 107.152 133.81C106.298 130.856 106.538 127.692 107.828 124.9C109.118 122.108 111.372 119.876 114.176 118.614C116.979 117.351 120.144 117.143 123.088 118.028C126.033 118.913 128.559 120.832 130.203 123.431C131.498 125.478 132.184 127.851 132.181 130.273Z" fill="#C0D921"/>
<path d="M130.203 123.431L117.601 136.037C116.809 134.81 112.396 129.108 112.396 129.108C112.962 128.537 113.565 128.004 114.202 127.513L117.862 132.394L128.727 121.523C129.278 122.111 129.772 122.75 130.203 123.431Z" fill="white"/>
<path d="M61.8361 130.273C61.8332 133.349 60.7209 136.32 58.7037 138.642C56.6864 140.963 53.8997 142.478 50.8556 142.908C47.8115 143.338 44.7144 142.655 42.1335 140.984C39.5525 139.312 37.661 136.765 36.8066 133.811C35.9522 130.856 36.1922 127.692 37.4826 124.9C38.773 122.108 41.027 119.876 43.8305 118.614C46.634 117.351 49.7986 117.143 52.743 118.028C55.6873 118.913 58.2136 120.832 59.8576 123.431C61.1522 125.478 61.8384 127.851 61.8361 130.273Z" fill="#C0D921"/>
<path d="M59.8576 123.431L47.2557 136.037C46.4636 134.81 42.051 129.108 42.051 129.108C42.6165 128.537 43.22 128.004 43.8573 127.513L47.5164 132.394L58.3819 121.523C58.9329 122.111 59.427 122.75 59.8576 123.431Z" fill="white"/>
<path d="M485.439 339.982H271.703C271.554 339.982 271.412 339.923 271.306 339.818C271.201 339.712 271.142 339.569 271.142 339.421C271.142 339.272 271.201 339.129 271.306 339.024C271.412 338.919 271.554 338.859 271.703 338.859H485.439C485.588 338.859 485.73 338.919 485.836 339.024C485.941 339.129 486 339.272 486 339.421C486 339.569 485.941 339.712 485.836 339.818C485.73 339.923 485.588 339.982 485.439 339.982Z" fill="#0A4A3F"/>
</g>
<defs>
<clipPath id="clip0_5033_80562">
<rect width="486" height="339.982" fill="white"/>
</clipPath>
</defs>
</svg>
