<svg width="486" height="319" viewBox="0 0 486 319" fill="none" xmlns="http://www.w3.org/2000/svg">
<g clip-path="url(#clip0_5033_80634)">
<path d="M60.1518 221.871L19.1034 207.528C14.5843 185.142 15.5976 161.99 22.0555 140.084C37.6277 177.578 86.1967 188.061 113.164 218.408C121.502 227.938 127.59 239.222 130.975 251.424C134.36 263.626 134.956 276.434 132.719 288.897L140.578 318.721C120.271 316.392 100.711 309.687 83.2441 299.07C65.7775 288.452 50.82 274.174 39.4023 257.218C33.0912 247.642 28.0109 237.31 24.2814 226.465C42.0005 225.208 60.1518 221.871 60.1518 221.871Z" fill="#F2F2F2"/>
<path d="M174.021 276.089C175.779 261.95 184.54 248.019 198.023 243.418C192.705 257.971 192.707 273.936 198.026 288.488C200.098 294.093 202.985 300.111 201.037 305.76C199.824 309.275 196.858 311.964 193.542 313.645C190.227 315.327 186.547 316.128 182.913 316.913L182.198 317.505C176.429 304.477 172.263 290.228 174.021 276.089Z" fill="#F0F0F0"/>
<path d="M198.156 243.684C190.305 252.483 185.425 263.532 184.21 275.263C183.903 277.783 183.996 280.337 184.484 282.828C185.039 285.24 186.229 287.46 187.931 289.256C189.484 290.963 191.271 292.529 192.382 294.584C192.935 295.644 193.258 296.809 193.33 298.003C193.401 299.197 193.219 300.392 192.796 301.511C191.815 304.326 189.881 306.62 187.912 308.798C185.725 311.216 183.416 313.693 182.487 316.899C182.374 317.288 181.778 317.09 181.891 316.702C183.508 311.125 188.921 307.957 191.503 302.933C192.708 300.589 193.213 297.867 192.084 295.393C191.096 293.229 189.255 291.613 187.668 289.898C185.982 288.17 184.744 286.055 184.064 283.738C183.45 281.28 183.259 278.734 183.499 276.211C183.949 270.523 185.291 264.94 187.474 259.669C189.933 253.638 193.406 248.073 197.741 243.213C198.009 242.913 198.423 243.386 198.156 243.684Z" fill="white"/>
<path d="M184.379 271.463C182.439 270.992 180.729 269.846 179.555 268.231C178.382 266.616 177.82 264.636 177.972 262.644C178.004 262.242 178.631 262.273 178.599 262.676C178.455 264.53 178.978 266.374 180.074 267.876C181.17 269.378 182.766 270.439 184.576 270.867C184.969 270.96 184.77 271.556 184.379 271.463Z" fill="white"/>
<path d="M187.029 288.495C190.533 286.402 193.12 283.065 194.274 279.15C194.388 278.762 194.984 278.959 194.87 279.347C193.662 283.419 190.963 286.886 187.311 289.055C186.963 289.262 186.683 288.7 187.029 288.495Z" fill="white"/>
<path d="M190.516 254.233C191.228 254.572 192.014 254.728 192.802 254.688C193.59 254.648 194.356 254.413 195.031 254.004C195.376 253.793 195.656 254.355 195.313 254.564C194.566 255.013 193.72 255.272 192.849 255.318C191.978 255.364 191.11 255.196 190.319 254.829C190.241 254.801 190.178 254.744 190.141 254.67C190.104 254.597 190.096 254.512 190.119 254.432C190.146 254.354 190.202 254.288 190.276 254.251C190.351 254.214 190.437 254.207 190.516 254.233Z" fill="white"/>
<path d="M239.119 268.671C238.907 268.809 238.695 268.947 238.483 269.09C235.644 270.957 232.96 273.052 230.46 275.354C230.264 275.529 230.068 275.71 229.877 275.89C223.913 281.5 219.042 288.169 215.512 295.558C214.109 298.499 212.933 301.543 211.993 304.663C210.695 308.971 209.629 313.747 207.059 317.271C206.795 317.642 206.509 317.996 206.201 318.331H182.975C182.922 318.305 182.869 318.283 182.816 318.257L181.889 318.299C181.926 318.135 181.968 317.965 182.005 317.801C182.027 317.706 182.053 317.61 182.074 317.515C182.09 317.451 182.106 317.388 182.117 317.329C182.122 317.308 182.127 317.287 182.132 317.271C182.143 317.213 182.159 317.16 182.17 317.107C182.403 316.158 182.643 315.209 182.89 314.261C182.89 314.255 182.89 314.255 182.895 314.25C184.798 307.026 187.32 299.898 190.844 293.379C190.95 293.183 191.056 292.982 191.173 292.786C192.777 289.856 194.619 287.063 196.679 284.433C197.811 282.997 199.015 281.619 200.287 280.305C203.58 276.915 207.385 274.064 211.564 271.857C219.894 267.458 229.538 265.772 238.441 268.459C238.668 268.528 238.891 268.597 239.119 268.671Z" fill="#F0F0F0"/>
<path d="M239.067 268.967C227.501 271.264 216.953 277.148 208.921 285.782C207.159 287.611 205.696 289.705 204.586 291.989C203.577 294.248 203.191 296.737 203.469 299.196C203.681 301.494 204.165 303.82 203.816 306.13C203.619 307.31 203.175 308.435 202.514 309.431C201.852 310.427 200.987 311.272 199.976 311.911C197.498 313.567 194.573 314.235 191.69 314.788C188.488 315.402 185.153 315.989 182.481 317.989C182.158 318.232 181.801 317.715 182.124 317.473C186.772 313.993 193.002 314.724 198.088 312.267C200.461 311.121 202.503 309.252 203.09 306.597C203.605 304.274 203.108 301.875 202.872 299.55C202.566 297.155 202.851 294.721 203.703 292.462C204.693 290.129 206.073 287.982 207.783 286.112C211.567 281.841 215.998 278.191 220.915 275.297C226.509 271.963 232.632 269.61 239.018 268.341C239.414 268.262 239.459 268.889 239.067 268.967Z" fill="white"/>
<path d="M211.344 282.85C210.078 281.306 209.403 279.361 209.438 277.365C209.474 275.369 210.217 273.45 211.537 271.951C211.805 271.649 212.287 272.051 212.019 272.354C210.788 273.747 210.095 275.534 210.066 277.394C210.037 279.253 210.673 281.061 211.86 282.492C212.118 282.804 211.6 283.159 211.344 282.85Z" fill="white"/>
<path d="M203.207 298.044C207.265 298.483 211.339 297.377 214.617 294.945C214.942 294.704 215.299 295.221 214.975 295.462C211.559 297.986 207.317 299.128 203.095 298.662C202.693 298.617 202.807 298 203.207 298.044Z" fill="white"/>
<path d="M226.616 272.789C226.981 273.488 227.514 274.086 228.168 274.529C228.821 274.972 229.574 275.245 230.359 275.325C230.762 275.364 230.647 275.982 230.247 275.942C229.38 275.85 228.549 275.548 227.826 275.06C227.103 274.573 226.51 273.916 226.1 273.146C226.055 273.077 226.038 272.993 226.053 272.912C226.068 272.831 226.113 272.759 226.179 272.71C226.248 272.663 226.332 272.645 226.414 272.659C226.496 272.674 226.568 272.721 226.616 272.789Z" fill="white"/>
<path d="M252.31 3.51367C251.327 3.51478 250.384 3.90599 249.688 4.6015C248.993 5.297 248.602 6.23998 248.601 7.22357V164.099C248.602 165.083 248.993 166.026 249.688 166.721C250.384 167.417 251.327 167.808 252.31 167.809H482.291C483.274 167.808 484.217 167.417 484.912 166.721C485.608 166.026 485.999 165.083 486 164.099V7.22357C485.999 6.24 485.608 5.29704 484.912 4.60154C484.217 3.90605 483.274 3.51482 482.291 3.51367H252.31Z" fill="#E6E6E6"/>
<path d="M257.609 8.8125C256.626 8.8136 255.683 9.20482 254.987 9.90032C254.292 10.5958 253.901 11.5388 253.9 12.5224V158.798C253.901 159.782 254.292 160.725 254.987 161.42C255.683 162.116 256.626 162.507 257.609 162.508H476.992C477.975 162.507 478.918 162.116 479.613 161.42C480.309 160.725 480.7 159.782 480.701 158.798V12.5224C480.7 11.5388 480.309 10.5959 479.613 9.90037C478.918 9.20488 477.975 8.81365 476.992 8.8125H257.609Z" fill="white"/>
<path opacity="0.1" d="M460.027 40.7999C454.982 38.8299 449.542 43.7704 448.361 49.0565C447.179 54.3424 448.691 59.8093 449.024 65.2156C449.357 70.6219 447.94 76.8998 443.118 79.3644C437.572 82.1985 431.067 78.514 424.864 77.9528C421.768 77.7069 418.66 78.2503 415.831 79.5321C413.002 80.814 410.544 82.7924 408.687 85.2824C403.572 92.301 403.832 102.492 397.779 108.72C392.52 114.131 383.949 114.835 376.592 113.162C369.234 111.489 362.472 107.854 355.237 105.711C348.003 103.568 339.629 103.12 333.429 107.421C326.957 111.912 324.077 120.713 316.972 124.114C311.948 126.519 306.001 125.601 300.625 124.145C295.249 122.689 289.828 120.725 284.278 121.192C278.728 121.659 272.942 125.489 272.502 131.042L462.985 130.51C463.85 105.365 464.715 80.219 465.58 55.0733C465.768 49.6108 465.118 42.7877 460.027 40.7999Z" fill="#C0D921"/>
<path d="M174.95 175.726C174.619 174.852 174.483 173.916 174.552 172.984C174.621 172.051 174.894 171.145 175.351 170.33C175.808 169.514 176.438 168.809 177.197 168.263C177.957 167.718 178.826 167.345 179.745 167.172L183.091 144.693L191.884 152.576L187.358 172.714C187.547 174.277 187.156 175.854 186.259 177.148C185.362 178.441 184.022 179.361 182.492 179.732C180.963 180.104 179.35 179.901 177.96 179.163C176.57 178.424 175.499 177.202 174.95 175.726Z" fill="#FFD0B6"/>
<path d="M113.591 179.138C114.162 178.398 114.563 177.542 114.768 176.629C114.972 175.717 114.974 174.771 114.773 173.858C114.572 172.945 114.174 172.087 113.605 171.344C113.037 170.602 112.313 169.993 111.484 169.561L114.804 147.078L104.102 152.07L102.59 172.655C101.957 174.095 101.873 175.719 102.356 177.217C102.839 178.715 103.855 179.984 105.211 180.783C106.567 181.582 108.169 181.856 109.713 181.553C111.258 181.25 112.637 180.391 113.591 179.138Z" fill="#FFD0B6"/>
<path d="M160.63 308.406L170.559 308.405L175.283 270.102L160.628 270.103L160.63 308.406Z" fill="#FFD0B6"/>
<path d="M158.097 305.165L177.651 305.164H177.652C180.957 305.164 184.126 306.477 186.463 308.815C188.8 311.152 190.113 314.322 190.113 317.627V318.032L158.098 318.033L158.097 305.165Z" fill="#151E2B"/>
<path d="M107.639 308.406L117.568 308.405L122.292 270.102L107.637 270.103L107.639 308.406Z" fill="#FFD0B6"/>
<path d="M105.106 305.165L124.66 305.164H124.661C127.966 305.164 131.135 306.477 133.472 308.815C135.809 311.152 137.122 314.322 137.122 317.627V318.032L105.107 318.033L105.106 305.165Z" fill="#151E2B"/>
<path d="M154.366 46.9481C164.272 46.9481 172.302 38.9165 172.302 29.0092C172.302 19.1018 164.272 11.0703 154.366 11.0703C144.46 11.0703 136.43 19.1018 136.43 29.0092C136.43 38.9165 144.46 46.9481 154.366 46.9481Z" fill="#FFD0B6"/>
<path d="M111.908 158.338C111.908 158.338 112.172 238.612 110.891 239.893C109.609 241.175 105.062 289.182 105.062 289.182H120.959C122.019 289.182 149.062 184.606 149.062 184.606C149.062 184.606 160.592 240.985 158.67 244.188C156.748 247.392 158.246 289.385 159.311 292.88C159.311 292.88 172.669 297.155 173.95 293.952C175.231 290.748 177.129 247.313 177.129 247.313L180.839 175.235L180.92 156.416L111.908 158.338Z" fill="#151E2B"/>
<path d="M185.575 66.082H192.712C193.236 66.0818 193.745 66.26 194.154 66.5875C194.564 66.915 194.85 67.3722 194.965 67.8838C196.067 72.7612 198.905 86.5867 198.386 97.475C197.746 110.929 196.464 132.071 196.464 133.993C196.464 135.916 190.059 165.387 190.059 165.387C190.059 165.387 185.655 158.147 180.81 159.525L181.731 133.353L183.012 122.461L181.091 103.241L185.575 66.082Z" fill="#E4E4E4"/>
<path d="M140.093 54.3516C140.093 54.3516 117.353 61.9173 114.79 68.324C112.228 74.7307 124.668 121.177 124.668 121.177C124.668 121.177 119.899 142.376 113.509 162.503C110.601 171.663 138.352 163.821 151.164 159.336C159.102 156.582 173.786 160.811 182.051 159.3C182.051 159.3 183.333 142.002 182.051 138.798C180.77 135.595 177.567 137.517 179.489 133.032C181.411 128.547 180.77 127.907 180.13 125.985C179.489 124.063 181.411 121.5 181.411 118.937C181.411 116.375 180.77 110.608 180.77 110.608C180.77 110.608 198.066 70.246 194.223 66.402C190.379 62.5579 170.815 55.1511 170.815 55.1511C170.815 55.1511 171.3 55.4587 140.093 54.3516Z" fill="#E4E4E4"/>
<path d="M118.954 66.082L116.679 67.2197C115.793 67.6626 115.022 68.3044 114.426 69.0949C113.83 69.8855 113.425 70.8033 113.242 71.7766L104.221 119.899L102.299 165.387C102.299 165.387 113.189 162.183 116.392 165.387C116.392 165.387 113.189 155.776 115.11 152.573C117.032 149.37 117.032 144.885 117.032 144.885C117.032 144.885 115.751 144.885 118.954 141.682C122.157 138.478 122.797 137.197 122.157 136.556C121.516 135.916 120.876 130.149 120.876 129.509C120.876 128.868 127.282 85.943 127.282 85.943L118.954 66.082Z" fill="#E4E4E4"/>
<path d="M271.592 130.424C271.31 130.424 271.041 130.313 270.842 130.114C270.643 129.915 270.532 129.646 270.532 129.365C270.532 129.083 270.643 128.814 270.842 128.615C271.041 128.416 271.31 128.305 271.592 128.305C320.563 128.305 367.267 118.498 403.099 100.69C436.699 83.9922 458.111 61.3488 461.843 38.5656C461.865 38.428 461.914 38.2962 461.987 38.1776C462.06 38.0589 462.156 37.9559 462.269 37.8744C462.382 37.7928 462.51 37.7343 462.646 37.7023C462.781 37.6702 462.922 37.6652 463.059 37.6875C463.197 37.7098 463.329 37.7591 463.447 37.8324C463.565 37.9057 463.668 38.0016 463.75 38.1147C463.831 38.2278 463.889 38.3559 463.921 38.4915C463.953 38.6272 463.958 38.7678 463.935 38.9053L463.935 38.9082C461.996 50.7431 455.703 62.3523 445.231 73.4137C434.903 84.3232 421.045 94.1394 404.043 102.589C367.923 120.539 320.884 130.424 271.592 130.424Z" fill="#C0D921"/>
<path d="M472.753 130.638H270.327V30.6152H271.387V129.578H472.753V130.638Z" fill="#E6E6E6"/>
<path d="M137.46 35.0527C136.64 33.0402 136.509 30.8132 137.085 28.718C138.55 32.6046 141.461 31.4182 142.944 29.5956C144.805 27.3099 144.269 22.0314 147.206 21.7952C150.143 21.559 153.08 22.1149 155.974 22.6682C155.494 21.8471 155.015 21.0259 154.535 20.2047C156.629 20.3347 158.722 20.4646 160.816 20.5946C160.192 19.5688 159.569 18.5431 158.945 17.5175C161.791 18.5177 164.395 20.1064 166.586 22.1801C168.777 24.2537 170.506 26.7659 171.662 29.5528C172.747 27.7949 173.424 25.8152 173.641 23.7604C173.858 21.7056 173.61 19.6283 172.915 17.6824C172.22 15.7365 171.096 13.9719 169.627 12.5193C168.158 11.0668 166.381 9.96343 164.427 9.29108C165.253 8.20743 166.079 7.12381 166.904 6.04021L150.095 4.38126C150.053 3.57094 150.209 2.76263 150.55 2.02631C150.891 1.28999 151.406 0.647864 152.051 0.155519C149.85 -0.341607 147.515 0.40413 145.645 1.66654C143.774 2.92897 142.287 4.66984 140.824 6.38829C138.61 8.99026 136.368 11.633 134.919 14.7271C133.432 18.021 132.882 21.6614 133.331 25.2475C133.779 28.8337 135.208 32.2265 137.46 35.0527ZM137.663 27.1586L137.664 27.1576L137.681 27.1546L137.663 27.1586Z" fill="#151E2B"/>
<path d="M343.638 318.629H0.631083C0.46406 318.629 0.304047 318.562 0.186115 318.444C0.0681825 318.326 0.00195312 318.165 0.00195312 317.998C0.00195312 317.831 0.0681825 317.671 0.186115 317.553C0.304047 317.434 0.46406 317.368 0.631083 317.367H343.638C343.805 317.368 343.965 317.434 344.083 317.553C344.201 317.671 344.268 317.831 344.268 317.998C344.268 318.165 344.201 318.326 344.083 318.444C343.965 318.562 343.805 318.629 343.638 318.629Z" fill="#CACACA"/>
</g>
<defs>
<clipPath id="clip0_5033_80634">
<rect width="486" height="318.629" fill="white"/>
</clipPath>
</defs>
</svg>
