<svg width="290" height="328" viewBox="0 0 290 328" fill="none" xmlns="http://www.w3.org/2000/svg">
<g clip-path="url(#clip0_5033_80671)">
<path d="M186.442 242.841C187.093 243.188 187.835 243.326 188.568 243.239C189.301 243.151 189.988 242.841 190.538 242.35C191.088 241.86 191.474 241.213 191.642 240.497C191.811 239.781 191.755 239.031 191.481 238.348C191.554 237.984 191.607 237.723 191.68 237.36C193.088 236.05 194.857 235.189 196.759 234.888C198.661 234.586 200.61 234.858 202.356 235.667C204.103 236.477 205.567 237.787 206.56 239.432C207.554 241.076 208.033 242.978 207.935 244.895C207.489 255.706 208.025 267.371 200.815 276.086C233.723 249.288 248.727 203.635 238.678 162.575C233.746 155.727 231.446 146.63 233.658 138.387C236.432 141.076 241.842 140.354 241.015 135.697C240.572 133.857 240.113 132.023 239.67 130.182C258.623 122.812 263.572 150.897 241.12 162.333C242.942 170.139 243.939 178.114 244.096 186.127C246.631 178.901 250.85 172.379 256.408 167.096C261.789 162.268 268.904 159.429 275.523 156.19C283.577 152.238 292.516 160.072 289.344 168.436C283.983 167.753 280.189 174.139 285.054 177.572C276.509 191.874 260.123 200.965 243.475 201.109C241.791 217.429 236.637 233.204 228.354 247.383C238.99 231.267 259.571 235.907 275.837 235.22C276.916 235.084 278.012 235.265 278.99 235.739C279.968 236.213 280.786 236.961 281.345 237.891C281.904 238.821 282.18 239.893 282.138 240.976C282.096 242.059 281.738 243.107 281.109 243.991C278.97 243.866 276.823 243.953 274.7 244.251C273.702 244.398 272.774 244.85 272.043 245.543C271.312 246.237 270.815 247.139 270.618 248.126C270.422 249.112 270.537 250.135 270.947 251.054C271.357 251.973 272.042 252.743 272.909 253.259C258.64 266.295 236.531 269.097 219.178 260.779C214.048 267.219 208.26 273.11 201.907 278.358L176.109 266.103C176.153 265.773 176.211 265.439 176.264 265.114C178.581 266.398 181.046 267.394 183.606 268.081C180.854 257.625 177.787 251.501 186.441 242.841H186.442Z" fill="#F2F2F2"/>
<path d="M140.857 218.107C140.385 218.673 139.751 219.08 139.039 219.274C138.327 219.469 137.573 219.44 136.878 219.193C136.183 218.945 135.581 218.491 135.154 217.891C134.727 217.291 134.495 216.575 134.49 215.84C134.284 215.531 134.137 215.309 133.931 215C132.131 214.316 130.168 214.184 128.292 214.619C126.416 215.055 124.714 216.039 123.403 217.445C122.092 218.852 121.233 220.616 120.934 222.512C120.636 224.408 120.913 226.35 121.729 228.089C126.234 237.933 130.153 248.938 140.129 254.3C99.5093 241.851 68.3336 205.211 62.0994 163.406C64.0744 155.21 62.7616 145.921 57.5934 139.117C56.0415 142.652 50.7581 144.016 49.7613 139.393C49.4755 137.522 49.2062 135.65 48.9202 133.779C28.5769 134.078 34.6244 161.949 59.7456 164.1C61.0135 172.014 63.1081 179.775 65.9953 187.255C60.9132 181.516 54.5365 177.062 47.3899 174.258C40.5793 171.809 32.9155 171.855 25.5594 171.343C16.6043 170.711 11.2912 181.327 17.3939 187.881C22.1007 185.232 28.0317 189.721 24.8246 194.728C38.1525 204.762 56.7686 207.022 72.2417 200.897C79.9781 215.379 90.7228 228.051 103.76 238.069C87.8102 227.141 70.505 239.175 55.1812 244.654C54.1304 244.934 53.1841 245.512 52.4578 246.319C51.7314 247.126 51.2564 248.126 51.0907 249.198C50.925 250.269 51.0757 251.365 51.5245 252.353C51.9733 253.34 52.7007 254.176 53.6181 254.759C55.5524 253.838 57.5737 253.112 59.6522 252.59C60.6326 252.351 61.663 252.42 62.6023 252.788C63.5416 253.156 64.3438 253.804 64.8989 254.644C65.454 255.484 65.7349 256.475 65.7029 257.48C65.671 258.485 65.3279 259.456 64.7206 260.259C82.869 266.968 104.406 261.252 117.328 247.026C124.517 251.062 132.108 254.342 139.977 256.814L159.231 235.766C159.066 235.478 158.885 235.19 158.713 234.908C157.054 236.968 155.148 238.818 153.037 240.416C151.628 229.698 152.151 222.874 140.858 218.107L140.857 218.107Z" fill="#F2F2F2"/>
<path d="M145.812 129.169C146.546 129.095 147.24 128.798 147.799 128.318C148.358 127.838 148.756 127.199 148.938 126.486C149.12 125.773 149.078 125.022 148.817 124.334C148.557 123.646 148.09 123.054 147.481 122.639C147.339 122.297 147.236 122.051 147.094 121.709C147.53 119.839 148.516 118.142 149.927 116.835C151.337 115.528 153.107 114.67 155.009 114.371C156.912 114.073 158.861 114.348 160.606 115.16C162.35 115.973 163.812 117.286 164.803 118.932C170.481 128.154 177.453 137.54 176.343 148.782C188.668 108.25 175.583 62.0149 144.268 33.5127C136.344 30.5681 129.345 24.2945 126.569 16.2224C130.377 16.9134 134.463 13.3078 131.172 9.9018C129.775 8.62061 128.367 7.35261 126.97 6.07134C138.58 -10.5788 158.401 9.98675 146.161 31.9545C152.04 37.4229 157.33 43.4888 161.943 50.0533C160.005 42.647 159.859 34.8878 161.517 27.4141C163.282 20.4165 167.6 14.1064 171.283 7.73964C175.758 -0.0163298 187.562 1.52086 189.609 10.2262C184.775 12.6378 185.199 20.0477 191.158 20.1934C192.066 36.8149 183.55 53.4661 169.81 62.8364C177.543 77.3199 182.089 93.2795 183.146 109.652C182.958 90.3634 202.64 82.7793 215.759 73.1715C216.579 72.4593 217.589 72.0003 218.666 71.8505C219.744 71.7007 220.841 71.8667 221.826 72.328C222.81 72.7894 223.638 73.5263 224.21 74.4488C224.781 75.3713 225.07 76.4395 225.043 77.5232C223.196 78.6082 221.463 79.8734 219.867 81.3C219.121 81.9771 218.603 82.8676 218.385 83.8495C218.166 84.8314 218.258 85.8567 218.647 86.7847C219.036 87.7127 219.704 88.498 220.558 89.0331C221.413 89.5681 222.413 89.8267 223.42 89.7733C218.868 108.523 202.082 123.134 183.023 125.871C182.367 134.068 180.858 142.174 178.521 150.061L150.248 154.222C150.101 153.923 149.961 153.614 149.824 153.314C152.465 153.093 155.069 152.55 157.578 151.698C149.444 144.548 143.472 141.168 145.811 129.17L145.812 129.169Z" fill="#F2F2F2"/>
<path d="M174.247 120.135C161.376 120.135 154.394 118.568 151.956 115.222C149.805 112.269 151.247 108.374 152.917 103.864C154.118 100.622 155.478 96.948 155.478 93.3115C155.478 75.6245 164.477 66.6562 182.225 66.6562C191.055 66.6562 200.536 71.331 207.587 79.1614C213.997 86.28 217.19 94.7997 216.348 102.536C215.657 108.88 212.694 113.053 207.022 115.667L206.691 115.82L206.596 115.468C206.107 113.647 205.278 111.934 204.153 110.419C204.043 112.798 203.442 115.129 202.385 117.265L202.325 117.387L202.194 117.424C195.775 119.247 188.156 119.74 182.236 119.966C179.355 120.078 176.692 120.135 174.247 120.135Z" fill="#151E2B"/>
<path d="M177.755 144.778C177.262 143.333 176.43 142.026 175.328 140.965C174.226 139.905 172.887 139.121 171.42 138.68C169.954 138.239 168.403 138.152 166.897 138.428C165.39 138.704 163.971 139.333 162.758 140.265L120.42 165.491L107.172 133.276C108.291 131.64 108.861 129.692 108.801 127.713C108.741 125.734 108.053 123.824 106.837 122.258C105.621 120.693 103.938 119.551 102.03 118.997C100.123 118.443 98.088 118.506 96.2181 119.176C94.3483 119.845 92.7393 121.088 91.622 122.726C90.5047 124.363 89.9365 126.311 89.9988 128.29C90.0611 130.27 90.7508 132.178 91.9689 133.743C93.187 135.307 94.871 136.447 96.7793 136.999C97.5959 146.288 102.134 187.81 117.921 186.301C131.19 185.032 164.144 163.161 174.379 155.577C176.017 154.365 177.226 152.666 177.833 150.726C178.439 148.785 178.412 146.703 177.755 144.778Z" fill="#FFD0B6"/>
<path d="M209.66 327.999H172.811L166.632 297.551L164.627 327.999H130.397C130.41 304.088 131.66 280.193 134.142 256.41L134.566 254.97L135.236 252.666L135.661 251.22L142.744 226.979L143.303 225.055H185.957C188.411 227.352 190.675 229.844 192.727 232.506C193.421 233.388 194.147 234.344 194.891 235.374C195.407 236.103 195.942 236.869 196.477 237.671C201.23 244.723 204.783 252.507 206.992 260.711V260.718C207.367 262.121 207.699 263.557 207.988 265.025V265.031C208.246 266.337 208.473 267.66 208.652 269.014C208.787 270.001 208.904 271 208.99 272.011C209.503 277.612 209.323 283.255 208.455 288.813L209.66 327.999Z" fill="#151E2B"/>
<path d="M14.2858 49.5844C16.6789 48.6612 18.0965 46.5679 17.4521 44.9089C16.8076 43.2498 14.3453 42.6533 11.9522 43.5765C9.5591 44.4997 8.14155 46.593 8.78597 48.252C9.43039 49.9111 11.8928 50.5076 14.2858 49.5844Z" fill="#E6E6E6"/>
<path d="M44.4165 45.7328C46.8095 44.8097 48.2271 42.7164 47.5827 41.0573C46.9383 39.3983 44.4759 38.8017 42.0828 39.7249C39.6897 40.6481 38.2722 42.7414 38.9166 44.4005C39.561 46.0595 42.0234 46.656 44.4165 45.7328Z" fill="#0A4A3F"/>
<path d="M11.6726 75.2036C14.0657 74.2804 15.4832 72.1871 14.8388 70.528C14.1944 68.869 11.732 68.2724 9.33891 69.1956C6.94584 70.1188 5.52827 72.2121 6.17269 73.8712C6.81711 75.5302 9.2795 76.1267 11.6726 75.2036Z" fill="#FF6584"/>
<path d="M2.95605 86.504C4.05392 86.245 4.64111 84.7601 4.26757 83.1873C3.89403 81.6145 2.7012 80.5495 1.60334 80.8084C0.505471 81.0674 -0.0817047 82.5523 0.291837 84.1251C0.66538 85.6979 1.85819 86.7629 2.95605 86.504Z" fill="#E6E6E6"/>
<path d="M2.77661 105.637C3.87447 105.378 4.46165 103.893 4.08811 102.32C3.71457 100.747 2.52176 99.6823 1.42389 99.9413C0.326028 100.2 -0.261148 101.685 0.112394 103.258C0.485936 104.831 1.67875 105.896 2.77661 105.637Z" fill="#0A4A3F"/>
<path d="M29.2217 66.0098C30.3195 65.7509 30.9067 64.2659 30.5332 62.6932C30.1596 61.1204 28.9668 60.0553 27.869 60.3143C26.7711 60.5733 26.1839 62.0582 26.5575 63.631C26.931 65.2037 28.1238 66.2688 29.2217 66.0098Z" fill="#E6E6E6"/>
<path d="M13.3525 62.168C14.4504 61.9091 15.0376 60.4242 14.664 58.8514C14.2905 57.2786 13.0977 56.2135 11.9998 56.4725C10.902 56.7315 10.3148 58.2164 10.6883 59.7892C11.0619 61.362 12.2547 62.427 13.3525 62.168Z" fill="#FF6584"/>
<path d="M30.1726 44.5508C31.2705 44.2919 31.8576 42.807 31.4841 41.2342C31.1106 39.6614 29.9178 38.5964 28.8199 38.8553C27.722 39.1143 27.1348 40.5992 27.5084 42.172C27.8819 43.7448 29.0747 44.8098 30.1726 44.5508Z" fill="#0A4A3F"/>
<path d="M37.9953 176.968C39.1524 175.613 38.5064 173.171 36.5523 171.514C34.5982 169.856 32.0761 169.61 30.9191 170.965C29.762 172.32 30.4081 174.762 32.3621 176.419C34.3162 178.077 36.8383 178.323 37.9953 176.968Z" fill="#E6E6E6"/>
<path d="M20.2497 152.398C21.4068 151.043 20.7608 148.601 18.8067 146.943C16.8526 145.286 14.3305 145.04 13.1735 146.395C12.0164 147.749 12.6625 150.191 14.6165 151.849C16.5706 153.507 19.0927 153.752 20.2497 152.398Z" fill="#0A4A3F"/>
<path d="M61.845 167.06C63.0021 165.705 62.356 163.263 60.4019 161.605C58.4478 159.948 55.9258 159.702 54.7687 161.057C53.6116 162.412 54.2577 164.854 56.2117 166.511C58.1658 168.169 60.6879 168.414 61.845 167.06Z" fill="#FF6584"/>
<path d="M73.6933 167.331C74.9032 166.255 75.2751 164.702 74.5238 163.864C73.7726 163.025 72.1827 163.217 70.9728 164.294C69.7628 165.37 69.391 166.922 70.1422 167.761C70.8935 168.6 72.4834 168.407 73.6933 167.331Z" fill="#E6E6E6"/>
<path d="M90.6606 158.38C91.8705 157.304 92.2424 155.751 91.4911 154.912C90.7399 154.074 89.15 154.266 87.94 155.342C86.7301 156.419 86.3583 157.971 87.1095 158.81C87.8608 159.649 89.4506 159.456 90.6606 158.38Z" fill="#0A4A3F"/>
<path d="M43.1025 154.071C44.3124 152.995 44.6843 151.443 43.933 150.604C43.1818 149.765 41.5919 149.958 40.382 151.034C39.172 152.11 38.8002 153.662 39.5514 154.501C40.3027 155.34 41.8925 155.148 43.1025 154.071Z" fill="#E6E6E6"/>
<path d="M47.2697 169.808C48.4796 168.731 48.8515 167.179 48.1002 166.34C47.349 165.501 45.7591 165.694 44.5492 166.77C43.3393 167.846 42.9674 169.399 43.7187 170.238C44.4699 171.076 46.0598 170.884 47.2697 169.808Z" fill="#FF6584"/>
<path d="M23.7155 163.456C24.9254 162.38 25.2973 160.827 24.546 159.989C23.7948 159.15 22.2049 159.342 20.995 160.419C19.7851 161.495 19.4132 163.047 20.1645 163.886C20.9157 164.725 22.5056 164.532 23.7155 163.456Z" fill="#0A4A3F"/>
<path d="M157.21 19.377C158.812 18.5919 159.193 16.0951 158.06 13.8003C156.928 11.5055 154.711 10.2816 153.109 11.0667C151.507 11.8518 151.127 14.3486 152.259 16.6434C153.392 18.9382 155.608 20.1621 157.21 19.377Z" fill="#E6E6E6"/>
<path d="M163.701 48.9512C165.303 48.1661 165.683 45.6693 164.551 43.3745C163.418 41.0797 161.202 39.8558 159.6 40.6409C157.998 41.4261 157.617 43.9228 158.75 46.2176C159.882 48.5125 162.099 49.7363 163.701 48.9512Z" fill="#0A4A3F"/>
<path d="M131.374 19.0274C132.975 18.2423 133.356 15.7455 132.224 13.4507C131.091 11.1559 128.874 9.93199 127.273 10.7171C125.671 11.5022 125.29 13.999 126.423 16.2938C127.555 18.5886 129.772 19.8125 131.374 19.0274Z" fill="#FF6584"/>
<path d="M117.793 9.64295C119.333 9.13432 120.293 7.85686 119.938 6.78965C119.583 5.72244 118.047 5.26962 116.508 5.77825C114.968 6.28689 114.008 7.56437 114.363 8.63157C114.718 9.69878 116.254 10.1516 117.793 9.64295Z" fill="#E6E6E6"/>
<path d="M98.6536 11.141C100.193 10.6324 101.153 9.35489 100.798 8.28769C100.443 7.22048 98.9072 6.76767 97.3678 7.27631C95.8285 7.78495 94.8684 9.0624 95.2234 10.1296C95.5785 11.1968 97.1142 11.6496 98.6536 11.141Z" fill="#0A4A3F"/>
<path d="M140.581 33.9222C142.12 33.4136 143.081 32.1361 142.726 31.0689C142.37 30.0017 140.835 29.5489 139.295 30.0575C137.756 30.5662 136.796 31.8437 137.151 32.9109C137.506 33.9781 139.042 34.4309 140.581 33.9222Z" fill="#E6E6E6"/>
<path d="M143.029 17.8304C144.569 17.3218 145.529 16.0443 145.174 14.9771C144.819 13.9099 143.283 13.4571 141.744 13.9658C140.204 14.4744 139.244 15.7519 139.599 16.8191C139.954 17.8863 141.49 18.3391 143.029 17.8304Z" fill="#FF6584"/>
<path d="M162.113 32.9867C163.652 32.4781 164.613 31.2006 164.258 30.1334C163.902 29.0662 162.367 28.6134 160.827 29.122C159.288 29.6306 158.328 30.9081 158.683 31.9753C159.038 33.0425 160.574 33.4953 162.113 32.9867Z" fill="#0A4A3F"/>
<path d="M168.022 125.06L188.323 124.018L197.752 138.866C197.752 138.866 215.493 141.822 214.263 162.656C213.033 183.489 192.678 201.771 192.678 201.771L193.548 212.621L192.037 216.924L192.23 219.34L194.292 221.899L194.504 224.546L192.678 228.733L195.162 232.742L142.938 227.7L141.029 220.767L143.814 217.044L142.258 212.188L144.598 207.518L145.817 192.682C145.817 192.682 132.472 172.702 147.792 157.652L153.941 147.235L160.821 138.87L168.022 125.06Z" fill="#C0D921"/>
<path d="M178.114 120.866C189.994 120.866 199.625 111.269 199.625 99.4293C199.625 87.5899 189.994 77.9922 178.114 77.9922C166.234 77.9922 156.604 87.5899 156.604 99.4293C156.604 111.269 166.234 120.866 178.114 120.866Z" fill="#FFD0B6"/>
<path d="M175.234 98.1295C173.381 98.1295 171.528 98.0774 169.676 97.9733L169.345 97.9548L169.389 97.6274C169.662 95.5812 169.508 93.501 168.938 91.5165C167.97 93.7761 166.529 95.8039 164.712 97.4646L164.609 97.5583L164.471 97.5433C159.442 96.9952 154.459 96.0895 149.56 94.8332L149.373 94.7853L149.335 94.5962C148.969 92.8056 148.78 90.9835 148.77 89.1561C148.77 83.4477 150.846 78.6431 154.617 75.6275C158.722 72.3449 164.606 71.3354 171.191 72.7833H192.247C194.562 72.7858 196.781 73.7034 198.418 75.3347C200.055 76.966 200.976 79.1777 200.978 81.4846V94.773L200.749 94.8329C192.42 97.0142 183.845 98.1221 175.234 98.1295Z" fill="#151E2B"/>
<path d="M28.4564 74.284C27.5138 74.6276 26.7464 75.3297 26.3227 76.2364C25.8989 77.1431 25.8533 78.1803 26.1959 79.1205L48.9113 141.236C49.256 142.175 49.9605 142.94 50.8703 143.362C51.7801 143.785 52.8209 143.83 53.7643 143.489L141.926 111.469C142.869 111.125 143.636 110.423 144.06 109.516C144.484 108.609 144.529 107.572 144.187 106.632L121.471 44.5168C121.127 43.5775 120.422 42.8127 119.512 42.3903C118.603 41.968 117.562 41.9225 116.618 42.264L28.4564 74.284Z" fill="#CCCCCC"/>
<path d="M109.114 119.962L55.1499 139.562C54.1346 139.929 53.0145 139.88 52.0352 139.426C51.056 138.971 50.2978 138.148 49.9268 137.137L29.3242 80.7989C28.9554 79.7871 29.0044 78.6707 29.4605 77.6949C29.9166 76.719 30.7425 75.9633 31.757 75.5935L114.937 45.3829C115.953 45.0154 117.073 45.0643 118.052 45.5188C119.031 45.9734 119.789 46.7965 120.161 47.8076L130.115 75.0295C133.298 83.7639 132.875 93.3999 128.938 101.823C125.001 110.247 117.871 116.77 109.114 119.962Z" fill="white"/>
<path d="M70.2841 79.2635L57.4604 83.921C57.2996 83.9794 57.1288 84.0057 56.9578 83.9983C56.7868 83.991 56.6189 83.9501 56.4637 83.8781C56.3086 83.806 56.1692 83.7043 56.0535 83.5786C55.9378 83.4529 55.8481 83.3057 55.7895 83.1454C55.7309 82.9851 55.7045 82.8149 55.7119 82.6445C55.7193 82.4741 55.7603 82.3068 55.8326 82.1521C55.9049 81.9975 56.007 81.8586 56.1331 81.7433C56.2593 81.628 56.407 81.5386 56.5678 81.4802L69.3915 76.8227C69.7163 76.7047 70.0748 76.7202 70.3882 76.8656C70.7015 77.0111 70.9441 77.2746 71.0624 77.5983C71.1808 77.922 71.1653 78.2793 71.0193 78.5915C70.8734 78.9038 70.6089 79.1455 70.2841 79.2635Z" fill="#C0D921"/>
<path d="M100.856 73.8143L59.2859 88.9125C59.125 88.9711 58.9541 88.9976 58.783 88.9904C58.6118 88.9831 58.4438 88.9424 58.2884 88.8704C58.1331 88.7984 57.9936 88.6966 57.8777 88.5708C57.7619 88.445 57.6721 88.2977 57.6135 88.1374C57.5548 87.977 57.5284 87.8066 57.5359 87.6361C57.5434 87.4655 57.5845 87.2981 57.6569 87.1434C57.7293 86.9887 57.8316 86.8497 57.958 86.7345C58.0843 86.6192 58.2322 86.5299 58.3933 86.4716L99.9636 71.3734C100.124 71.315 100.295 71.2888 100.466 71.2961C100.637 71.3035 100.805 71.3444 100.96 71.4164C101.115 71.4884 101.255 71.5902 101.37 71.7159C101.486 71.8416 101.576 71.9888 101.635 72.1491C101.693 72.3094 101.719 72.4796 101.712 72.65C101.705 72.8204 101.664 72.9877 101.591 73.1423C101.519 73.2969 101.417 73.4359 101.291 73.5512C101.165 73.6665 101.017 73.7559 100.856 73.8143Z" fill="#C0D921"/>
<path d="M102.951 79.5422L61.3811 94.6404C61.2202 94.6988 61.0494 94.7251 60.8784 94.7177C60.7074 94.7104 60.5396 94.6695 60.3844 94.5975C60.2292 94.5254 60.0898 94.4237 59.9742 94.298C59.8585 94.1722 59.7687 94.0251 59.7101 93.8648C59.6515 93.7045 59.6252 93.5343 59.6326 93.3639C59.64 93.1935 59.681 93.0262 59.7532 92.8715C59.8255 92.7169 59.9276 92.578 60.0538 92.4627C60.1799 92.3474 60.3276 92.258 60.4884 92.1996L102.059 77.1014C102.383 76.9839 102.742 76.9997 103.055 77.1452C103.368 77.2908 103.61 77.5542 103.728 77.8776C103.846 78.201 103.831 78.558 103.685 78.8701C103.54 79.1822 103.276 79.424 102.951 79.5422Z" fill="#C0D921"/>
<path d="M105.047 85.2733L63.4763 100.371C63.3154 100.43 63.1445 100.457 62.9734 100.449C62.8022 100.442 62.6342 100.401 62.4789 100.329C62.3236 100.257 62.184 100.156 62.0682 100.03C61.9523 99.904 61.8625 99.7567 61.8039 99.5963C61.7452 99.4359 61.7189 99.2656 61.7263 99.0951C61.7338 98.9245 61.7749 98.7571 61.8473 98.6024C61.9197 98.4477 62.0221 98.3087 62.1484 98.1935C62.2748 98.0782 62.4227 97.9889 62.5837 97.9306L104.154 82.8324C104.315 82.774 104.486 82.7477 104.657 82.7551C104.828 82.7625 104.996 82.8034 105.151 82.8754C105.306 82.9474 105.445 83.0492 105.561 83.1749C105.677 83.3006 105.766 83.4478 105.825 83.6081C105.884 83.7684 105.91 83.9385 105.903 84.109C105.895 84.2794 105.854 84.4467 105.782 84.6013C105.71 84.7559 105.607 84.8949 105.481 85.0102C105.355 85.1255 105.207 85.2149 105.047 85.2733Z" fill="#C0D921"/>
<path d="M107.142 91.0018L65.5717 106.1C65.247 106.218 64.8884 106.202 64.5751 106.057C64.2617 105.912 64.0192 105.648 63.9008 105.324C63.7824 105.001 63.798 104.643 63.9439 104.331C64.0899 104.019 64.3543 103.777 64.6791 103.659L106.249 88.5609C106.41 88.5025 106.581 88.4763 106.752 88.4836C106.923 88.491 107.091 88.5319 107.246 88.6039C107.401 88.6759 107.541 88.7777 107.656 88.9034C107.772 89.0291 107.862 89.1763 107.92 89.3366C107.979 89.4969 108.005 89.6671 107.998 89.8375C107.991 90.0079 107.95 90.1752 107.877 90.3298C107.805 90.4845 107.703 90.6234 107.577 90.7387C107.451 90.854 107.303 90.9434 107.142 91.0018Z" fill="#C0D921"/>
<path d="M239.045 106.915L216.285 161.194C215.313 163.491 213.475 165.315 211.166 166.273C208.858 167.231 206.263 167.246 203.944 166.314C202.744 165.832 201.655 165.112 200.743 164.197C199.831 163.282 199.116 162.192 198.642 160.993C198.167 159.793 197.942 158.51 197.981 157.221C198.02 155.933 198.321 154.665 198.868 153.496L224.245 97.8365L238.234 63.3677C237.025 62.1662 236.216 60.6229 235.918 58.9476C235.62 57.2723 235.847 55.5461 236.568 54.0037C237.288 52.4612 238.468 51.1772 239.946 50.326C241.424 49.4749 243.13 49.098 244.831 49.2464C246.531 49.3949 248.145 50.0615 249.452 51.1558C250.76 52.25 251.698 53.7188 252.138 55.3627C252.579 57.0065 252.501 58.7456 251.915 60.3438C251.329 61.942 250.264 63.3217 248.864 64.2955L239.045 106.915Z" fill="#FFD0B6"/>
</g>
<defs>
<clipPath id="clip0_5033_80671">
<rect width="290" height="328" fill="white"/>
</clipPath>
</defs>
</svg>
