<svg width="100" height="82" viewBox="0 0 100 82" fill="none" xmlns="http://www.w3.org/2000/svg">
<g clip-path="url(#clip0_5080_82510)">
<path d="M96.0649 71.2324H0V72.3072H96.0649V71.2324Z" fill="#3F3D56"/>
<path d="M96.0649 80.3691H0V81.4439H96.0649V80.3691Z" fill="#3F3D56"/>
<path d="M87.778 72.2225C87.7206 72.1273 86.3669 69.8338 85.8976 65.0714C85.4671 60.7022 85.7439 53.3375 89.5082 43.0643C96.6397 23.6024 87.8648 7.89953 87.7751 7.74311L88.208 7.48828C88.2307 7.52794 90.495 11.5316 91.8326 17.9067C93.6 26.3588 92.9564 35.147 89.9773 43.2413C82.8581 62.6699 88.1508 71.8673 88.2051 71.958L87.778 72.2225Z" fill="#3F3D56"/>
<path d="M84.9895 6.59974C86.7856 6.59974 88.2417 5.12234 88.2417 3.29987C88.2417 1.4774 86.7856 0 84.9895 0C83.1933 0 81.7372 1.4774 81.7372 3.29987C81.7372 5.12234 83.1933 6.59974 84.9895 6.59974Z" fill="#3F3D56"/>
<path d="M95.2467 18.7833C97.0428 18.7833 98.4989 17.3059 98.4989 15.4835C98.4989 13.661 97.0428 12.1836 95.2467 12.1836C93.4505 12.1836 91.9944 13.661 91.9944 15.4835C91.9944 17.3059 93.4505 18.7833 95.2467 18.7833Z" fill="#3F3D56"/>
<path d="M88.2418 26.9064C90.038 26.9064 91.4941 25.429 91.4941 23.6065C91.4941 21.784 90.038 20.3066 88.2418 20.3066C86.4456 20.3066 84.9895 21.784 84.9895 23.6065C84.9895 25.429 86.4456 26.9064 88.2418 26.9064Z" fill="#66A2CE"/>
<path d="M96.7478 33.7599C98.5439 33.7599 100 32.2825 100 30.46C100 28.6376 98.5439 27.1602 96.7478 27.1602C94.9516 27.1602 93.4955 28.6376 93.4955 30.46C93.4955 32.2825 94.9516 33.7599 96.7478 33.7599Z" fill="#66A2CE"/>
<path d="M85.7401 44.422C87.5363 44.422 88.9923 42.9446 88.9923 41.1221C88.9923 39.2997 87.5363 37.8223 85.7401 37.8223C83.9439 37.8223 82.4878 39.2997 82.4878 41.1221C82.4878 42.9446 83.9439 44.422 85.7401 44.422Z" fill="#3F3D56"/>
<path d="M89.7428 72.3437C89.7428 72.3437 86.4905 64.221 96.2473 58.1289L89.7428 72.3437Z" fill="#3F3D56"/>
<path d="M85.7431 72.1952C85.7431 72.1952 84.2629 63.5573 72.8069 63.6313L85.7431 72.1952Z" fill="#3F3D56"/>
<path d="M15.9718 50.8719C18.6214 50.8719 20.7692 48.6926 20.7692 46.0043C20.7692 43.316 18.6214 41.1367 15.9718 41.1367C13.3223 41.1367 11.1744 43.316 11.1744 46.0043C11.1744 48.6926 13.3223 50.8719 15.9718 50.8719Z" fill="#A0616A"/>
<path d="M16.8411 39.95C15.9236 39.7214 14.937 39.6833 14.0482 40.0081C13.1328 40.3427 12.3793 41.042 11.8251 41.8534C11.2708 42.6648 10.8986 43.5883 10.5652 44.5157C10.3707 45.0214 10.2202 45.5434 10.1153 46.0757C9.99577 46.7852 10.0188 47.512 10.183 48.2123C10.3472 48.9126 10.6492 49.572 11.0709 50.1509C10.9305 49.775 11.2842 49.3653 11.6721 49.2839C12.0601 49.2025 12.4553 49.3402 12.8379 49.4444C13.512 49.6279 14.2089 49.7111 14.9066 49.6912C15.1739 49.6835 15.4541 49.6562 15.6763 49.5054C16.3727 49.0329 16.0041 47.812 16.5836 47.1981C16.7904 46.9791 17.0855 46.8766 17.352 46.7392C18.3116 46.2446 18.9439 45.2462 19.2424 44.197C19.4295 43.5395 19.8938 41.6505 19.4981 41.0393C19.1404 40.4869 17.4485 40.1014 16.8411 39.95Z" fill="#2F2E41"/>
<path d="M29.0261 40.6383C28.6717 40.512 28.2963 40.4579 27.9213 40.4791C27.5462 40.5003 27.179 40.5964 26.8407 40.7619C25.5893 41.3573 23.3763 42.8 23.4604 45.5307C23.5774 49.3298 24.8645 51.8229 24.8645 51.8229L24.6305 59.5399L23.4604 73.5491C23.4604 73.5491 17.7269 78.2979 19.9501 79.4852C22.1733 80.6724 25.9176 73.7865 25.9176 73.7865L28.8428 65.8321L29.8959 58.1152C29.8959 58.1152 31.6511 50.0421 29.8959 46.4804C29.8959 46.4804 31.9235 41.7113 29.0261 40.6383Z" fill="#A0616A"/>
<path d="M43.0011 52.8906C43.0011 52.8906 41.0119 61.4386 48.0325 63.8131C55.0531 66.1875 64.2968 70.224 64.2968 70.224L65.4669 72.2423L68.1582 68.5619L67.6901 65.7126L63.1267 64.4067C63.1267 64.4067 54.585 57.7582 50.8407 57.2833L51.3088 52.8906H43.0011Z" fill="#A0616A"/>
<path d="M61.7001 46.0312L64.1798 50.1608C64.1798 50.1608 72.3705 54.9096 74.4767 58.1151C76.5828 61.3206 81.6143 64.7636 81.6143 64.7636L79.3911 70.1061C79.3911 70.1061 73.0726 62.6266 70.3813 61.9142C67.6901 61.2019 55.7551 51.4667 55.7551 51.4667L61.7001 46.0312Z" fill="#A0616A"/>
<path d="M39.6157 31.5583C38.7024 31.7039 37.7883 31.8496 36.886 32.0538C34.7894 32.5282 32.7733 33.3142 30.8053 34.1878C28.0512 35.4105 25.3762 36.809 22.7964 38.3748C22.1006 38.778 21.4368 39.2353 20.8108 39.7428C20.3943 40.0947 20.0022 40.4982 19.7788 40.9993C19.6369 41.3492 19.5451 41.7179 19.5062 42.0941C19.3248 43.4143 19.3332 44.7766 19.6857 46.0606C20.0383 47.3447 20.7533 48.5484 21.8058 49.3461C22.0843 49.564 22.3936 49.738 22.7232 49.8623C23.1667 49.9995 23.6259 50.0776 24.0892 50.0947C25.5656 50.2138 27.1079 50.323 28.474 49.7428C29.3422 49.3741 30.0772 48.7509 30.8761 48.2461C34.2591 46.1081 38.5573 46.1991 42.2565 44.6939C42.6161 44.5475 42.9823 44.3769 43.2339 44.0779C43.4243 43.8214 43.5677 43.5324 43.6574 43.2245C44.1251 41.9112 44.5928 40.5978 45.0605 39.2845C45.3568 38.4523 45.6533 37.6195 45.9021 36.7714C46.1622 35.8843 46.3696 34.9824 46.5767 34.081C46.755 33.3054 46.9386 32.493 46.8701 31.6912C46.769 30.5084 46.4996 30.4604 45.429 30.6316C43.4914 30.9415 41.5536 31.2504 39.6157 31.5583Z" fill="#66A2CE"/>
<path d="M25.5159 40.6383C25.1615 40.512 24.786 40.4579 24.411 40.4791C24.036 40.5003 23.6688 40.5964 23.3304 40.7619C22.079 41.3573 19.866 42.8 19.9501 45.5307C20.0671 49.3298 21.3542 51.8229 21.3542 51.8229L21.1202 59.5399L19.9501 73.5491C19.9501 73.5491 14.2167 78.2979 16.4398 79.4852C18.663 80.6724 22.4073 73.7865 22.4073 73.7865L25.3326 65.8321L26.3857 58.1152C26.3857 58.1152 28.1408 50.0421 26.3857 46.4804C26.3857 46.4804 28.4133 41.7113 25.5159 40.6383Z" fill="#A0616A"/>
<path d="M45.828 30.5763C45.828 30.5763 56.2232 29.6213 55.7551 36.151C55.2871 42.6807 51.7768 53.9593 51.7768 53.9593L42.7671 54.4342C42.7671 54.4342 41.597 46.7173 43.2351 44.1054L45.828 30.5763Z" fill="#2F2E41"/>
<path d="M53.0639 32.707C53.0639 32.707 55.6381 34.3691 57.0422 37.6934C58.4463 41.0176 62.6587 47.5473 62.6587 47.5473L55.7551 52.5336L50.6067 47.1911L53.0639 32.707Z" fill="#2F2E41"/>
<path d="M65.4669 69.75C65.4669 69.75 63.2437 70.5811 64.7649 72.2432C65.6992 73.2745 66.4869 74.4334 67.105 75.6861C67.105 75.6861 66.637 78.7729 68.6262 78.6541C70.6153 78.5354 71.4344 74.3802 70.9664 72.9555C70.4983 71.5308 69.9133 64.7637 69.9133 64.7637C69.9133 64.7637 65.8179 65.1198 65.935 65.7134C66.052 66.3071 66.637 69.2751 65.4669 69.75Z" fill="#2F2E41"/>
<path d="M79.391 67.3749C79.391 67.3749 77.2848 68.4434 77.8699 69.3931C78.4549 70.3429 80.3271 73.0735 80.3271 73.0735C80.3271 73.0735 79.625 76.6352 81.6142 76.9913C83.6034 77.3475 84.7735 72.7173 84.4224 71.7676C84.0714 70.8178 84.0714 67.1374 84.0714 67.1374C84.0714 67.1374 84.1884 63.457 83.0183 63.457C81.8482 63.457 79.859 63.9319 79.859 63.9319C79.859 63.9319 80.3271 67.2561 79.391 67.3749Z" fill="#2F2E41"/>
<path d="M14.6262 73.3555H11.2329V79.3643H14.6262V73.3555Z" fill="#66A2CE"/>
</g>
<defs>
<clipPath id="clip0_5080_82510">
<rect width="100" height="81.4433" fill="white"/>
</clipPath>
</defs>
</svg>
