<svg width="100" height="81" viewBox="0 0 100 81" fill="none" xmlns="http://www.w3.org/2000/svg">
<g clip-path="url(#clip0_5080_82559)">
<path d="M28.1493 53.7758C34.4151 53.7758 39.4946 48.6794 39.4946 42.3928C39.4946 36.1061 34.4151 31.0098 28.1493 31.0098C21.8834 31.0098 16.804 36.1061 16.804 42.3928C16.804 48.6794 21.8834 53.7758 28.1493 53.7758Z" fill="#E6E6E6"/>
<path d="M25.0839 59.0148L27.8747 60.7499V49.0213L24.7465 47.0764C24.4879 46.9157 24.2989 46.6633 24.217 46.3693C24.5159 46.312 24.8253 46.3694 25.0839 46.5302L27.8747 48.2653V43.7173C27.8747 42.8375 27.9822 41.961 28.1949 41.1074C28.4076 41.961 28.5151 42.8375 28.5151 43.7173V51.1405L32.6323 48.5808C32.9611 48.3764 33.3415 48.2711 33.7282 48.2774C33.5617 48.6277 33.2984 48.9226 32.9697 49.127L28.5151 51.8965V79.6337H27.8747V61.5059L24.7465 59.561C24.4879 59.4002 24.2989 59.1478 24.217 58.8538C24.5159 58.7966 24.8253 58.854 25.0839 59.0148Z" fill="#CCCCCC"/>
<path d="M11.3453 54.7425C17.6111 54.7425 22.6906 49.6462 22.6906 43.3596C22.6906 37.0729 17.6111 31.9766 11.3453 31.9766C5.07946 31.9766 0 37.0729 0 43.3596C0 49.6462 5.07946 54.7425 11.3453 54.7425Z" fill="#E6E6E6"/>
<path d="M14.4106 59.9816L11.6198 61.7167V49.9881L14.748 48.0432C15.0066 47.8825 15.1956 47.6301 15.2775 47.3361C14.9786 47.2788 14.6692 47.3362 14.4106 47.497L11.6198 49.2321V44.6841C11.6198 43.8043 11.5123 42.9278 11.2996 42.0742C11.0869 42.9278 10.9794 43.8043 10.9794 44.6841V52.1073L6.8622 49.5476C6.53344 49.3432 6.15306 49.2379 5.76636 49.2442C5.93281 49.5945 6.19609 49.8894 6.52484 50.0938L10.9794 52.8633V79.6953H11.6198V62.4727L14.748 60.5278C15.0066 60.367 15.1956 60.1146 15.2775 59.8206C14.9786 59.7634 14.6693 59.8208 14.4106 59.9816Z" fill="#CCCCCC"/>
<path d="M19.5867 39.1973C30.3749 39.1973 39.1205 30.4227 39.1205 19.5986C39.1205 8.77461 30.3749 0 19.5867 0C8.79853 0 0.0529785 8.77461 0.0529785 19.5986C0.0529785 30.4227 8.79853 39.1973 19.5867 39.1973Z" fill="#E6E6E6"/>
<path d="M24.8642 48.2187L20.0592 51.2061V31.0124L25.445 27.6639C25.8903 27.387 26.2157 26.9525 26.3567 26.4463C25.8422 26.3477 25.3095 26.4466 24.8642 26.7234L20.0592 29.7108V21.8803C20.0592 20.3655 19.874 18.8563 19.5078 17.3867C19.1416 18.8563 18.9565 20.3655 18.9565 21.8803V34.6612L11.8677 30.2539C11.3017 29.902 10.6468 29.7207 9.98096 29.7316C10.2675 30.3347 10.7208 30.8424 11.2869 31.1944L18.9565 35.9628V79.7388H20.0592V52.5077L25.4451 49.1592C25.8903 48.8823 26.2157 48.4477 26.3567 47.9416C25.8422 47.843 25.3095 47.9419 24.8642 48.2187Z" fill="#CCCCCC"/>
<path d="M100 79.6328H7.79077V79.867H100V79.6328Z" fill="#3F3D56"/>
<path d="M76.2525 35.3588L71.676 38.0098L74.3183 42.6014L78.8947 39.9504L76.2525 35.3588Z" fill="#FF6584"/>
<path d="M76.3105 43.5588L73.5515 38.7642L78.3302 35.9961L81.0892 40.7907L76.3105 43.5588ZM73.8704 38.85L76.396 43.2388L80.7703 40.705L78.2447 36.3161L73.8704 38.85Z" fill="#2F2E41"/>
<path d="M72.0292 56.4423C73.254 56.4423 74.2469 55.4461 74.2469 54.2172C74.2469 52.9884 73.254 51.9922 72.0292 51.9922C70.8044 51.9922 69.8115 52.9884 69.8115 54.2172C69.8115 55.4461 70.8044 56.4423 72.0292 56.4423Z" fill="#D0CDE1"/>
<path d="M73.6635 56.5593C73.2018 56.5593 72.7505 56.422 72.3666 56.1646C71.9827 55.9073 71.6835 55.5415 71.5068 55.1135C71.3301 54.6855 71.2839 54.2146 71.374 53.7602C71.464 53.3059 71.6864 52.8886 72.0128 52.561C72.3393 52.2334 72.7553 52.0104 73.2081 51.92C73.6609 51.8296 74.1303 51.876 74.5569 52.0533C74.9834 52.2306 75.348 52.5308 75.6045 52.9159C75.861 53.3011 75.9979 53.7539 75.9979 54.2172C75.9979 54.8384 75.752 55.4341 75.3142 55.8733C74.8764 56.3126 74.2826 56.5593 73.6635 56.5593ZM73.6635 52.1092C73.248 52.1092 72.8418 52.2329 72.4963 52.4645C72.1508 52.6961 71.8815 53.0253 71.7225 53.4105C71.5634 53.7957 71.5218 54.2195 71.6029 54.6284C71.684 55.0373 71.8841 55.4129 72.1779 55.7077C72.4717 56.0025 72.8461 56.2033 73.2536 56.2846C73.6612 56.366 74.0836 56.3242 74.4675 56.1647C74.8514 56.0051 75.1796 55.7349 75.4104 55.3883C75.6413 55.0416 75.7645 54.6341 75.7645 54.2172C75.7645 53.6581 75.5431 53.1219 75.1491 52.7266C74.7551 52.3313 74.2207 52.1092 73.6635 52.1092Z" fill="#2F2E41"/>
<path d="M86.0198 80.1668H64.5432C64.2801 80.1665 64.0279 80.0615 63.842 79.8749C63.656 79.6883 63.5513 79.4353 63.551 79.1714V59.1458C63.5513 58.8819 63.656 58.6289 63.842 58.4423C64.0279 58.2557 64.2801 58.1507 64.5432 58.1504H86.0198C86.2828 58.1507 86.535 58.2557 86.721 58.4423C86.907 58.6289 87.0116 58.8819 87.0119 59.1458V79.1714C87.0116 79.4353 86.907 79.6883 86.721 79.8749C86.535 80.0615 86.2828 80.1665 86.0198 80.1668Z" fill="#66A2CE"/>
<path d="M76.7986 80.8691H73.7639C73.5008 80.8688 73.2486 80.7638 73.0627 80.5772C72.8767 80.3906 72.772 80.1376 72.7717 79.8737V58.5501C72.772 58.2862 72.8767 58.0332 73.0627 57.8466C73.2486 57.66 73.5008 57.555 73.7639 57.5547H76.7986C77.0616 57.555 77.3138 57.66 77.4998 57.8466C77.6858 58.0332 77.7904 58.2862 77.7907 58.5501V79.8737C77.7904 80.1376 77.6858 80.3906 77.4998 80.5772C77.3138 80.7638 77.0616 80.8688 76.7986 80.8691Z" fill="#3F3D56"/>
<path d="M91.7257 56.168C91.6002 58.2339 88.8189 59.7447 88.8189 59.7447C88.8189 59.7447 86.241 57.9062 86.3665 55.8404C86.492 53.7745 89.2733 52.2637 89.2733 52.2637C89.2733 52.2637 91.8512 54.1022 91.7257 56.168Z" fill="#3F3D56"/>
<path d="M91.8517 62.6125C89.7924 62.493 88.2778 59.7072 88.2778 59.7072C88.2778 59.7072 90.1022 57.115 92.1616 57.2345C94.221 57.3539 95.7355 60.1397 95.7355 60.1397C95.7355 60.1397 93.9111 62.7319 91.8517 62.6125Z" fill="#3F3D56"/>
<path opacity="0.1" d="M86.9534 60.6003V68.2452L79.3748 58.209H85.1478L86.9534 60.6003Z" fill="black"/>
<path d="M93.3873 73.6867C93.2339 73.687 93.0826 73.6516 92.9452 73.5833C92.8078 73.5149 92.688 73.4155 92.5954 73.2928L76.8061 52.3842C76.7274 52.28 76.6699 52.1613 76.637 52.0348C76.604 51.9083 76.5962 51.7766 76.614 51.6471C76.6318 51.5176 76.6749 51.3929 76.7407 51.2801C76.8065 51.1673 76.8939 51.0686 76.9977 50.9896L79.3236 49.2216C79.4274 49.1426 79.5457 49.085 79.6718 49.0519C79.7978 49.0188 79.9292 49.011 80.0582 49.0289C80.1873 49.0467 80.3116 49.0899 80.424 49.156C80.5364 49.2221 80.6348 49.3097 80.7134 49.4139L96.5028 70.3225C96.5814 70.4267 96.6389 70.5454 96.6719 70.6719C96.7048 70.7983 96.7126 70.9301 96.6948 71.0596C96.677 71.1891 96.634 71.3138 96.5682 71.4266C96.5023 71.5394 96.415 71.6381 96.3112 71.717L93.9853 73.4851C93.8133 73.6161 93.6033 73.687 93.3873 73.6867Z" fill="#66A2CE"/>
<path d="M87.0673 57.4394L83.0669 60.4805L86.0979 64.4942L90.0983 61.4531L87.0673 57.4394Z" fill="#3F3D56"/>
<path d="M66.4883 42.1443L65.1206 47.2656L70.225 48.6379L71.5927 43.5165L66.4883 42.1443Z" fill="#D0CDE1"/>
<path d="M68.0596 49.4036L62.7297 47.9707L64.1579 42.623L69.4877 44.0559L68.0596 49.4036ZM63.0156 47.8051L67.8945 49.1167L69.2018 44.2215L64.3229 42.9099L63.0156 47.8051Z" fill="#2F2E41"/>
<path d="M45.6086 61.834C45.7489 61.6991 45.8579 61.5351 45.9282 61.3534C45.9984 61.1718 46.0281 60.9768 46.0151 60.7824C46.0022 60.588 45.9469 60.3988 45.8531 60.2281C45.7594 60.0574 45.6295 59.9094 45.4726 59.7946L43.3292 42.459L40.5598 43.2851L43.5496 60.1556C43.3747 60.4329 43.3073 60.7648 43.3601 61.0886C43.4129 61.4124 43.5823 61.7055 43.8361 61.9124C44.0899 62.1193 44.4105 62.2255 44.7372 62.2111C45.0639 62.1966 45.3739 62.0624 45.6086 61.834Z" fill="#FFB8B8"/>
<path d="M48.1755 78.403H49.7953L50.5662 72.1348H48.1755V78.403Z" fill="#FFB8B8"/>
<path d="M52.9192 79.9121H47.8286V77.9388H51.1323C51.6062 77.9388 52.0607 78.1276 52.3958 78.4639C52.7309 78.8001 52.9192 79.2561 52.9192 79.7316V79.9121Z" fill="#2F2E41"/>
<path d="M36.9746 75.8712L38.4928 76.4378L41.3933 70.8324L39.1527 69.9961L36.9746 75.8712Z" fill="#FFB8B8"/>
<path d="M40.8962 78.9453L36.125 77.1647L36.8107 75.3151L39.9071 76.4707C40.3513 76.6365 40.7117 76.9725 40.9089 77.4049C41.1062 77.8372 41.1242 78.3305 40.959 78.7761L40.8962 78.9453Z" fill="#2F2E41"/>
<path d="M45.2699 37.9581C46.9613 37.9581 48.3325 36.5823 48.3325 34.8853C48.3325 33.1882 46.9613 31.8125 45.2699 31.8125C43.5785 31.8125 42.2073 33.1882 42.2073 34.8853C42.2073 36.5823 43.5785 37.9581 45.2699 37.9581Z" fill="#FFB8B8"/>
<path d="M40.4796 42.7723C40.3837 39.942 43.3485 37.9786 45.843 39.3038C46.1608 39.4726 49.4424 42.2698 49.566 44.007C49.6897 45.7441 49.937 48.5979 49.937 48.5979L53.3998 74.5308L45.9796 74.1585L46.8757 66.5935L42.0526 74.2865L36.2097 72.4214L43.3826 51.7C43.3826 51.7 40.625 47.0616 40.4796 42.7723Z" fill="#2F2E41"/>
<path d="M40.5379 43.7567L41.0143 49.9715C41.0193 50.0364 41.0485 50.097 41.0961 50.1412C41.1437 50.1854 41.2062 50.21 41.2711 50.21H43.3676C43.4099 50.21 43.4517 50.1995 43.489 50.1795C43.5264 50.1594 43.5582 50.1304 43.5818 50.0951C43.6053 50.0597 43.6197 50.0191 43.6239 49.9768C43.628 49.9345 43.6216 49.8918 43.6054 49.8525L41.0324 43.6378C41.0089 43.581 40.966 43.5345 40.9114 43.5066C40.8569 43.4788 40.7942 43.4713 40.7346 43.4856C40.675 43.5 40.6225 43.5351 40.5864 43.5848C40.5504 43.6345 40.5332 43.6954 40.5379 43.7567Z" fill="#2F2E41"/>
<path d="M51.3044 60.7554C51.4279 60.6051 51.5172 60.4294 51.5657 60.2407C51.6143 60.052 51.621 59.855 51.5855 59.6634C51.5499 59.4718 51.4729 59.2904 51.3599 59.1319C51.2469 58.9734 51.1007 58.8417 50.9314 58.746L46.7807 41.7812L44.1267 42.9269L49.0637 59.3304C48.9224 59.6263 48.8942 59.9639 48.9844 60.2792C49.0747 60.5946 49.277 60.8658 49.5532 61.0414C49.8294 61.2171 50.1602 61.285 50.483 61.2323C50.8057 61.1796 51.098 61.0099 51.3044 60.7554Z" fill="#FFB8B8"/>
<path d="M44.4956 40.2828C44.4956 40.2828 43.6299 42.0199 44.4956 45.1219C45.3613 48.2239 45.9796 50.8296 45.9796 50.8296C45.9796 50.8296 47.9583 49.5888 48.824 49.9611C49.6897 50.3333 47.4546 41.6919 47.4546 41.6919C47.4546 41.6919 46.1033 38.7938 44.4956 40.2828Z" fill="#2F2E41"/>
<path d="M45.9885 35.364C46.0299 34.7264 46.8316 34.7045 47.4684 34.6985C48.1052 34.6924 48.8665 34.7153 49.2268 34.1884C49.4649 33.8403 49.4194 33.3569 49.2227 32.9836C49.026 32.6104 48.7024 32.3233 48.3841 32.0471C47.5622 31.334 46.7152 30.6266 45.7284 30.1702C44.7417 29.7138 43.5854 29.5294 42.562 29.8958C41.3049 30.3458 39.6056 32.6626 39.4588 33.9936C39.3121 35.3246 39.8423 36.6815 40.736 37.6762C41.6297 38.6708 43.6752 38.2695 44.9625 38.6234C44.1799 37.512 44.6958 35.4927 45.9495 34.9738L45.9885 35.364Z" fill="#2F2E41"/>
</g>
<defs>
<clipPath id="clip0_5080_82559">
<rect width="100" height="80.8696" fill="white"/>
</clipPath>
</defs>
</svg>
