<svg xmlns="http://www.w3.org/2000/svg" width="32" height="32" viewBox="0 0 32 32" fill="none">
  <g clip-path="url(#clip0_5744_19189)">
    <path d="M23.492 11.5004V11.5C23.492 11.4802 23.4913 11.4605 23.49 11.4408L22.6528 11.9314L16.2528 15.6814L16 15.8295L15.7472 15.6814L9.34723 11.9314L8.50233 11.4364C8.50078 11.4575 8.5 11.4787 8.5 11.5V20.5C8.5 21.019 8.96525 21.5 9.6 21.5H22.4C23.0347 21.5 23.4999 21.0191 23.5 20.5002C23.5 20.5001 23.5 20.5001 23.5 20.5L23.492 11.5004ZM22.4 11H23.3438C23.1592 10.7083 22.8168 10.5 22.4 10.5H9.6C9.18165 10.5 8.83693 10.709 8.6505 11H9.6H22.4ZM22.1472 12.5686L22.9 12.1275V13V20.5V21H22.4H9.6H9.1V20.5V13V12.1275L9.85277 12.5686L16 16.1705L22.1472 12.5686Z" fill="#80921A" stroke="#80921A"/>
    <circle cx="16" cy="16" r="15" stroke="#80921A" stroke-width="2"/>
  </g>
  <defs>
    <clipPath id="clip0_5744_19189">
      <rect width="32" height="32" fill="white" transform="matrix(-1 0 0 1 32 0)"/>
    </clipPath>
  </defs>
</svg>