<svg width="380" height="424" viewBox="0 0 380 424" fill="none" xmlns="http://www.w3.org/2000/svg">
<g clip-path="url(#clip0_5022_80351)">
<path d="M362.124 400.315C359.755 401.148 357.212 401.357 354.739 400.921C352.266 400.485 349.947 399.419 348.006 397.825C343.061 393.669 341.509 386.822 340.249 380.482L336.518 361.73L344.329 367.117C349.947 370.99 355.691 374.987 359.581 380.597C363.471 386.208 365.168 393.866 362.043 399.937" fill="#E6E6E6"/>
<path d="M361.456 423.018C362.247 417.251 363.06 411.411 362.505 405.582C362.012 400.406 360.436 395.35 357.224 391.205C355.52 389.008 353.446 387.126 351.096 385.644C350.483 385.257 349.919 386.229 350.529 386.615C354.596 389.188 357.741 392.988 359.511 397.466C361.467 402.446 361.781 407.876 361.441 413.166C361.237 416.365 360.806 419.543 360.37 422.718C360.335 422.862 360.356 423.014 360.429 423.142C360.502 423.271 360.621 423.367 360.763 423.41C360.906 423.449 361.059 423.429 361.189 423.356C361.318 423.282 361.413 423.161 361.453 423.017L361.456 423.018Z" fill="#F2F2F2"/>
<path d="M333.144 327.236H6.33691V0H333.144V327.236Z" fill="white"/>
<path d="M333.144 327.236H6.33691V0H333.144V327.236ZM11.1654 322.402H328.316V4.8349H11.1654V322.402Z" fill="#E5E5E5"/>
<path d="M275.249 51.1973H133.728V55.6115H275.249V51.1973Z" fill="#E5E5E5"/>
<path d="M275.249 62.6738H133.728V67.0881H275.249V62.6738Z" fill="#E5E5E5"/>
<path d="M275.249 74.1504H133.728V78.5646H275.249V74.1504Z" fill="#E5E5E5"/>
<path d="M275.249 149.748H133.728V154.162H275.249V149.748Z" fill="#E5E5E5"/>
<path d="M275.249 161.225H133.728V165.639H275.249V161.225Z" fill="#E5E5E5"/>
<path d="M275.249 172.701H133.728V177.115H275.249V172.701Z" fill="#E5E5E5"/>
<path d="M275.249 248.299H133.728V252.713H275.249V248.299Z" fill="#E5E5E5"/>
<path d="M275.249 259.775H133.728V264.19H275.249V259.775Z" fill="#E5E5E5"/>
<path d="M275.249 271.252H133.728V275.666H275.249V271.252Z" fill="#E5E5E5"/>
<path d="M77.074 86.3658C74.6564 85.09 72.1328 84.0266 69.5316 83.1875L69.2 79.5136L55.7485 78.0625L54.039 82.7583L49.2116 84.5723C49.0388 84.6378 48.8744 84.7236 48.7217 84.8277H48.7165C48.4471 85.0101 48.2176 85.2455 48.0421 85.5196C47.8667 85.7937 47.7488 86.1007 47.6959 86.4219C47.6443 86.7414 47.6565 87.0679 47.7317 87.3826L47.9869 88.4301C48.3542 88.6498 48.7319 88.8593 49.1094 89.0585L49.3494 89.1812C49.9005 89.4673 50.4619 89.7381 51.0385 89.9885C51.1558 90.0396 51.2834 90.0907 51.4008 90.1418C51.411 90.1469 51.416 90.1469 51.4262 90.152C51.6968 90.2645 51.9671 90.3717 52.2427 90.4739C53.1479 90.8201 54.0712 91.1169 55.0085 91.363C57.4007 92.0014 59.8659 92.3244 62.3416 92.3237C63.2448 92.3237 64.1379 92.2828 65.0207 92.1959C67.0378 92.0095 69.0292 91.6069 70.9606 90.9952C70.9656 90.9952 70.9708 90.99 70.9758 90.99C72.1959 90.6008 73.3878 90.1279 74.543 89.5746C74.5479 89.5695 74.5582 89.5695 74.5634 89.5645C74.8235 89.4418 75.0737 89.309 75.3288 89.1812L75.4512 89.1198C75.6553 89.0126 75.8596 88.9053 76.0636 88.7929C76.5739 88.5118 77.074 88.2155 77.5689 87.8987C77.7067 87.8168 77.8395 87.73 77.9773 87.6381C78.1711 87.5103 78.365 87.3774 78.5539 87.2395C78.0792 86.9329 77.5843 86.6417 77.074 86.3658Z" fill="#0A4A3F"/>
<path d="M51.8292 88.631L50.9872 84.8242H48.7878C48.7656 84.8245 48.7435 84.8262 48.7215 84.8293H48.7163C47.9259 84.8963 47.1647 85.1598 46.5017 85.5958C46.052 85.8832 45.6521 86.2422 45.3179 86.6586C45.9709 87.1542 46.6497 87.6141 47.3488 88.0535L47.3795 88.0688C47.5783 88.1915 47.7827 88.3141 47.9867 88.4316C48.3541 88.6514 48.7318 88.8609 49.1093 89.0601L49.3492 89.1828C49.9004 89.4689 50.4618 89.7397 51.0383 89.9901C51.1557 90.0412 51.2833 90.0923 51.4006 90.1434C51.4108 90.1485 51.4158 90.1485 51.4261 90.1536C51.6967 90.2661 51.967 90.3733 52.2426 90.4755L51.8292 88.631Z" fill="#0A4A3F"/>
<path d="M61.9459 75.741C67.2964 75.741 71.6338 71.3979 71.6338 66.0404C71.6338 60.6829 67.2964 56.3398 61.9459 56.3398C56.5955 56.3398 52.2581 60.6829 52.2581 66.0404C52.2581 71.3979 56.5955 75.741 61.9459 75.741Z" fill="#FFDEB8"/>
<path d="M55.4418 61.3157C56.4447 62.5041 58.1419 62.8394 59.7075 62.9769C63.3678 63.1794 67.0386 62.8792 70.6176 62.0849C70.8394 64.2372 70.2347 66.5578 71.5008 68.3283C72.0943 66.1849 72.4394 63.9802 72.5293 61.7577C72.6238 60.8042 72.4994 59.8416 72.1657 58.9435C71.9873 58.4935 71.6864 58.1025 71.2971 57.8152C70.9079 57.5278 70.4459 57.3556 69.9638 57.318C70.6856 56.7698 71.531 56.4079 72.4255 56.2642L69.3494 54.7163L70.1393 53.9043L64.5702 53.563L66.1832 52.537C63.7555 52.2029 61.2994 52.1253 58.8555 52.3053C57.7135 52.3059 56.5931 52.6177 55.6146 53.2074C54.6951 53.8658 54.1637 55.1744 54.7346 56.1411C54.0199 56.2586 53.347 56.5568 52.7797 57.0076C52.2123 57.4584 51.7693 58.0467 51.4926 58.7168C51.1426 59.782 51.0582 60.9168 51.2465 62.0222C51.4563 63.7957 51.8679 65.5394 52.4734 67.2193L55.4418 61.3157Z" fill="#151E2B"/>
<path d="M89.1882 55.5238C87.8289 51.6138 85.6342 48.0477 82.7572 45.0743C79.8801 42.1008 76.3899 39.7916 72.5299 38.3076C68.6699 36.8235 64.5331 36.2005 60.408 36.4818C56.2828 36.7632 52.2686 37.9421 48.6453 39.9365C45.0219 41.9309 41.8767 44.6927 39.4288 48.0293C36.981 51.3659 35.2894 55.197 34.4722 59.2555C33.655 63.314 33.7317 67.5021 34.6971 71.5278C35.6624 75.5535 37.4931 79.3199 40.0615 82.5644C40.3167 82.8863 40.5821 83.2082 40.8527 83.5199C40.8731 83.5403 40.8883 83.5608 40.9087 83.5812C41.5739 84.3487 42.2809 85.0788 43.0264 85.7682C43.2205 85.947 43.4246 86.131 43.6286 86.3047C44.0164 86.6522 44.4145 86.9843 44.8279 87.3011C44.9911 87.4288 45.1493 87.5566 45.3178 87.6792C45.9708 88.1749 46.6496 88.6347 47.3488 89.0742L47.3794 89.0895C47.5782 89.2121 47.7826 89.3348 47.9867 89.4523C48.354 89.672 48.7317 89.8815 49.1092 90.0808L49.3491 90.2034C49.9003 90.4896 50.4617 90.7604 51.0382 91.0107C51.1556 91.0619 51.2832 91.1129 51.4005 91.164C51.4108 91.1692 51.4157 91.1691 51.4259 91.1743C51.6965 91.2867 51.9669 91.394 52.2425 91.4962C53.1477 91.8424 54.071 92.1391 55.0083 92.3853C57.4005 93.0237 59.8656 93.3466 62.3413 93.3459C63.2446 93.3459 64.1376 93.305 65.0204 93.2181C67.0376 93.0317 69.029 92.6291 70.9604 92.0174C70.9654 92.0174 70.9706 92.0123 70.9756 92.0123C72.1957 91.6231 73.3876 91.1501 74.5427 90.5969C74.5477 90.5917 74.5579 90.5918 74.5631 90.5867C74.8233 90.464 75.0735 90.3312 75.3286 90.2034L75.451 90.1421C75.655 90.0348 75.8593 89.9275 76.0634 89.8151C76.5737 89.534 77.0738 89.2377 77.5686 88.9209C77.7064 88.8391 77.8392 88.7523 77.977 88.6603C78.1709 88.5325 78.3647 88.3997 78.5536 88.2617C78.8035 88.088 79.0537 87.9091 79.2986 87.7252C79.3751 87.669 79.4569 87.6128 79.5333 87.5515C84.3142 83.9179 87.8233 78.862 89.5578 73.1084C91.2922 67.3549 91.1628 61.1992 89.1882 55.5238ZM78.5945 86.3098C78.4261 86.4426 78.2526 86.5704 78.079 86.6879C77.9105 86.8157 77.7423 86.9383 77.5687 87.0507C77.4207 87.158 77.2726 87.2602 77.1196 87.3573L77.0738 87.388C76.9614 87.4646 76.8493 87.5361 76.7369 87.6077C76.3133 87.8733 75.8847 88.1288 75.451 88.3741L75.3132 88.4508C75.1193 88.5581 74.9255 88.6603 74.7316 88.7625C74.7059 88.7778 74.6753 88.788 74.6499 88.8033L74.6192 88.8187C74.3743 88.9464 74.1241 89.0691 73.8742 89.1866C72.9093 89.6519 71.9156 90.0547 70.8991 90.3925C70.7663 90.4385 70.6338 90.4845 70.5012 90.5253C68.6731 91.1075 66.7877 91.4913 64.8777 91.6699C64.0407 91.7466 63.1936 91.7874 62.3414 91.7874C59.9998 91.7923 57.6678 91.4864 55.4065 90.8779C54.2459 90.5746 53.1085 90.1887 52.0028 89.7231C51.9465 89.6976 51.8852 89.6771 51.8291 89.6516C51.7681 89.6261 51.7118 89.6056 51.6557 89.58C51.5944 89.5545 51.5383 89.529 51.477 89.4983C50.9974 89.2888 50.5227 89.0588 50.0585 88.8187L49.834 88.7012C49.2674 88.4048 48.7112 88.088 48.1703 87.7508C48.012 87.6537 47.8489 87.5515 47.6956 87.4442C47.655 87.4186 47.6191 87.3931 47.5783 87.3675C47.216 87.1274 46.8537 86.877 46.5016 86.6164C46.2619 86.4375 46.0219 86.2587 45.7872 86.0748C45.3943 85.7784 45.0165 85.4616 44.6493 85.1346C44.4554 84.9711 44.2665 84.7922 44.0829 84.6236C43.3594 83.9546 42.6744 83.245 42.0315 82.498C41.8172 82.2527 41.6079 82.0074 41.4088 81.752C41.3635 81.7014 41.321 81.6486 41.2812 81.5936C37.9656 77.4042 35.9714 72.3209 35.5527 66.992C35.134 61.6632 36.31 56.3302 38.9305 51.6732C41.5511 47.0162 45.4975 43.2463 50.2665 40.8443C55.0355 38.4423 60.411 37.517 65.7073 38.1864C71.0036 38.8559 75.9807 41.0897 80.004 44.603C84.0273 48.1164 86.9143 52.75 88.2969 57.9129C89.6795 63.0759 89.4951 68.5342 87.767 73.5918C86.039 78.6493 82.8458 83.0768 78.5945 86.3098Z" fill="#0A4A3F"/>
<path d="M89.1881 154.075C87.8289 150.165 85.6342 146.598 82.7571 143.625C79.88 140.652 76.3898 138.342 72.5299 136.858C68.6699 135.374 64.5331 134.751 60.408 135.033C56.2828 135.314 52.2686 136.493 48.6453 138.487C45.0219 140.482 41.8767 143.243 39.4288 146.58C36.981 149.917 35.2894 153.748 34.4722 157.806C33.655 161.865 33.7317 166.053 34.697 170.079C35.6624 174.104 37.4931 177.871 40.0615 181.115C40.3167 181.437 40.582 181.759 40.8524 182.071C40.8728 182.091 40.888 182.112 40.9084 182.132C41.5738 182.899 42.2808 183.629 43.0264 184.319C43.2202 184.498 43.4243 184.682 43.6284 184.855C44.0163 185.203 44.4143 185.535 44.8276 185.852C45.6347 186.489 46.4763 187.081 47.3485 187.625L47.3791 187.64C47.9455 187.993 48.5221 188.32 49.1091 188.632L49.3488 188.754C49.9 189.04 50.4614 189.311 51.038 189.561C51.1553 189.613 51.2829 189.664 51.4003 189.715C51.4105 189.72 51.4157 189.72 51.4259 189.725C52.591 190.21 53.7879 190.615 55.0082 190.936C57.4003 191.574 59.8655 191.897 62.3411 191.897C63.2443 191.897 64.1373 191.856 65.0201 191.769C67.0373 191.582 69.0287 191.18 70.9601 190.568C70.9653 190.568 70.9703 190.563 70.9753 190.563C72.1954 190.174 73.3873 189.701 74.5424 189.148C74.5474 189.142 74.5579 189.142 74.5629 189.137C74.823 189.015 75.0732 188.882 75.3283 188.754L75.4509 188.693C75.655 188.586 75.859 188.478 76.0631 188.366C76.5734 188.085 77.0735 187.788 77.5686 187.472C77.7064 187.39 77.8389 187.303 77.9767 187.211C78.4257 186.915 78.8698 186.598 79.2983 186.276C79.3751 186.22 79.4566 186.164 79.5333 186.102C84.314 182.468 87.823 177.413 89.5574 171.659C91.2918 165.906 91.1626 159.75 89.1881 154.075Z" fill="white"/>
<path d="M71.7227 175.165C74.0757 175.165 75.9832 173.255 75.9832 170.899C75.9832 168.543 74.0757 166.633 71.7227 166.633C69.3696 166.633 67.4622 168.543 67.4622 170.899C67.4622 173.255 69.3696 175.165 71.7227 175.165Z" fill="#151E2B"/>
<path d="M72.9096 166.752C73.6471 166.752 74.3718 166.943 75.0131 167.308C75.6544 167.672 76.1902 168.197 76.5682 168.831C76.9462 169.465 77.1534 170.187 77.1695 170.925C77.1857 171.663 77.0102 172.393 76.6603 173.043C77.0296 172.58 77.2986 172.045 77.4501 171.473C77.6016 170.9 77.6323 170.302 77.5403 169.717C77.4483 169.132 77.2355 168.572 76.9157 168.074C76.5958 167.576 76.1758 167.15 75.6824 166.823C75.1889 166.496 74.633 166.276 74.0499 166.176C73.4667 166.076 72.8693 166.099 72.2955 166.244C71.7217 166.388 71.1843 166.65 70.7173 167.014C70.2504 167.378 69.8643 167.835 69.5835 168.356C69.9818 167.855 70.4878 167.451 71.0637 167.173C71.6397 166.895 72.2703 166.751 72.9096 166.752Z" fill="#151E2B"/>
<path d="M63.7607 170.89C70.6729 170.89 76.2764 165.28 76.2764 158.358C76.2764 151.437 70.6729 145.826 63.7607 145.826C56.8486 145.826 51.2451 151.437 51.2451 158.358C51.2451 165.28 56.8486 170.89 63.7607 170.89Z" fill="#151E2B"/>
<path d="M53.9381 150.584C56.0947 148.155 59.1091 146.66 62.3453 146.415C65.5815 146.17 68.7863 147.193 71.2832 149.269C71.1811 149.172 71.0791 149.074 70.9735 148.979C68.5011 146.761 65.2502 145.618 61.9358 145.8C58.6215 145.982 55.5152 147.476 53.3003 149.951C51.0855 152.427 49.9435 155.682 50.1256 159.001C50.3076 162.319 51.7989 165.43 54.2712 167.648C54.295 167.669 54.3188 167.69 54.3427 167.711C54.4489 167.806 54.5581 167.895 54.6668 167.986C52.3154 165.746 50.9251 162.679 50.7893 159.432C50.6534 156.185 51.7821 153.012 53.9381 150.584Z" fill="#151E2B"/>
<path d="M63.6549 170.783C68.1067 170.783 71.7156 167.17 71.7156 162.712C71.7156 158.254 68.1067 154.641 63.6549 154.641C59.2031 154.641 55.5942 158.254 55.5942 162.712C55.5942 167.17 59.2031 170.783 63.6549 170.783Z" fill="#B87C22"/>
<path d="M78.0791 183.743V186.451C77.584 186.768 77.0839 187.064 76.5736 187.345C76.3695 187.458 76.1655 187.565 75.9614 187.672L75.8388 187.734C75.5837 187.861 75.3335 187.994 75.0734 188.117C75.0684 188.122 75.0579 188.122 75.0529 188.127C73.8978 188.68 72.7059 189.153 71.4858 189.542C71.4808 189.542 71.4758 189.548 71.4706 189.548C69.5392 190.159 67.5478 190.562 65.5307 190.748C64.6478 190.835 63.7548 190.876 62.8516 190.876C60.376 190.877 57.9109 190.554 55.5188 189.915C54.2984 189.594 53.1015 189.19 51.9364 188.704C51.9262 188.699 51.921 188.699 51.9108 188.694C51.7934 188.643 51.6658 188.592 51.5485 188.541C50.9719 188.291 50.4105 188.02 49.8593 187.734L49.6196 187.611C49.0326 187.299 48.456 186.972 47.8897 186.62L47.859 186.604C46.9868 186.06 46.1453 185.468 45.3382 184.831C44.9248 184.514 44.5269 184.182 44.1389 183.835C43.9348 183.661 43.7308 183.477 43.5369 183.298C42.7913 182.609 42.0843 181.879 41.4189 181.111C41.5072 180.579 41.6369 180.055 41.8069 179.543L41.8119 179.538C41.8424 179.45 41.8782 179.365 41.919 179.282C41.9472 179.209 41.9796 179.137 42.016 179.067C42.9294 177.356 44.5829 176.932 46.6343 176.84C47.7927 176.789 49.0735 176.845 50.426 176.829C51.1403 176.824 51.8801 176.799 52.6202 176.732C57.2894 176.308 56.4424 173.549 56.6515 172.062C56.8608 170.621 58.157 171.868 58.2437 171.95L58.2487 171.955C60.891 173.193 63.8144 173.706 66.7197 173.442C67.2198 173.38 67.7199 173.345 68.22 173.329C69.5366 173.314 69.2508 173.692 68.7968 174.004C68.5764 174.149 68.3462 174.279 68.1079 174.392C68.1079 174.392 67.8986 175.67 67.6843 177.581C67.4802 179.41 70.9808 180.268 71.2716 180.335C71.2776 180.339 71.2848 180.341 71.292 180.34C72.5704 180.008 73.9164 180.043 75.1756 180.442H75.1806C75.9 180.707 76.542 181.148 77.0482 181.724C77.5544 182.301 77.9088 182.994 78.0791 183.743Z" fill="#C0D921"/>
<path d="M51.9874 187.028C51.9874 187.406 51.9774 187.769 51.9619 188.112C51.9569 188.316 51.9467 188.515 51.9365 188.704C51.9263 188.699 51.9211 188.699 51.9108 188.694C51.7935 188.643 51.6659 188.592 51.5486 188.541C50.972 188.29 50.4106 188.02 49.8594 187.734L49.6197 187.611C49.0327 187.299 48.4561 186.972 47.8897 186.62C47.9049 186.441 47.9306 186.262 47.956 186.083C48.0121 185.69 48.0582 185.291 48.0888 184.898C48.2894 182.134 47.7891 179.363 46.6344 176.845V176.84C46.5322 176.635 46.4712 176.523 46.4712 176.523C46.4712 176.523 47.956 175.245 50.0737 176.523C50.209 176.602 50.3284 176.706 50.426 176.829C51.7018 178.337 52.0486 183.406 51.9874 187.028Z" fill="#151E2B"/>
<path d="M75.1603 186.332C75.1398 186.905 75.1092 187.502 75.0736 188.111V188.116C75.0686 188.121 75.0581 188.121 75.0531 188.126C73.898 188.679 72.7061 189.152 71.486 189.541C71.481 189.541 71.476 189.546 71.4708 189.546L71.4147 188.111L71.4095 187.921L71.1392 180.931C71.1319 180.773 71.1568 180.615 71.2122 180.467C71.2677 180.318 71.3526 180.183 71.4618 180.068C71.571 179.954 71.7023 179.862 71.8477 179.8C71.9931 179.738 72.1496 179.705 72.3078 179.705H74.8949C75.0225 179.705 75.1144 179.966 75.1757 180.436V180.441C75.3012 182.403 75.296 184.371 75.1603 186.332Z" fill="#151E2B"/>
<path d="M56.7607 152.623V160.696H58.6274L61.0029 158.148L60.685 160.696H68.9365L68.4262 158.148L69.4468 160.696H70.7624V152.623H56.7607Z" fill="#151E2B"/>
<path d="M55.4879 162.182C55.8393 162.182 56.1242 161.659 56.1242 161.014C56.1242 160.369 55.8393 159.846 55.4879 159.846C55.1365 159.846 54.8516 160.369 54.8516 161.014C54.8516 161.659 55.1365 162.182 55.4879 162.182Z" fill="#B87C22"/>
<path d="M71.8219 162.182C72.1733 162.182 72.4582 161.659 72.4582 161.014C72.4582 160.369 72.1733 159.846 71.8219 159.846C71.4704 159.846 71.1855 160.369 71.1855 161.014C71.1855 161.659 71.4704 162.182 71.8219 162.182Z" fill="#B87C22"/>
<path d="M79.8088 185.255C79.3803 185.577 78.9363 185.894 78.4873 186.19C78.3495 186.282 78.2169 186.369 78.0791 186.451C77.584 186.768 77.0839 187.064 76.5736 187.345C76.3696 187.457 76.1655 187.565 75.9614 187.672V182.041C75.9614 182.041 76.7777 182.695 78.0791 183.783C78.2423 183.921 78.4107 184.064 78.5894 184.218C78.9669 184.535 79.3753 184.882 79.8088 185.255Z" fill="#C0D921"/>
<path d="M89.1881 154.075C87.8289 150.165 85.6342 146.598 82.7571 143.625C79.88 140.652 76.3898 138.342 72.5299 136.858C68.6699 135.374 64.5331 134.751 60.408 135.033C56.2828 135.314 52.2686 136.493 48.6453 138.487C45.0219 140.482 41.8767 143.243 39.4288 146.58C36.981 149.917 35.2894 153.748 34.4722 157.806C33.655 161.865 33.7317 166.053 34.697 170.079C35.6624 174.104 37.4931 177.871 40.0615 181.115C40.3167 181.437 40.582 181.759 40.8524 182.071C40.8728 182.091 40.888 182.112 40.9084 182.132C41.5738 182.899 42.2808 183.629 43.0264 184.319C43.2202 184.498 43.4243 184.682 43.6284 184.855C44.0163 185.203 44.4143 185.535 44.8276 185.852C45.6347 186.489 46.4763 187.081 47.3485 187.625L47.3791 187.64C47.9455 187.993 48.5221 188.32 49.1091 188.632L49.3488 188.754C49.9 189.04 50.4614 189.311 51.038 189.561C51.1553 189.613 51.2829 189.664 51.4003 189.715C51.4105 189.72 51.4157 189.72 51.4259 189.725C52.591 190.21 53.7879 190.615 55.0082 190.936C57.4003 191.574 59.8655 191.897 62.3411 191.897C63.2443 191.897 64.1373 191.856 65.0201 191.769C67.0373 191.582 69.0287 191.18 70.9601 190.568C70.9653 190.568 70.9703 190.563 70.9753 190.563C72.1954 190.174 73.3873 189.701 74.5424 189.148C74.5474 189.142 74.5579 189.142 74.5629 189.137C74.823 189.015 75.0732 188.882 75.3283 188.754L75.4509 188.693C75.655 188.586 75.859 188.478 76.0631 188.366C76.5734 188.085 77.0735 187.788 77.5686 187.472C77.7064 187.39 77.8389 187.303 77.9767 187.211C78.4257 186.915 78.8698 186.598 79.2983 186.276C79.3751 186.22 79.4566 186.164 79.5333 186.102C84.314 182.468 87.823 177.413 89.5574 171.659C91.2918 165.906 91.1626 159.75 89.1881 154.075ZM78.5942 184.861C78.4257 184.993 78.2523 185.121 78.0789 185.239C77.9105 185.366 77.742 185.489 77.5686 185.601C77.4206 185.709 77.2726 185.811 77.1194 185.908C76.9918 185.995 76.8642 186.077 76.7366 186.158C76.3133 186.424 75.8847 186.68 75.4509 186.925L75.3128 187.002C75.119 187.109 74.9251 187.211 74.7313 187.313C74.7056 187.329 74.675 187.339 74.6496 187.354L74.619 187.369C74.374 187.497 74.1241 187.62 73.8739 187.737C72.909 188.203 71.9153 188.605 70.8988 188.943C70.7663 188.989 70.6335 189.035 70.5009 189.076C68.6728 189.658 66.7874 190.042 64.8774 190.221C64.0404 190.297 63.1932 190.338 62.3411 190.338C59.9995 190.343 57.6675 190.037 55.4062 189.429C54.2456 189.125 53.1082 188.739 52.0025 188.274C51.8851 188.228 51.7678 188.177 51.6554 188.131C51.5944 188.105 51.538 188.08 51.4768 188.049C50.9971 187.839 50.5227 187.61 50.0582 187.369L49.8337 187.252C49.2674 186.956 48.711 186.639 48.17 186.301C47.9712 186.179 47.7721 186.051 47.5782 185.918C46.9658 185.515 46.3688 185.08 45.787 184.625C45.394 184.329 45.0165 184.012 44.649 183.685C44.4551 183.522 44.2662 183.343 44.0826 183.174C43.3591 182.505 42.6742 181.796 42.0312 181.049C41.8169 180.803 41.6076 180.558 41.4085 180.303C41.3633 180.252 41.3207 180.199 41.2809 180.144C37.9654 175.955 35.9711 170.872 35.5524 165.543C35.1338 160.214 36.3097 154.881 38.9303 150.224C41.5508 145.567 45.4973 141.797 50.2663 139.395C55.0353 136.993 60.4107 136.068 65.707 136.737C71.0033 137.407 75.9804 139.64 80.0037 143.154C84.027 146.667 86.914 151.301 88.2966 156.464C89.6792 161.627 89.4948 167.085 87.7667 172.142C86.0387 177.2 82.8454 181.628 78.5942 184.861Z" fill="#0A4A3F"/>
<path d="M62.5021 274.776C68.6535 274.776 73.6402 269.783 73.6402 263.623C73.6402 257.464 68.6535 252.471 62.5021 252.471C56.3507 252.471 51.364 257.464 51.364 263.623C51.364 269.783 56.3507 274.776 62.5021 274.776Z" fill="#151E2B"/>
<path d="M53.8083 257.61C55.6081 255.808 55.9729 253.251 54.623 251.899C53.2731 250.548 50.7197 250.913 48.9198 252.715C47.12 254.518 46.7552 257.074 48.1051 258.426C49.455 259.778 52.0084 259.412 53.8083 257.61Z" fill="#151E2B"/>
<path d="M74.1107 254.07C74.8606 252.312 73.571 250.075 71.2302 249.074C68.8894 248.073 66.3839 248.686 65.634 250.444C64.8841 252.202 66.1737 254.439 68.5145 255.44C70.8553 256.441 73.3608 255.828 74.1107 254.07Z" fill="#151E2B"/>
<path d="M75.8248 285.257L74.5125 283.189C73.9557 281.943 72.9286 280.97 71.6561 280.481C70.3837 279.992 68.9697 280.028 67.7238 280.581C66.4779 281.134 65.5016 282.159 65.0089 283.431C64.5161 284.704 64.547 286.12 65.0948 287.369L65.468 288.709L65.8926 290.229C67.6119 290.012 69.3083 289.641 70.9616 289.121C70.9665 289.121 70.971 289.118 70.9745 289.115C72.1965 288.728 73.3897 288.254 74.5448 287.698C74.5511 287.691 74.5574 287.691 74.564 287.685C74.8213 287.563 75.0722 287.434 75.3295 287.305C75.3715 287.286 75.4123 287.264 75.4517 287.241C75.6574 287.137 75.8634 287.028 76.0629 286.918C76.2686 286.809 76.468 286.693 76.6609 286.571L75.8248 285.257Z" fill="#CACACA"/>
<path d="M62.8549 275.753C68.0755 275.753 72.3076 271.515 72.3076 266.287C72.3076 261.06 68.0755 256.822 62.8549 256.822C57.6342 256.822 53.4021 261.06 53.4021 266.287C53.4021 271.515 57.6342 275.753 62.8549 275.753Z" fill="#FFD0B6"/>
<path d="M76.5068 284.851C75.4641 283.115 74.1698 281.543 72.6663 280.188C71.6365 279.266 70.3036 278.757 68.9225 278.758H55.6065C54.8392 278.758 54.08 278.915 53.3758 279.22C52.6716 279.525 52.0374 279.971 51.5123 280.532C50.9872 281.092 50.5824 281.754 50.3229 282.477C50.0634 283.2 49.9547 283.969 50.0036 284.735C50.0326 285.168 50.1104 285.596 50.2354 286.011C50.3303 286.311 50.4486 286.604 50.5891 286.887L51.2452 288.201C51.2967 288.22 51.3482 288.246 51.3994 288.265C51.4123 288.272 51.4189 288.271 51.4252 288.278C51.6953 288.387 51.9657 288.497 52.2421 288.6C53.1474 288.947 54.0708 289.243 55.0084 289.489C56.5176 289.895 58.0583 290.173 59.6141 290.32C60.5212 290.404 61.4283 290.449 62.3417 290.449C63.2488 290.449 64.1365 290.404 65.0241 290.32C65.3137 290.294 65.603 290.262 65.8926 290.23C67.6119 290.012 69.3083 289.642 70.9616 289.122C70.9665 289.121 70.971 289.119 70.9745 289.115C72.1965 288.728 73.3896 288.255 74.5448 287.698C74.5511 287.692 74.5574 287.692 74.564 287.685C74.8213 287.563 75.0722 287.434 75.3295 287.305C75.3715 287.286 75.4123 287.265 75.4517 287.241C75.6574 287.138 75.8634 287.028 76.0629 286.919C76.2686 286.809 76.468 286.693 76.6609 286.571C76.867 286.462 77.0599 286.339 77.2593 286.217C77.015 285.734 76.764 285.283 76.5068 284.851Z" fill="#CACACA"/>
<path d="M58.0186 280.485C56.7863 279.908 55.3759 279.843 54.0958 280.304C52.8157 280.765 51.7699 281.715 51.1872 282.946L50.0033 284.737L49.4373 285.593L48.5754 286.894C48.7554 286.991 48.9291 287.088 49.1094 287.184L49.3472 287.307C49.9006 287.59 50.4601 287.861 51.0392 288.112C51.1033 288.144 51.1743 288.17 51.245 288.202C51.2965 288.221 51.348 288.247 51.3992 288.266C51.4121 288.273 51.4187 288.273 51.4249 288.279C51.6951 288.389 51.9655 288.498 52.2419 288.601C53.1471 288.948 54.0706 289.245 55.0082 289.49C56.5174 289.896 58.0581 290.174 59.6138 290.321L60.0643 288.795L60.5018 287.339C61.0785 286.1 61.1409 284.683 60.6754 283.398C60.2098 282.113 59.2544 281.066 58.0186 280.485Z" fill="#CACACA"/>
<path d="M52.9224 260.334C55.0825 261.825 57.6463 262.618 60.2698 262.608C59.334 263.258 58.2686 263.696 57.1471 263.894C60.6352 264.643 64.2401 264.664 67.7364 263.954C68.5135 263.829 69.2634 263.571 69.9531 263.191C70.2968 262.999 70.5962 262.737 70.832 262.421C71.0677 262.105 71.2344 261.744 71.3213 261.359C71.5537 260.03 70.5195 258.823 69.4447 258.009C67.7992 256.782 65.9019 255.937 63.8901 255.534C61.8783 255.132 59.8023 255.182 57.8123 255.681C56.4864 255.949 55.2797 256.631 54.3672 257.631C53.9256 258.14 53.659 258.777 53.6068 259.449C53.5546 260.121 53.7195 260.792 54.0773 261.363L52.9224 260.334Z" fill="#151E2B"/>
<path d="M89.1918 252.626C87.8328 248.716 85.6383 245.149 82.7612 242.176C79.8842 239.202 76.3939 236.892 72.5337 235.408C68.6735 233.923 64.5365 233.3 60.411 233.581C56.2856 233.863 52.2711 235.042 48.6474 237.036C45.0238 239.031 41.8783 241.793 39.4303 245.129C36.9824 248.466 35.2908 252.298 34.4737 256.357C33.6566 260.415 33.7335 264.604 34.6992 268.63C35.6648 272.656 37.496 276.422 40.0649 279.667C40.3155 279.989 40.586 280.311 40.8561 280.62C40.8716 280.643 40.8888 280.664 40.9076 280.684C41.5738 281.451 42.2825 282.18 43.0303 282.868C43.2232 283.048 43.4226 283.235 43.6287 283.409C44.0144 283.757 44.4133 284.085 44.8314 284.401C44.9922 284.53 45.153 284.659 45.3204 284.781C45.97 285.277 46.6519 285.734 47.3467 286.179C47.3586 286.179 47.37 286.184 47.3787 286.192C47.5782 286.314 47.7842 286.436 47.99 286.552C48.1828 286.668 48.3823 286.784 48.5754 286.894C48.7554 286.99 48.9291 287.087 49.1094 287.184L49.3472 287.306C49.9006 287.589 50.4601 287.86 51.0392 288.111C51.1033 288.143 51.1743 288.169 51.245 288.201C51.2965 288.221 51.348 288.246 51.3992 288.266C51.4121 288.272 51.4187 288.272 51.4249 288.279C51.695 288.388 51.9655 288.498 52.2419 288.601C53.1471 288.947 54.0706 289.244 55.0082 289.49C56.5174 289.895 58.0581 290.173 59.6138 290.32C60.521 290.404 61.4281 290.449 62.3415 290.449C63.2486 290.449 64.1362 290.404 65.0239 290.32C65.3135 290.295 65.6028 290.262 65.8924 290.23C67.6117 290.013 69.3081 289.642 70.9614 289.122C70.9663 289.122 70.9708 289.12 70.9742 289.116C72.1963 288.729 73.3894 288.255 74.5446 287.699C74.5509 287.692 74.5572 287.692 74.5638 287.686C74.821 287.564 75.072 287.435 75.3292 287.306C75.3712 287.287 75.4121 287.266 75.4514 287.242C75.6572 287.138 75.8632 287.029 76.0627 286.919C76.2684 286.81 76.4677 286.694 76.6607 286.572C76.8668 286.462 77.0596 286.34 77.2591 286.217C77.3621 286.153 77.465 286.089 77.5678 286.024C77.7095 285.94 77.838 285.857 77.9796 285.76C78.1725 285.638 78.3657 285.502 78.5519 285.367C78.8029 285.193 79.0539 285.013 79.2982 284.826C79.3806 284.772 79.4601 284.714 79.5363 284.652C84.3134 281.016 87.8199 275.96 89.5541 270.208C91.2883 264.456 91.1615 258.302 89.1918 252.626ZM78.5972 283.409C78.4298 283.544 78.2561 283.673 78.0827 283.789C77.9087 283.918 77.7416 284.04 77.5679 284.156C77.4199 284.259 77.272 284.362 77.1178 284.459C77.1038 284.471 77.0886 284.482 77.0725 284.491C76.9632 284.569 76.8473 284.639 76.738 284.71C76.6608 284.755 76.5838 284.807 76.5065 284.852C76.2813 284.994 76.0561 285.129 75.8246 285.258C75.7024 285.335 75.5737 285.406 75.4515 285.477C75.4066 285.502 75.3613 285.528 75.3164 285.554C75.1169 285.663 74.9241 285.76 74.7309 285.863C74.7055 285.882 74.6731 285.889 74.6539 285.908C74.642 285.909 74.6305 285.913 74.6216 285.921C74.3772 286.05 74.1263 286.172 73.8756 286.288C72.9097 286.754 71.9148 287.156 70.897 287.493C70.7685 287.538 70.6335 287.589 70.5047 287.628C68.8641 288.149 67.1774 288.512 65.4677 288.71C65.2749 288.736 65.0755 288.755 64.876 288.775C64.0399 288.852 63.1971 288.891 62.3415 288.891C61.5823 288.891 60.8169 288.858 60.0643 288.794C58.4909 288.663 56.9323 288.391 55.4071 287.982C54.2461 287.679 53.1088 287.292 52.0042 286.823C51.9461 286.797 51.8883 286.778 51.8305 286.752C51.7661 286.726 51.7146 286.707 51.6568 286.681C51.5924 286.655 51.5409 286.63 51.4765 286.597C51.0584 286.417 50.6404 286.217 50.2352 286.011C50.1771 285.979 50.1193 285.953 50.0615 285.921L49.8363 285.805C49.7012 285.734 49.5662 285.663 49.4374 285.593C49.0064 285.361 48.5818 285.11 48.1703 284.852C48.0158 284.755 47.8487 284.652 47.6941 284.549L47.5782 284.472C47.218 284.227 46.858 283.982 46.504 283.718C46.2659 283.538 46.0215 283.364 45.7901 283.177C45.3977 282.881 45.018 282.565 44.6515 282.237C44.4583 282.076 44.2654 281.895 44.0854 281.728C43.3611 281.06 42.6759 280.35 42.0334 279.602C41.8211 279.358 41.6088 279.113 41.4093 278.855C41.3644 278.804 41.3258 278.752 41.2805 278.694C37.9642 274.504 35.9693 269.421 35.5502 264.091C35.1311 258.761 36.3068 253.428 38.9275 248.77C41.5481 244.112 45.4948 240.342 50.2643 237.939C55.0338 235.536 60.4099 234.611 65.707 235.28C71.004 235.949 75.982 238.183 80.0059 241.697C84.0299 245.21 86.9174 249.845 88.3004 255.008C89.6834 260.172 89.499 265.631 87.7708 270.689C86.0427 275.747 82.849 280.176 78.5972 283.409Z" fill="#0A4A3F"/>
<path d="M109.902 113.552C100.003 105.188 87.8898 99.8858 75.0364 98.2898C62.1829 96.6938 49.1433 98.873 37.5042 104.562C25.8652 110.252 16.1285 119.206 9.47894 130.335C2.82943 141.464 -0.446199 154.289 0.0506586 167.248C0.547517 180.207 4.79543 192.743 12.2775 203.329C19.7596 213.915 30.1532 222.095 42.1936 226.874C54.2341 231.653 67.4022 232.825 80.0956 230.247C92.789 227.669 104.46 221.452 113.69 212.353L195.643 281.596C196.891 282.646 198.504 283.158 200.128 283.02C201.752 282.881 203.254 282.103 204.307 280.857C205.359 279.611 205.875 277.998 205.741 276.371C205.607 274.745 204.835 273.238 203.593 272.181L203.584 272.173L121.631 202.93C131.151 189.248 135.226 172.499 133.056 155.966C130.886 139.433 122.629 124.307 109.902 113.552ZM104.618 196.262C98.2338 203.839 89.7489 209.349 80.2366 212.097C70.7243 214.845 60.6118 214.707 51.178 211.7C41.7442 208.693 33.4127 202.952 27.2372 195.204C21.0617 187.456 17.3194 178.048 16.4836 168.17C15.6479 158.292 17.7562 148.388 22.5419 139.71C27.3277 131.032 34.5759 123.97 43.3701 119.416C52.1642 114.863 62.1093 113.023 71.9477 114.13C81.7861 115.236 91.0759 119.239 98.6424 125.632C108.789 134.204 115.119 146.462 116.239 159.708C117.36 172.953 113.18 186.103 104.618 196.262Z" fill="#0A4A3F"/>
<path opacity="0.3" d="M34.0805 202.246C24.4777 194.132 18.2735 182.698 16.6999 170.216C15.1263 157.733 18.2984 145.114 25.5863 134.865C24.6292 135.83 23.704 136.841 22.8106 137.898C18.5714 142.928 15.3632 148.746 13.3693 155.018C11.3754 161.29 10.6347 167.893 11.1897 174.452C11.7446 181.011 13.5842 187.396 16.6035 193.242C19.6227 199.089 23.7625 204.283 28.7865 208.528C33.8105 212.773 39.6202 215.985 45.884 217.982C52.1478 219.978 58.743 220.72 65.2931 220.164C71.8431 219.609 78.2198 217.767 84.0589 214.743C89.8979 211.72 95.0852 207.575 99.3244 202.544C100.216 201.487 101.055 200.403 101.843 199.294C92.9789 208.212 81.0901 213.466 68.5368 214.013C55.9836 214.559 43.684 210.359 34.0805 202.246Z" fill="black"/>
<path d="M275.12 284.185C275.76 283.403 276.221 282.489 276.471 281.509C276.72 280.528 276.752 279.505 276.564 278.511C276.376 277.517 275.972 276.577 275.382 275.756C274.791 274.935 274.028 274.254 273.146 273.76L258.208 212.537L247.311 216.02L263.441 276.826C262.711 278.364 262.57 280.117 263.045 281.753C263.519 283.388 264.577 284.793 266.016 285.7C267.456 286.607 269.178 286.954 270.856 286.675C272.534 286.395 274.051 285.51 275.12 284.185Z" fill="#FFD0B6"/>
<path d="M267.399 245.023L259.436 251.903L248.294 261.52L243.373 236.309L242.858 233.687L242.453 231.607L253.743 211.916L263.154 212.456L263.797 212.495L263.81 212.637L263.958 213.958L265.888 231.336L265.933 231.755L267.399 245.023Z" fill="#0A4A3F"/>
<path d="M215.346 416.151L207.46 416.151L203.708 385.691L215.348 385.692L215.346 416.151Z" fill="#FFD0B6"/>
<path d="M217.358 423.806L191.928 423.805V423.483C191.928 420.854 192.971 418.334 194.827 416.475C196.684 414.617 199.201 413.572 201.826 413.572H201.827L217.358 413.573L217.358 423.806Z" fill="#151E2B"/>
<path d="M297.685 416.794L289.799 416.793L286.047 386.334L297.687 386.335L297.685 416.794Z" fill="#FFD0B6"/>
<path d="M299.697 424.45L274.268 424.449V424.127C274.268 421.499 275.311 418.978 277.167 417.12C279.023 415.261 281.54 414.217 284.165 414.217H284.166L299.697 414.217L299.697 424.45Z" fill="#151E2B"/>
<path d="M303.989 404.669L282.761 407.89L251.877 303.233L219.076 408.534L195.275 405.314L226.152 282.93V273.268L230.334 258.776L229.896 254.853L226.853 227.42L225.535 215.523L225.449 214.754C225.378 214.109 225.548 213.461 225.928 212.935C226.308 212.409 226.869 212.043 227.503 211.909L237.41 209.822H253.601L263.154 212.457L263.81 212.637L264.106 212.721L263.958 213.958L261.719 232.753L261.597 233.784L259.435 251.903L258.959 255.877C277.615 269.404 278.258 282.93 278.258 282.93L303.989 404.669Z" fill="#151E2B"/>
<path d="M243.549 201.674C252.274 201.674 259.348 194.591 259.348 185.854C259.348 177.116 252.274 170.033 243.549 170.033C234.823 170.033 227.749 177.116 227.749 185.854C227.749 194.591 234.823 201.674 243.549 201.674Z" fill="#FFD0B6"/>
<path d="M260.143 252.241L228.889 256.334L229.473 260.805L260.727 256.712L260.143 252.241Z" fill="#0A4A3F"/>
<path d="M186.965 257.682C187.264 257.876 187.547 258.093 187.812 258.331L218.726 250.44L220.835 242.973L232.506 244.687L230.055 258.27C229.857 259.367 229.309 260.371 228.493 261.129C227.677 261.888 226.638 262.362 225.53 262.478L189.435 266.285C188.847 267.525 187.895 268.556 186.707 269.242C185.519 269.928 184.151 270.235 182.784 270.123C181.417 270.011 180.117 269.484 179.056 268.614C177.996 267.744 177.224 266.571 176.846 265.252C176.467 263.932 176.498 262.528 176.935 261.227C177.373 259.926 178.196 258.789 179.294 257.967C180.393 257.145 181.715 256.678 183.085 256.627C184.456 256.576 185.809 256.944 186.965 257.682Z" fill="#FFD0B6"/>
<path d="M234.515 215.942L229.047 211.756C227.568 211.194 225.543 212.79 225.187 214.332L217.468 245.894L233.55 257.488L235.801 253.946L234.515 215.942Z" fill="#0A4A3F"/>
<g opacity="0.2">
<path d="M265.887 231.336C264.523 231.878 263.131 232.351 261.719 232.753C261.269 232.888 260.806 233.017 260.349 233.139C257.338 233.976 254.245 234.477 251.124 234.634C249.781 234.691 248.435 234.654 247.097 234.524C245.661 234.381 244.241 234.101 242.858 233.687C242.813 233.674 242.761 233.661 242.717 233.648C239.84 232.831 237.203 231.33 235.029 229.275C234.544 228.801 234.09 228.295 233.672 227.761C232.471 226.288 231.59 224.58 231.084 222.747C230.579 220.914 230.462 218.995 230.739 217.114C230.792 216.773 230.866 216.435 230.958 216.102C231.2 215.196 231.521 214.312 231.916 213.462C232.09 213.062 232.283 212.669 232.488 212.283L239.757 209.822H253.601L263.154 212.457L263.797 212.495L263.81 212.637L264.106 212.721L263.958 213.958L265.887 231.336Z" fill="black"/>
</g>
<path d="M231.442 172.755C228.487 172.392 225.245 172.649 222.942 174.538C220.639 176.426 219.895 180.353 222.076 182.382C224.006 184.179 227.025 183.756 229.61 184.267C231.838 184.767 233.833 186 235.277 187.77C236.722 189.54 237.531 191.744 237.576 194.03C237.538 200.583 231.257 205.546 230.129 212.001C229.358 216.407 231.214 221.044 234.422 224.156C237.631 227.268 242.041 228.95 246.484 229.405C250.928 229.861 255.421 229.165 259.74 228.022C264.076 226.874 268.345 225.245 271.984 222.619C275.623 219.992 278.605 216.29 279.774 211.954C280.942 207.617 280.103 202.645 277.093 199.316C273.645 195.503 267.91 194.192 264.928 190.005C261.586 185.311 262.823 178.626 260.117 173.536C258.311 170.138 254.891 167.821 251.245 166.6C247.599 165.379 243.706 165.138 239.864 165.02C237.844 164.958 235.763 164.937 233.881 165.674C232 166.412 230.346 168.092 230.248 170.113C230.151 172.134 231.442 172.755 231.442 172.755Z" fill="#151E2B"/>
<path d="M379.357 424.71H134.268C134.097 424.71 133.933 424.642 133.813 424.521C133.692 424.401 133.624 424.237 133.624 424.066C133.624 423.895 133.692 423.731 133.813 423.611C133.933 423.49 134.097 423.422 134.268 423.422H379.357C379.527 423.422 379.691 423.49 379.811 423.611C379.932 423.731 380 423.895 380 424.066C380 424.237 379.932 424.401 379.811 424.521C379.691 424.642 379.527 424.71 379.357 424.71Z" fill="#CACACA"/>
</g>
<defs>
<clipPath id="clip0_5022_80351">
<rect width="380" height="424" fill="white"/>
</clipPath>
</defs>
</svg>
