<svg width="547" height="282" viewBox="0 0 547 282" fill="none" xmlns="http://www.w3.org/2000/svg">
<g clip-path="url(#clip0_5080_80921)">
<path d="M64.4647 232.358C63.7844 232.088 62.9182 233.61 62.334 233.339C61.7519 233.069 62.4094 231.464 61.8769 229.37C61.7808 228.993 61.1756 226.613 60.1801 226.504C58.2932 226.297 56.6639 234.429 53.8441 234.36C53.2253 234.344 52.4834 233.932 50.5593 233.82C49.7938 233.775 49.3781 233.809 49.1618 234.083C48.855 234.472 49.2178 235.005 49.5828 236.321C50.1301 238.295 49.6985 238.484 50.2668 239.958C50.6886 241.051 51.148 241.522 50.9146 241.863C50.5843 242.346 49.451 241.716 48.9582 242.232C48.4552 242.758 48.9585 244.123 49.4843 245.029C50.4711 246.73 51.8231 247.311 52.9632 248.139C54.2023 249.039 55.7702 250.652 56.9157 253.766L66.0833 281.777C64.3236 275.936 59.765 259.717 58.3132 253.503C57.8941 251.709 57.5233 249.848 58.484 248.257C59.409 246.726 61.4567 245.631 63.3372 243.288C63.5568 243.014 64.1584 242.245 63.9125 241.731C63.7093 241.306 63.1119 241.444 62.9162 241.05C62.6537 240.522 63.5155 239.847 64.1722 238.496C64.6353 237.544 64.7611 236.739 64.8692 236.048C64.9019 235.839 65.3702 232.718 64.4647 232.358Z" fill="#FFDFB1"/>
<path d="M42.723 267.64C42.3942 267.896 42.8906 268.761 42.5892 268.97C42.2889 269.178 41.6915 268.392 40.511 268.049C40.2981 267.987 38.9566 267.598 38.6158 268.056C37.9699 268.923 41.4876 272.07 40.64 273.435C40.4539 273.734 40.0379 273.98 39.4276 274.893C39.1848 275.256 39.0815 275.47 39.1535 275.655C39.2556 275.918 39.6215 275.893 40.3723 276.094C41.4984 276.395 41.4664 276.661 42.3529 276.807C43.011 276.916 43.3743 276.826 43.4743 277.039C43.6158 277.34 42.9798 277.715 43.0905 278.106C43.2035 278.505 44.0179 278.652 44.6141 278.655C45.733 278.661 46.4078 278.164 47.1429 277.843C47.9418 277.494 49.1853 277.19 51.0429 277.525L67.424 281.104C64.0516 280.283 54.7832 277.843 51.317 276.763C50.3164 276.451 49.2966 276.096 48.7939 275.165C48.3099 274.269 48.3635 272.947 47.7572 271.347C47.6864 271.161 47.4827 270.643 47.1599 270.616C46.893 270.593 46.7878 270.926 46.5384 270.909C46.2037 270.885 46.1213 270.267 45.6484 269.555C45.3149 269.052 44.9568 268.759 44.6488 268.506C44.556 268.43 43.1607 267.299 42.723 267.64Z" fill="#FFDFB1"/>
<path d="M50.4425 264.034L48.8741 262.412L48.861 262.208C48.8009 261.261 48.5461 260.487 48.1035 259.909C48.0332 259.817 47.9581 259.728 47.8818 259.638C47.5789 259.281 47.2023 258.837 47.0281 258.115C46.9317 257.712 46.775 256.728 47.4089 256.374C47.5783 256.278 47.7482 256.259 47.8995 256.273C47.8964 256.243 47.8938 256.212 47.8908 256.179C47.8593 255.772 47.91 255.548 47.9589 255.332C47.9964 255.166 48.0353 254.995 48.0418 254.656C48.0447 254.508 48.0399 254.383 48.036 254.278C48.0249 253.959 48.0282 253.567 48.3698 253.31C48.7444 253.047 49.1645 253.2 49.4428 253.301C49.9392 253.481 50.2371 253.657 50.4346 253.774C50.5067 253.817 50.5881 253.865 50.6188 253.876C50.8675 253.957 51.6906 253.065 52.0023 252.731C52.7003 251.978 53.3043 251.326 53.9802 251.611C54.464 251.815 54.681 252.411 54.6411 253.431C54.6284 253.748 54.5698 254.028 54.506 254.26C54.6905 254.238 54.8929 254.267 55.0789 254.413C55.5189 254.76 55.482 255.477 54.9711 256.545C54.8448 256.811 54.6736 257.167 54.3341 257.538C54.174 257.712 54.0138 257.848 53.8749 257.963C53.9354 258.047 53.985 258.151 54.0056 258.282C54.0671 258.665 53.8606 259.03 53.376 259.355C52.8485 259.721 52.3562 259.947 51.9225 260.146C51.544 260.321 51.2187 260.473 51.0124 260.656C50.6342 261 50.5726 261.563 50.5312 262.265L50.4425 264.034Z" fill="#FFDFB1"/>
<path d="M43.2088 252.752L42.0394 254.682L41.8448 254.747C40.9448 255.045 40.2622 255.488 39.815 256.063C39.7439 256.155 39.6775 256.25 39.6098 256.346C39.3415 256.73 39.0081 257.207 38.3546 257.559C37.9895 257.755 37.0778 258.156 36.5756 257.632C36.4392 257.492 36.3777 257.333 36.3532 257.183C36.3245 257.193 36.2954 257.204 36.2641 257.215C35.879 257.349 35.6497 257.357 35.4288 257.364C35.2591 257.37 35.0839 257.375 34.7547 257.455C34.6103 257.49 34.4908 257.526 34.3902 257.557C34.0853 257.648 33.7051 257.745 33.3699 257.479C33.0214 257.183 33.0626 256.737 33.0896 256.442C33.1377 255.916 33.2324 255.583 33.2953 255.362C33.3184 255.282 33.3441 255.191 33.3464 255.158C33.362 254.897 32.2911 254.326 31.8892 254.109C30.9844 253.624 30.2015 253.205 30.3054 252.478C30.3794 251.958 30.9002 251.597 31.8963 251.377C32.2065 251.309 32.4913 251.294 32.7324 251.297C32.6641 251.124 32.6402 250.921 32.7344 250.704C32.9581 250.19 33.6602 250.044 34.8221 250.268C35.1111 250.322 35.4993 250.398 35.9436 250.632C36.1527 250.743 36.3249 250.864 36.4705 250.969C36.5369 250.889 36.6249 250.815 36.7457 250.762C37.1008 250.605 37.5059 250.712 37.9431 251.099C38.43 251.517 38.7731 251.936 39.0762 252.305C39.3412 252.627 39.5702 252.904 39.7992 253.057C40.2279 253.336 40.7881 253.253 41.4762 253.115L43.2088 252.752Z" fill="#FFDFB1"/>
<path d="M38.2516 248.233L36.6832 246.612L36.6701 246.407C36.61 245.46 36.3552 244.687 35.9126 244.108C35.8423 244.016 35.7672 243.927 35.6908 243.837C35.388 243.48 35.0114 243.036 34.8372 242.314C34.7408 241.911 34.5841 240.927 35.218 240.574C35.3874 240.477 35.5573 240.458 35.7085 240.472C35.7055 240.442 35.7029 240.411 35.6999 240.378C35.6684 239.971 35.7191 239.747 35.768 239.531C35.8055 239.366 35.8444 239.195 35.8509 238.856C35.8538 238.707 35.849 238.582 35.8451 238.477C35.8339 238.159 35.8373 237.766 36.1789 237.509C36.5535 237.247 36.9736 237.399 37.2518 237.5C37.7483 237.681 38.0462 237.857 38.2437 237.974C38.3158 238.016 38.3972 238.064 38.4278 238.075C38.6766 238.156 39.4997 237.264 39.8114 236.93C40.5094 236.177 41.1134 235.526 41.7893 235.811C42.2731 236.014 42.4901 236.61 42.4501 237.63C42.4375 237.948 42.3789 238.227 42.3151 238.46C42.4996 238.437 42.702 238.466 42.888 238.612C43.3279 238.959 43.2911 239.676 42.7802 240.744C42.6539 241.01 42.4827 241.367 42.1432 241.737C41.9831 241.912 41.8229 242.048 41.684 242.162C41.7445 242.246 41.794 242.351 41.8147 242.481C41.8762 242.864 41.6696 243.229 41.1851 243.555C40.6576 243.92 40.1653 244.146 39.7316 244.346C39.3531 244.521 39.0278 244.672 38.8215 244.855C38.4433 245.199 38.3817 245.763 38.3403 246.464L38.2516 248.233Z" fill="#FFDFB1"/>
<path d="M66.6548 281.289L66.1032 281.344L65.7082 281.728C65.6702 281.693 65.5752 281.619 65.4279 281.502C64.6215 280.858 62.1663 278.899 58.7377 275.477C56.3444 273.087 54.043 270.508 51.8961 267.809C49.746 265.105 48.278 262.935 47.0979 261.192C46.208 259.876 45.381 258.608 44.5762 257.372C42.425 254.07 40.3926 250.951 37.7089 247.834C37.1102 247.138 35.8632 245.689 33.7403 244.763C32.509 244.226 31.1652 243.943 29.7468 243.922L29.7628 242.812C31.3293 242.836 32.8167 243.15 34.184 243.747C36.5377 244.774 37.8965 246.352 38.5493 247.11C41.2803 250.283 43.332 253.432 45.5037 256.766C46.3061 257.997 47.1291 259.26 48.0155 260.57C49.1846 262.298 50.64 264.449 52.7626 267.117C54.8834 269.784 57.1569 272.332 59.5197 274.692C62.9052 278.071 65.3241 280 66.1187 280.634C66.5427 280.972 66.6316 281.043 66.6548 281.289Z" fill="#FFDFB1"/>
<path d="M29.2147 246.561C29.1787 246.589 29.1416 246.616 29.1028 246.642C28.3249 247.179 27.2881 247.266 26.0211 246.901C25.4261 246.729 24.9294 246.392 23.9388 245.719C23.7858 245.616 23.0195 245.084 22.1361 244.219C21.5587 243.654 21.3654 243.38 21.3103 243.049C21.2484 242.681 21.3335 242.325 21.4924 242.007C21.4164 241.931 21.3586 241.838 21.3269 241.721C21.1939 241.24 21.6283 240.981 21.8612 240.838C21.9805 240.767 22.1301 240.68 22.2706 240.56C22.4924 240.37 22.5633 240.206 22.6714 239.958C22.7748 239.721 22.9033 239.426 23.1821 239.102C23.7295 238.462 24.4192 238.224 24.6464 238.146C25.839 237.729 26.876 238.105 28.0767 238.542C28.3169 238.63 29.1688 238.967 30.0734 239.634C30.726 240.115 30.9128 240.408 31.0172 240.653C31.2327 241.156 31.1631 241.593 30.9248 242.623C30.677 243.699 30.5522 244.239 30.3913 244.633C30.0157 245.549 29.7799 246.124 29.2147 246.561Z" fill="#FFDFB1"/>
<path d="M87.8915 281.61C87.4563 281.61 87.0771 281.288 87.0165 280.845L64.6868 117.619C64.6205 117.135 64.959 116.688 65.4429 116.622C65.9265 116.552 66.3725 116.895 66.439 117.379L88.7687 280.604C88.835 281.089 88.4965 281.535 88.0126 281.601C87.9718 281.607 87.9315 281.61 87.8915 281.61Z" fill="#F2F2F2"/>
<path d="M65.563 182.255L78.386 203.498L153.113 199.073L133.215 173.404L65.563 182.255Z" fill="#DED7D1"/>
<path d="M65.5628 281.816C65.0744 281.816 64.6785 281.42 64.6785 280.931V117.53C64.6785 117.041 65.0744 116.645 65.5628 116.645C66.0512 116.645 66.4472 117.041 66.4472 117.53V280.931C66.4472 281.42 66.0512 281.816 65.5628 281.816Z" fill="#F2F2F2"/>
<path d="M177.653 281.167C177.277 281.167 176.929 280.925 176.81 280.547L123.97 112.454C123.824 111.987 124.083 111.49 124.549 111.343C125.014 111.197 125.511 111.456 125.658 111.922L178.497 280.016C178.644 280.482 178.385 280.979 177.919 281.126C177.831 281.153 177.741 281.167 177.653 281.167Z" fill="#F2F2F2"/>
<path d="M161.514 281.374C161.119 281.374 160.759 281.108 160.657 280.708L123.957 132.353C123.837 131.88 124.123 131.398 124.596 131.277C125.071 131.158 125.551 131.443 125.671 131.917L162.371 280.271C162.492 280.745 162.206 281.227 161.732 281.347C161.659 281.366 161.586 281.374 161.514 281.374Z" fill="#F2F2F2"/>
<path d="M65.563 120.134L126.804 119.191L138.079 183.583H66.4473L65.563 120.134Z" fill="#CCBFB3"/>
<path d="M547 280.918H0V282.001H547V280.918Z" fill="#E6E6E6"/>
<path d="M112.154 49.776C114.01 50.8196 117.004 46.6918 117.683 48.7109C118.362 50.73 116.718 58.8769 115.87 60.8308C115.448 61.802 114.853 62.6902 114.439 63.6648C114.025 64.6394 113.804 65.76 114.169 66.7536C114.805 68.4829 116.905 69.1863 117.946 70.7061C119.159 72.4763 118.669 74.8605 118.102 76.9303C117.614 78.7144 117.093 80.5146 116.152 82.1071C115.212 83.6996 113.794 85.0862 112.022 85.6131C109.767 86.284 107.356 85.4867 105.181 84.5867C103.09 83.7213 101.022 82.7403 99.2437 81.3403C97.4655 79.9403 95.9817 78.082 95.3601 75.9047C94.5804 73.1736 95.2318 70.1847 96.5819 67.6863C97.9319 65.1878 99.929 63.1063 101.978 61.1412C105.429 57.8315 109.102 54.7532 112.964 51.9339" fill="#151E2A"/>
<path d="M123.671 147.82L173.186 166.592C173.186 166.592 177.313 170.722 178.063 177.856C178.813 184.989 192.692 225.537 192.692 225.537L180.689 230.042C180.689 230.042 160.432 198.88 161.558 186.115C161.558 186.115 159.307 180.097 158.182 179.915C157.056 179.733 140.176 171.098 129.298 172.224C118.419 173.35 89.9104 176.729 89.1602 163.589C88.41 150.448 94.9893 150.448 94.9893 150.448L123.671 147.82Z" fill="#151E2A"/>
<path d="M190.066 222.159C190.066 222.159 193.442 221.032 195.693 223.285C197.944 225.538 197.944 227.415 197.944 227.415C197.944 227.415 215.574 227.039 216.325 229.292C217.075 231.545 214.449 240.555 208.072 240.931C201.695 241.306 179.938 245.811 179.938 241.682C179.938 237.552 180.313 228.166 181.814 228.166C183.314 228.166 190.066 222.159 190.066 222.159Z" fill="#151E2A"/>
<path d="M127.948 159.76L164.037 198.539C164.037 198.539 165.909 204.07 163.425 210.799C160.941 217.527 155.444 260.034 155.444 260.034L142.688 258.753C142.688 258.753 138.315 221.835 144.972 210.889C144.972 210.889 145.617 204.494 144.689 203.833C143.76 203.171 132.446 187.947 122.195 184.135C111.943 180.323 84.8869 170.716 90.0286 158.602C95.1703 146.487 101.069 149.404 101.069 149.404L127.948 159.76Z" fill="#151E2A"/>
<path d="M154.585 255.842C154.585 255.842 158.11 256.328 159.131 259.346C160.153 262.363 159.322 264.046 159.322 264.046C159.322 264.046 175.295 271.524 174.971 273.876C174.647 276.229 168.306 283.144 162.422 280.654C156.539 278.164 135.038 272.559 136.866 268.857C138.693 265.154 143.182 256.905 144.528 257.57C145.873 258.235 154.585 255.842 154.585 255.842Z" fill="#151E2A"/>
<path d="M94.9744 80.0527L106.978 87.937L120.482 108.586C120.482 108.586 123.483 130.362 122.358 131.488C121.233 132.615 121.608 133.741 121.608 135.994C121.608 138.246 124.363 138.486 122.61 140.431C120.857 142.376 119.387 142.781 121.998 143.517C124.609 144.253 127.642 143.535 126.125 145.771C124.609 148.008 125.734 148.759 124.984 149.51C124.233 150.26 93.8648 182.362 88.2381 169.972C82.6113 157.583 82.2205 110.088 82.2205 110.088L86.274 94.6163L94.9744 80.0527Z" fill="#B7791F"/>
<path d="M57.9896 168.507C56.7124 172.83 57.9056 176.994 60.6545 177.807C63.4033 178.62 66.6663 175.775 67.9434 171.45C68.4773 169.729 68.5917 167.906 68.2771 166.132L73.4577 147.747L64.786 145.498L60.5994 163.861C59.3713 165.179 58.4763 166.772 57.9896 168.507Z" fill="#FFD0B6"/>
<path d="M107.378 106.163C107.378 106.163 93.3968 95.4804 88.0747 102.217C82.7525 108.954 63.2563 138.862 63.2563 138.862L61.9639 150.259L73.021 152.702L90.8925 126.345L107.378 106.163Z" fill="#B7791F"/>
<path d="M177.666 64.6485C180.872 61.4823 181.839 57.2602 179.826 55.2183C177.812 53.1765 173.581 54.0882 170.375 57.2559C169.076 58.5036 168.095 60.0445 167.514 61.7495L154.098 75.3362L160.603 81.5012L173.138 67.4526C174.849 66.8933 176.402 65.9317 177.666 64.6485Z" fill="#FFD0B6"/>
<path d="M104.319 95.3233C104.319 95.3233 111.398 111.44 119.311 108.118C127.224 104.795 158.737 88.0488 158.737 88.0488L165.374 78.6971L156.874 71.209L128.499 85.6337L104.319 95.3233Z" fill="#B7791F"/>
<path d="M107.519 76.8489C114.955 76.8489 120.983 70.8158 120.983 63.3737C120.983 55.9315 114.955 49.8984 107.519 49.8984C100.083 49.8984 94.0557 55.9315 94.0557 63.3737C94.0557 70.8158 100.083 76.8489 107.519 76.8489Z" fill="#FFD0B6"/>
<path d="M92.3419 84.4782C95.4844 88.9647 97.0914 94.508 96.8363 99.9812C100.399 98.2538 102.804 94.6041 103.622 90.7274C104.441 86.8507 103.816 82.7801 102.501 79.0428C102.488 79.0054 102.475 78.9681 102.462 78.9307C100.465 73.3211 102.32 67.0515 107.143 63.5644C110.396 61.2122 113.218 58.2613 115.384 54.8787C116.606 52.9691 117.645 50.5737 116.732 48.498C115.89 46.5854 113.716 45.6915 111.716 45.0933C107.147 43.7275 102.293 42.9504 97.6039 43.8146C92.9148 44.6789 88.4007 47.3778 86.1846 51.6031C83.9684 55.8284 84.549 61.5948 88.1461 64.7272C87.0115 65.0943 86.2088 66.2979 86.3052 67.4873C86.4016 68.6768 87.3875 69.7352 88.5663 69.9146C87.7972 69.8873 87.3432 70.9011 87.6175 71.6208C87.8918 72.3404 88.599 72.7874 89.2738 73.1579C90.2349 73.6855 91.3002 74.2372 91.3043 75.619C91.306 76.173 91.1086 76.7107 90.7861 77.161C90.0046 78.2522 88.7427 78.7436 87.5281 79.2049C90.0972 79.9623 92.1458 82.2605 92.6057 84.9012" fill="#151E2A"/>
<path d="M204.102 80.8123C226.396 80.8123 244.47 62.7231 244.47 40.4091C244.47 18.095 226.396 0.00585938 204.102 0.00585938C181.807 0.00585938 163.733 18.095 163.733 40.4091C163.733 62.7231 181.807 80.8123 204.102 80.8123Z" fill="#FFDFB1"/>
<path d="M202.009 40.6014L198.155 63.4805L202.161 64.1566L206.016 41.2775L202.009 40.6014Z" fill="white"/>
<path d="M216.951 54.7045L203.178 45.892L187.279 49.6969L208.045 17L216.951 54.7045Z" fill="white"/>
<path d="M458.629 237.574C459.225 237.337 459.983 238.67 460.494 238.432C461.004 238.196 460.428 236.791 460.895 234.958C460.979 234.627 461.508 232.544 462.38 232.449C464.032 232.268 465.458 239.386 467.926 239.326C468.468 239.312 469.118 238.952 470.802 238.853C471.472 238.814 471.836 238.844 472.025 239.084C472.294 239.424 471.976 239.89 471.657 241.043C471.178 242.771 471.555 242.936 471.058 244.226C470.689 245.184 470.287 245.595 470.491 245.894C470.78 246.317 471.772 245.765 472.204 246.217C472.644 246.678 472.203 247.872 471.743 248.666C470.879 250.155 469.696 250.663 468.698 251.388C467.613 252.176 466.24 253.588 465.238 256.314L457.212 280.835C458.753 275.721 462.743 261.524 464.014 256.084C464.381 254.514 464.706 252.884 463.865 251.492C463.055 250.151 461.262 249.192 459.616 247.141C459.424 246.902 458.897 246.228 459.112 245.779C459.29 245.407 459.813 245.527 459.985 245.182C460.214 244.72 459.46 244.129 458.885 242.947C458.48 242.113 458.37 241.409 458.275 240.803C458.246 240.621 457.836 237.889 458.629 237.574Z" fill="#FFDFB1"/>
<path d="M477.662 268.46C477.95 268.685 477.515 269.441 477.779 269.624C478.042 269.806 478.565 269.118 479.598 268.818C479.785 268.764 480.959 268.423 481.257 268.824C481.823 269.583 478.743 272.338 479.485 273.533C479.648 273.795 480.012 274.01 480.547 274.809C480.759 275.127 480.85 275.314 480.787 275.477C480.697 275.707 480.377 275.685 479.72 275.861C478.734 276.124 478.762 276.357 477.986 276.485C477.41 276.58 477.092 276.501 477.004 276.688C476.88 276.952 477.437 277.28 477.34 277.622C477.241 277.972 476.528 278.1 476.006 278.103C475.027 278.108 474.436 277.673 473.793 277.392C473.093 277.087 472.005 276.82 470.379 277.114L456.039 280.247C458.991 279.528 467.104 277.392 470.139 276.446C471.015 276.174 471.907 275.863 472.347 275.048C472.771 274.263 472.724 273.106 473.255 271.706C473.317 271.542 473.495 271.089 473.778 271.065C474.011 271.045 474.103 271.337 474.322 271.321C474.615 271.301 474.687 270.76 475.101 270.136C475.393 269.697 475.706 269.439 475.976 269.218C476.057 269.151 477.279 268.162 477.662 268.46Z" fill="#FFDFB1"/>
<path d="M470.904 265.302L472.277 263.882L472.289 263.703C472.341 262.874 472.564 262.197 472.952 261.69C473.013 261.61 473.079 261.532 473.146 261.454C473.411 261.141 473.741 260.753 473.893 260.121C473.977 259.768 474.115 258.906 473.56 258.597C473.411 258.512 473.263 258.495 473.13 258.508C473.133 258.481 473.135 258.454 473.138 258.425C473.165 258.069 473.121 257.873 473.078 257.684C473.045 257.539 473.011 257.389 473.006 257.093C473.003 256.963 473.007 256.853 473.011 256.761C473.02 256.483 473.018 256.139 472.719 255.914C472.391 255.684 472.023 255.818 471.779 255.906C471.345 256.064 471.084 256.218 470.911 256.321C470.848 256.358 470.777 256.4 470.75 256.409C470.532 256.48 469.811 255.7 469.539 255.407C468.928 254.748 468.399 254.178 467.807 254.427C467.384 254.605 467.194 255.127 467.229 256.02C467.24 256.298 467.291 256.542 467.347 256.746C467.185 256.727 467.008 256.751 466.845 256.88C466.46 257.183 466.493 257.811 466.94 258.746C467.05 258.979 467.2 259.291 467.497 259.615C467.638 259.768 467.778 259.887 467.899 259.987C467.846 260.061 467.803 260.152 467.785 260.266C467.731 260.602 467.912 260.922 468.336 261.206C468.798 261.526 469.229 261.724 469.608 261.899C469.94 262.052 470.225 262.184 470.405 262.344C470.736 262.646 470.79 263.139 470.826 263.753L470.904 265.302Z" fill="#FFDFB1"/>
<path d="M477.237 255.426L478.26 257.115L478.431 257.172C479.218 257.433 479.816 257.821 480.208 258.324C480.27 258.404 480.328 258.488 480.387 258.572C480.622 258.908 480.914 259.326 481.486 259.634C481.806 259.805 482.604 260.157 483.043 259.698C483.163 259.576 483.217 259.436 483.238 259.305C483.263 259.314 483.289 259.323 483.316 259.333C483.653 259.45 483.854 259.457 484.047 259.463C484.196 259.468 484.349 259.473 484.637 259.543C484.764 259.573 484.868 259.605 484.956 259.632C485.223 259.712 485.556 259.796 485.85 259.564C486.155 259.305 486.119 258.915 486.095 258.656C486.053 258.196 485.97 257.904 485.915 257.711C485.895 257.64 485.872 257.561 485.87 257.532C485.856 257.303 486.794 256.804 487.146 256.614C487.938 256.19 488.623 255.822 488.532 255.186C488.467 254.731 488.012 254.415 487.14 254.222C486.868 254.162 486.619 254.15 486.408 254.152C486.467 254.001 486.488 253.823 486.406 253.633C486.21 253.183 485.595 253.055 484.578 253.251C484.325 253.299 483.985 253.365 483.597 253.57C483.414 253.667 483.263 253.773 483.135 253.865C483.077 253.795 483 253.73 482.894 253.684C482.584 253.546 482.229 253.64 481.846 253.979C481.42 254.345 481.12 254.712 480.854 255.035C480.622 255.317 480.422 255.559 480.221 255.693C479.846 255.937 479.356 255.864 478.753 255.744L477.237 255.426Z" fill="#FFDFB1"/>
<path d="M481.576 251.472L482.949 250.052L482.961 249.873C483.013 249.044 483.236 248.367 483.624 247.86C483.685 247.78 483.751 247.702 483.818 247.624C484.083 247.311 484.413 246.922 484.565 246.29C484.65 245.938 484.787 245.076 484.232 244.767C484.084 244.682 483.935 244.665 483.802 244.678C483.805 244.651 483.807 244.624 483.81 244.595C483.838 244.239 483.793 244.043 483.75 243.854C483.718 243.709 483.683 243.559 483.678 243.263C483.675 243.133 483.679 243.023 483.683 242.931C483.693 242.652 483.69 242.309 483.391 242.084C483.063 241.854 482.695 241.988 482.451 242.076C482.017 242.234 481.756 242.388 481.583 242.49C481.52 242.528 481.449 242.57 481.422 242.579C481.204 242.65 480.484 241.869 480.211 241.577C479.6 240.918 479.071 240.347 478.479 240.597C478.056 240.775 477.866 241.297 477.901 242.19C477.912 242.468 477.963 242.712 478.019 242.916C477.857 242.897 477.68 242.921 477.517 243.049C477.132 243.353 477.165 243.981 477.612 244.916C477.722 245.148 477.872 245.461 478.17 245.785C478.31 245.938 478.45 246.057 478.571 246.157C478.518 246.231 478.475 246.322 478.457 246.436C478.403 246.772 478.584 247.091 479.008 247.376C479.47 247.696 479.901 247.894 480.281 248.069C480.612 248.222 480.897 248.354 481.077 248.514C481.408 248.816 481.462 249.309 481.499 249.923L481.576 251.472Z" fill="#FFDFB1"/>
<path d="M456.712 280.407L457.195 280.455L457.541 280.792C457.574 280.761 457.657 280.696 457.786 280.593C458.492 280.029 460.641 278.315 463.643 275.319C465.738 273.227 467.752 270.969 469.632 268.606C471.514 266.24 472.799 264.34 473.832 262.814C474.611 261.662 475.335 260.552 476.04 259.47C477.923 256.579 479.702 253.849 482.051 251.12C482.575 250.511 483.667 249.243 485.525 248.432C486.603 247.962 487.78 247.714 489.021 247.696L489.007 246.725C487.636 246.745 486.334 247.02 485.137 247.542C483.076 248.441 481.887 249.823 481.315 250.487C478.925 253.264 477.129 256.021 475.228 258.939C474.525 260.017 473.805 261.123 473.029 262.269C472.005 263.782 470.731 265.665 468.873 268.001C467.017 270.336 465.026 272.566 462.958 274.632C459.994 277.59 457.877 279.279 457.181 279.833C456.81 280.13 456.732 280.192 456.712 280.407Z" fill="#FFDFB1"/>
<path d="M489.487 250.005C489.519 250.03 489.551 250.054 489.585 250.076C490.266 250.546 491.174 250.623 492.283 250.304C492.804 250.153 493.238 249.858 494.106 249.269C494.239 249.178 494.91 248.712 495.684 247.955C496.189 247.46 496.358 247.221 496.406 246.931C496.461 246.609 496.386 246.298 496.247 246.019C496.314 245.953 496.364 245.871 496.392 245.769C496.508 245.347 496.128 245.121 495.924 244.995C495.82 244.934 495.689 244.858 495.566 244.752C495.372 244.586 495.31 244.442 495.215 244.225C495.124 244.018 495.012 243.76 494.768 243.476C494.289 242.915 493.685 242.707 493.486 242.639C492.442 242.274 491.534 242.603 490.483 242.985C490.273 243.062 489.527 243.358 488.735 243.941C488.164 244.362 488 244.619 487.909 244.834C487.72 245.274 487.781 245.656 487.99 246.558C488.207 247.5 488.316 247.973 488.457 248.318C488.786 249.12 488.992 249.623 489.487 250.005Z" fill="#FFDFB1"/>
<path d="M331.981 275.48L323.44 273.501L327.002 239.584L339.608 242.505L331.981 275.48Z" fill="#FFD0B6"/>
<path d="M302.761 268.507C302.391 268.894 301.916 270.309 301.796 270.83C301.425 272.432 302.423 274.032 304.024 274.403L330.477 280.531C331.569 280.784 332.659 280.103 332.912 279.01L333.167 277.907C333.167 277.907 335.242 274.897 333.492 270.19C333.492 270.19 329.404 272.612 325.559 266.445L324.702 263.428L312.213 268.772L306.125 268.13C304.793 267.989 303.687 267.539 302.761 268.507Z" fill="#151E2A"/>
<path d="M421.614 257.198L415.264 263.249L388.922 241.616L398.294 232.686L421.614 257.198Z" fill="#FFD0B6"/>
<path d="M399.724 277.787C399.843 278.309 400.762 279.484 401.131 279.871C402.264 281.062 404.148 281.109 405.338 279.974L425.001 261.233C425.813 260.46 425.844 259.174 425.071 258.361L424.291 257.542C424.291 257.542 422.921 254.152 418.031 253.025C418.031 253.025 417.803 257.774 410.542 257.597L407.553 256.653L405.143 270.031L401.258 274.768C400.409 275.804 399.425 276.48 399.724 277.787Z" fill="#151E2A"/>
<path d="M438.121 280.688C438.502 280.688 438.834 280.407 438.887 280.018L458.435 137.131C458.493 136.707 458.197 136.316 457.773 136.258C457.35 136.197 456.959 136.496 456.901 136.92L437.353 279.808C437.295 280.232 437.592 280.623 438.015 280.681C438.051 280.686 438.086 280.688 438.121 280.688Z" fill="#F2F2F2"/>
<path d="M457.668 193.713L446.442 212.309L381.026 208.435L398.445 185.965L457.668 193.713Z" fill="#DED7D1"/>
<path d="M457.668 280.869C458.095 280.869 458.442 280.522 458.442 280.094V137.052C458.442 136.624 458.095 136.277 457.668 136.277C457.24 136.277 456.894 136.624 456.894 137.052V280.094C456.894 280.522 457.24 280.869 457.668 280.869Z" fill="#F2F2F2"/>
<path d="M359.544 280.301C359.873 280.301 360.178 280.089 360.282 279.758L406.538 132.609C406.666 132.201 406.439 131.766 406.032 131.637C405.624 131.509 405.189 131.736 405.061 132.144L358.805 279.293C358.677 279.701 358.903 280.136 359.311 280.265C359.388 280.289 359.467 280.301 359.544 280.301Z" fill="#F2F2F2"/>
<path d="M373.672 280.482C374.018 280.482 374.333 280.249 374.422 279.898L406.549 150.028C406.655 149.614 406.404 149.192 405.99 149.086C405.574 148.982 405.154 149.232 405.049 149.646L372.921 279.516C372.816 279.93 373.066 280.352 373.481 280.458C373.545 280.474 373.609 280.482 373.672 280.482Z" fill="#F2F2F2"/>
<path d="M457.668 139.331L404.057 138.506L394.187 194.875H456.893L457.668 139.331Z" fill="#CCBFB3"/>
<path d="M437.068 177.034C437.068 177.034 446.391 200.18 429.15 205.46C411.908 210.739 387.06 218.197 387.06 218.197L415.628 245.872L401.543 254.88C401.543 254.88 349.588 219.262 349.588 210.739C349.588 202.216 392.167 180.133 392.167 180.133L415.628 171.744L437.068 177.034Z" fill="#151E2A"/>
<path d="M382.794 171.744C382.794 171.744 334.931 175.262 331.325 184.574C327.718 193.886 320.519 242.028 320.519 242.028L345.676 246.495L353.183 205.46L422.057 180.929L382.794 171.744Z" fill="#151E2A"/>
<path d="M357.256 118.845L369.895 103.381L383.854 112.544C383.854 112.544 436.461 146.752 438.636 178.85C438.636 178.85 417.47 199.227 390.31 173.634L370.629 168.41L357.256 118.845Z" fill="#B7791F"/>
<path d="M301.125 183.162C296.927 184.744 292.708 183.858 291.703 181.184C290.697 178.51 293.285 175.061 297.483 173.479C299.321 172.787 301.162 172.567 302.737 172.763L320.609 166.285L323.468 174.744L305.546 180.233C304.492 181.419 302.962 182.47 301.125 183.162Z" fill="#FFD0B6"/>
<path d="M361.475 120.187L357.256 118.844L345.191 155.739L303.934 170.887L306.568 181.057L353.485 169.852L371.593 152.178L361.475 120.187Z" fill="#B7791F"/>
<path d="M353.766 107.84C362.032 107.84 368.733 101.133 368.733 92.8604C368.733 84.5874 362.032 77.8809 353.766 77.8809C345.501 77.8809 338.8 84.5874 338.8 92.8604C338.8 101.133 345.501 107.84 353.766 107.84Z" fill="#FFD0B6"/>
<path d="M368.589 81.5719C368.589 81.5719 364.696 68.9895 351.784 70.6702C351.784 70.6702 349.174 73.2177 346.969 72.8213C344.764 72.425 340.63 79.0083 339.525 78.9944C338.42 78.9805 336.565 80.063 338.407 80.0862C340.248 80.1094 342.254 79.213 339.689 80.6553C337.123 82.0975 335.419 83.3663 337.251 84.1266C339.083 84.8869 339.433 82.8638 337.055 85.0457C334.677 87.2276 336.123 85.9556 337.214 87.0752C338.305 88.1948 336.589 94.2962 336.589 94.2962C336.589 94.2962 336.445 89.6459 342.705 89.7247C348.966 89.8035 352.998 91.3288 354.862 89.5091C356.727 87.6894 359.464 90.4987 361.186 92.2663C362.908 94.0339 364.386 93.6838 364.386 93.6838L362.806 102.142C362.806 102.142 369.257 101.684 369.668 98.3582C370.078 95.0326 368.464 91.5234 369.583 90.4316C370.702 89.3398 368.589 81.5719 368.589 81.5719Z" fill="#151E2A"/>
<path d="M293.471 180.176C312.988 180.176 328.809 164.34 328.809 144.807C328.809 125.273 312.988 109.438 293.471 109.438C273.954 109.438 258.133 125.273 258.133 144.807C258.133 164.34 273.954 180.176 293.471 180.176Z" fill="#FFDFB1"/>
<path d="M295.303 144.975L291.795 145.566L295.17 165.595L298.677 165.003L295.303 144.975Z" fill="white"/>
<path d="M282.222 157.321L294.28 149.607L308.198 152.937L290.019 124.314L282.222 157.321Z" fill="white"/>
<path d="M303.863 163.047C299.378 163.05 295.74 160.736 295.739 157.879C295.737 155.022 299.372 152.704 303.858 152.701C305.821 152.7 307.622 153.143 309.027 153.881L328.034 154.109L327.737 163.034L309.031 161.862C307.627 162.601 305.827 163.046 303.863 163.047Z" fill="#FFD0B6"/>
<path d="M376.111 119.01C385.293 129.054 386.42 144.08 378.841 155.385L363.621 169.32L314.819 164.685L315.848 153.251L350.339 151.394L376.111 119.01Z" fill="#B7791F"/>
</g>
<defs>
<clipPath id="clip0_5080_80921">
<rect width="547" height="282" fill="white"/>
</clipPath>
</defs>
</svg>
