<svg xmlns="http://www.w3.org/2000/svg" width="48" height="48" viewBox="0 0 48 48" fill="none">
  <path fillRule="evenodd" clipRule="evenodd" d="M23.9984 6.22461C34.2045 6.22461 42.4784 14.5917 42.4784 24.9131C42.4784 35.2344 34.2045 43.6017 23.9984 43.6017C13.7922 43.6017 5.51837 35.2345 5.51837 24.9131C5.51837 14.5916 13.792 6.22461 23.9984 6.22461Z" fill="#D6582F"/>
  <path fillRule="evenodd" clipRule="evenodd" d="M24.0658 4.32123C34.2347 4.32123 42.4782 12.6564 42.4782 22.9383C42.4782 33.2203 34.2347 41.5555 24.0658 41.5555C13.8969 41.5555 5.65338 33.2203 5.65338 22.9383C5.65338 12.6564 13.8969 4.32123 24.0658 4.32123Z" fill="#E48059"/>
  <path fillRule="evenodd" clipRule="evenodd" d="M24.1886 8.53601C32.1232 8.53601 38.5554 15.0134 38.5554 23.0036C38.5554 30.9939 32.1234 37.4713 24.1886 37.4713C16.2538 37.4713 9.8219 30.9936 9.8219 23.0033C9.8219 15.013 16.2541 8.53601 24.1886 8.53601Z" fill="#D6582F"/>
  <g filter="url(#filter0_d_5841_30148)">
    <path fillRule="evenodd" clipRule="evenodd" d="M25.3981 14.2659C23.5283 13.8143 21.6596 16.8319 21.2474 18.4169C20.3205 21.9812 19.9427 21.9882 18.6779 23.1609C14.8731 26.6893 16.9358 34.1023 23.0263 35.2188C28.063 36.1421 31.645 30.984 31.328 27.5097C30.8671 22.4627 27.86 23.5073 27.1067 19.372C26.5084 16.09 27.4416 14.7594 25.3981 14.2659Z" fill="#F77340"/>
  </g>
  <path fillRule="evenodd" clipRule="evenodd" d="M22.8287 35.2189C27.8653 36.1421 31.6447 30.9836 31.3277 27.5097C30.8668 22.4627 27.8597 23.705 27.1063 19.5697C25.2268 18.9432 21.2468 21.8773 25.3981 25.3353C27.2786 26.9018 28.264 31.8914 24.0146 33.44C23.2691 33.7116 19.5015 35.2849 17.0967 29.8819C18.2167 33.1433 20.1295 34.7241 22.8287 35.2189Z" fill="#CB3C0E"/>
  <path fillRule="evenodd" clipRule="evenodd" d="M26.3864 14.0682C26.3864 14.0682 26.2777 11.4985 28.7582 11.4985C30.3691 11.4985 31.0214 10.698 30.9324 11.3009C30.8435 11.9037 29.1536 15.8868 26.3864 14.0682Z" fill="#C83607"/>
  <path fillRule="evenodd" clipRule="evenodd" d="M25.991 13.6728C25.991 13.6728 26.5544 12.0421 24.2122 11.8938C24.5186 14.0781 25.5167 13.752 25.991 13.6728Z" fill="#C83607"/>
  <path opacity="0.25" fillRule="evenodd" clipRule="evenodd" d="M24.0658 4.32123C34.2347 4.32123 42.4782 12.6564 42.4782 22.9383C42.4837 25.4102 41.9981 27.8585 41.0496 30.1411C40.1011 32.4238 38.7085 34.4952 36.9529 36.2352C11.1806 9.81123 36.9589 36.1927 11.1105 9.70947C12.8077 8.00109 14.8262 6.64547 17.0497 5.7207C19.2732 4.79593 21.6577 4.32031 24.0658 4.32123Z" fill="#FFFFF0"/>
  <defs>
    <filter id="filter0_d_5841_30148" x="14.7595" y="12.2203" width="18.5881" height="25.1072" filterUnits="userSpaceOnUse" color-interpolation-filters="sRGB">
      <feFlood flood-opacity="0" result="BackgroundImageFix"/>
      <feColorMatrix in="SourceAlpha" type="matrix" values="0 0 0 0 0 0 0 0 0 0 0 0 0 0 0 0 0 0 127 0" result="hardAlpha"/>
      <feOffset/>
      <feGaussianBlur stdDeviation="1"/>
      <feColorMatrix type="matrix" values="0 0 0 0 0.827451 0 0 0 0 0.360784 0 0 0 0 0.360784 0 0 0 0.73 0"/>
      <feBlend mode="normal" in2="BackgroundImageFix" result="effect1_dropShadow_5841_30148"/>
      <feBlend mode="normal" in="SourceGraphic" in2="effect1_dropShadow_5841_30148" result="shape"/>
    </filter>
  </defs>
</svg>