<svg xmlns="http://www.w3.org/2000/svg" width="48" height="48" viewBox="0 0 48 48" fill="none">
  <path fillRule="evenodd" clipRule="evenodd" d="M23.9984 6.22455C34.2046 6.22455 42.4784 14.5917 42.4784 24.913C42.4784 35.2344 34.2046 43.6016 23.9984 43.6016C13.7922 43.6016 5.5184 35.2345 5.5184 24.913C5.5184 14.5916 13.792 6.22455 23.9984 6.22455Z" fill="#C03636"/>
  <path fillRule="evenodd" clipRule="evenodd" d="M24.0658 4.3212C34.2347 4.3212 42.4782 12.6564 42.4782 22.9383C42.4782 33.2202 34.2347 41.5554 24.0658 41.5554C13.897 41.5554 5.65344 33.2202 5.65344 22.9383C5.65344 12.6564 13.897 4.3212 24.0658 4.3212Z" fill="#E05F5F"/>
  <path fillRule="evenodd" clipRule="evenodd" d="M24.1886 8.53601C32.1232 8.53601 38.5555 15.0134 38.5555 23.0036C38.5555 30.9939 32.1234 37.4713 24.1886 37.4713C16.2538 37.4713 9.82193 30.9936 9.82193 23.0033C9.82193 15.013 16.2542 8.53601 24.1886 8.53601Z" fill="#D04545"/>
  <path fillRule="evenodd" clipRule="evenodd" d="M24.6134 30.6944C24.6134 30.6944 24.0096 25.5751 29.004 25.2023C32.2474 24.9603 33.4407 23.2623 33.3519 24.4806C33.2631 25.6988 30.4573 33.913 24.6134 30.6944Z" fill="#C02E2E"/>
  <path fillRule="evenodd" clipRule="evenodd" d="M23.7078 30.6071C23.7078 30.6071 24.3171 25.4334 19.2758 25.0564C16.0017 24.8116 14.797 23.0955 14.8867 24.3268C14.9764 25.5581 17.8089 33.8597 23.7078 30.6071Z" fill="#C02E2E"/>
  <path fillRule="evenodd" clipRule="evenodd" d="M24.0013 25.6793C21.1169 25.5993 16.4721 20.5666 23.6477 12.96C31.8785 20.0822 26.8856 25.7595 24.0013 25.6793Z" fill="#F57474"/>
  <path fillRule="evenodd" clipRule="evenodd" d="M23.1489 25.1594C21.6483 23.8523 21.3809 19.1366 28.5361 18.2314C29.7969 25.632 24.6497 26.4665 23.1489 25.1594Z" fill="#FC6666"/>
  <path opacity="0.3" fillRule="evenodd" clipRule="evenodd" d="M24.0658 4.3212C34.2347 4.3212 42.4782 12.6564 42.4782 22.9383C42.4837 25.4102 41.9981 27.8585 41.0496 30.1411C40.1011 32.4237 38.7085 34.4952 36.9529 36.2352C11.1806 9.8112 36.9589 36.1927 11.1105 9.70944C12.8077 8.00106 14.8262 6.64544 17.0497 5.72067C19.2732 4.7959 21.6577 4.32028 24.0658 4.3212Z" fill="#FFFFF0"/>
</svg>