<svg xmlns="http://www.w3.org/2000/svg" width="32" height="32" viewBox="0 0 32 32" fill="none">
  <g clip-path="url(#clip0_5744_19183)">
    <path d="M16 0C7.1625 0 0 7.1625 0 16C0 24.8375 7.1625 32 16 32C24.8375 32 32 24.8375 32 16C32 7.1625 24.8375 0 16 0ZM25.9875 25.9813C24.6875 27.2812 23.1812 28.3 21.5 29.0062C19.7625 29.7437 17.9125 30.1125 16 30.1125C14.0938 30.1125 12.2437 29.7375 10.5 29.0062C8.81875 28.2937 7.30625 27.275 6.0125 25.9813C4.7125 24.6813 3.69375 23.175 2.9875 21.4937C2.25 19.7563 1.875 17.9062 1.875 16C1.875 14.0938 2.25 12.2437 2.98125 10.5C3.69375 8.81875 4.7125 7.30625 6.00625 6.0125C7.3125 4.7125 8.81875 3.69375 10.5 2.98125C12.2437 2.25 14.0938 1.875 16 1.875C17.9062 1.875 19.7563 2.25 21.5 2.98125C23.1812 3.69375 24.6937 4.7125 25.9875 6.00625C27.2875 7.30625 28.3063 8.8125 29.0125 10.4937C29.75 12.2312 30.1187 14.0812 30.1187 15.9937C30.1187 17.9 29.7438 19.75 29.0125 21.4937C28.3 23.175 27.2812 24.6875 25.9875 25.9813Z" fill="#80921A"/>
    <path d="M11.525 12.7125H8.40625V22.6937H11.525V12.7125Z" fill="#80921A"/>
    <path d="M9.90002 8C8.75002 8 7.99377 8.74375 7.99377 9.73125C7.99377 10.7 8.72502 11.4625 9.85627 11.4625H9.88127C11.0563 11.4625 11.7875 10.6938 11.7813 9.73125C11.7563 8.74375 11.05 8 9.90002 8Z" fill="#80921A"/>
    <path d="M20.0437 12.6187C18.2562 12.6187 17.1375 13.5937 16.9312 14.2812V12.7125H13.425C13.4687 13.5437 13.425 22.6937 13.425 22.6937H16.9312V17.3C16.9312 16.9937 16.9187 16.6937 17.0062 16.4812C17.2437 15.8812 17.7625 15.2562 18.6937 15.2562C19.9125 15.2562 20.4625 16.1812 20.4625 17.5312V22.6937H24V17.1437C24 14.0562 22.2625 12.6187 20.0437 12.6187Z" fill="#80921A"/>
  </g>
  <defs>
    <clipPath id="clip0_5744_19183">
      <rect width="32" height="32" fill="white"/>
    </clipPath>
  </defs>
</svg>