<svg width="507" height="169" viewBox="0 0 507 169" fill="none" xmlns="http://www.w3.org/2000/svg">
<ellipse cx="47.2708" cy="162.821" rx="47.2708" ry="5.25231" fill="#E8E8E8"/>
<path d="M94.0302 116.059C94.0302 142.024 72.9808 163.074 47.0151 163.074C21.0494 163.074 0 142.024 0 116.059C0 101.358 6.74674 88.2338 17.3127 79.6125C30.8101 66.9924 21.005 62.7257 37.087 38.931C53.0025 15.3824 67.2805 28.2644 65.5586 40.49C62.7215 60.6335 71.1791 74.1111 76.8816 79.4231C88.9491 90.6641 94.0302 101.358 94.0302 116.059Z" fill="#CBE81B"/>
<path d="M80.6564 83.0737C74.2153 76.7969 71.6718 74.1712 66.6257 61.3713C56.6155 60.2226 48.4661 65.72 45.4566 73.5969C42.0395 82.5404 46.8925 91.1147 49.7232 93.6994C50.5612 94.4644 50.913 94.9301 53.3745 96.6122C57.379 99.3486 62.1995 104.776 64.0821 109.412C74.4616 134.971 55.5078 152.24 42.5848 154.991C25.4362 158.643 12.8842 151.094 5.99011 139.073C15.9183 156.837 33.3541 162.224 42.995 162.909C70.1128 164.837 82.9524 147.976 88.093 139.115C98.7075 120.817 95.9044 97.9331 80.6564 83.0737Z" fill="#C0D921"/>
<path d="M68.9614 10.3148C64.589 14.4492 64.8653 20.2862 63.7882 24.6015C68.2864 26.5701 73.6872 26.1249 75.2551 25.7552C81.8148 24.2085 86.9604 19.0787 92.3925 5.71978C79.5481 9.40575 75.5066 4.12612 68.9614 10.3148Z" fill="#CBE81B"/>
<path d="M59.1054 14.6758C60.6457 17.1271 59.8464 19.8329 59.8463 21.9832C57.5454 22.3799 55.1061 21.5387 54.4256 21.1816C51.5788 19.688 49.7964 16.6791 48.8293 9.77656C54.3281 13.0097 56.7996 11.0063 59.1054 14.6758Z" fill="#CBE81B"/>
<path d="M128.834 119.595V60.8126H153.137C153.708 60.8126 154.444 60.8398 155.342 60.8942C156.241 60.9214 157.071 61.0031 157.834 61.1392C161.238 61.6562 164.042 62.7856 166.248 64.5273C168.481 66.269 170.128 68.4734 171.19 71.1404C172.279 73.7801 172.824 76.7193 172.824 79.9577C172.824 83.169 172.279 86.1081 171.19 88.7751C170.101 91.4149 168.44 93.6056 166.207 95.3474C164.001 97.0891 161.21 98.2184 157.834 98.7355C157.071 98.8444 156.227 98.926 155.301 98.9804C154.403 99.0349 153.681 99.0621 153.137 99.0621H138.677V119.595H128.834ZM138.677 89.8773H152.728C153.273 89.8773 153.885 89.8501 154.566 89.7957C155.247 89.7412 155.873 89.6324 156.445 89.4691C158.079 89.0609 159.359 88.3397 160.284 87.3056C161.238 86.2714 161.905 85.1012 162.286 83.7949C162.694 82.4887 162.899 81.2096 162.899 79.9577C162.899 78.7059 162.694 77.4268 162.286 76.1206C161.905 74.7871 161.238 73.6032 160.284 72.5691C159.359 71.535 158.079 70.8138 156.445 70.4056C155.873 70.2423 155.247 70.147 154.566 70.1198C153.885 70.0654 153.273 70.0382 152.728 70.0382H138.677V89.8773Z" fill="#E06060"/>
<path d="M198.71 120.82C194.245 120.82 190.323 119.854 186.947 117.921C183.57 115.989 180.929 113.309 179.023 109.88C177.144 106.451 176.205 102.505 176.205 98.0416C176.205 93.2247 177.13 89.0473 178.982 85.5094C180.834 81.9444 183.407 79.1821 186.702 77.2227C189.997 75.2633 193.809 74.2836 198.138 74.2836C202.713 74.2836 206.593 75.3586 209.779 77.5085C212.993 79.6312 215.375 82.6383 216.927 86.53C218.479 90.4216 219.065 95.0072 218.684 100.287H208.922V96.6945C208.894 91.9048 208.05 88.4077 206.389 86.2034C204.728 83.9991 202.114 82.8969 198.547 82.8969C194.517 82.8969 191.522 84.1487 189.561 86.6524C187.6 89.1289 186.62 92.762 186.62 97.5517C186.62 102.015 187.6 105.471 189.561 107.92C191.522 110.37 194.381 111.594 198.138 111.594C200.562 111.594 202.645 111.064 204.388 110.002C206.158 108.914 207.519 107.349 208.472 105.308L218.194 108.247C216.505 112.22 213.891 115.309 210.351 117.513C206.839 119.718 202.958 120.82 198.71 120.82ZM183.516 100.287V92.8573H213.864V100.287H183.516Z" fill="#E06060"/>
<path d="M237.701 120.82C234.515 120.82 231.819 120.221 229.614 119.024C227.408 117.799 225.733 116.18 224.59 114.166C223.473 112.152 222.915 109.934 222.915 107.512C222.915 105.389 223.269 103.484 223.977 101.797C224.685 100.083 225.774 98.6131 227.245 97.3884C228.715 96.1366 230.621 95.116 232.963 94.3268C234.733 93.7553 236.802 93.2383 239.171 92.7756C241.568 92.313 244.155 91.8912 246.932 91.5102C249.737 91.1019 252.664 90.6665 255.714 90.2039L252.201 92.2041C252.228 89.1561 251.548 86.911 250.159 85.4686C248.77 84.0263 246.428 83.3051 243.133 83.3051C241.146 83.3051 239.226 83.7677 237.374 84.693C235.523 85.6183 234.229 87.2103 233.494 89.4691L224.508 86.6524C225.597 82.9241 227.667 79.9305 230.716 77.6718C233.793 75.413 237.932 74.2836 243.133 74.2836C247.055 74.2836 250.499 74.9231 253.467 76.2022C256.463 77.4813 258.682 79.5767 260.125 82.4887C260.915 84.0399 261.391 85.6319 261.555 87.2647C261.718 88.8704 261.8 90.6257 261.8 92.5307V119.595H253.181V110.043L254.611 111.594C252.623 114.778 250.295 117.119 247.626 118.615C244.985 120.085 241.677 120.82 237.701 120.82ZM239.662 112.982C241.894 112.982 243.801 112.588 245.38 111.798C246.959 111.009 248.212 110.043 249.138 108.9C250.091 107.757 250.731 106.682 251.057 105.675C251.575 104.423 251.861 102.995 251.915 101.389C251.997 99.7561 252.038 98.4362 252.038 97.4292L255.06 98.3273C252.092 98.7899 249.546 99.1982 247.422 99.5519C245.298 99.9057 243.474 100.246 241.949 100.572C240.424 100.872 239.076 101.212 237.905 101.593C236.762 102.001 235.795 102.477 235.005 103.022C234.216 103.566 233.603 104.192 233.167 104.9C232.759 105.607 232.554 106.437 232.554 107.39C232.554 108.478 232.827 109.444 233.371 110.288C233.916 111.104 234.706 111.757 235.74 112.247C236.802 112.737 238.109 112.982 239.662 112.982Z" fill="#E06060"/>
<path d="M270.8 119.595V75.5082H279.5V86.2442L278.438 84.8563C278.982 83.3867 279.704 82.0532 280.603 80.8558C281.528 79.6312 282.631 78.6243 283.911 77.835C285 77.1003 286.198 76.5288 287.505 76.1206C288.84 75.6851 290.201 75.4266 291.59 75.3449C292.979 75.2361 294.327 75.2905 295.634 75.5082V84.693C294.327 84.312 292.815 84.1896 291.1 84.3256C289.412 84.4617 287.887 84.9379 286.525 85.7544C285.164 86.4891 284.047 87.428 283.176 88.571C282.332 89.714 281.705 91.0203 281.297 92.4899C280.889 93.9322 280.684 95.497 280.684 97.1843V119.595H270.8Z" fill="#E06060"/>
<path d="M354.771 119.595V92.8164C354.771 89.7957 354.022 87.4416 352.524 85.7544C351.027 84.0399 348.998 83.1826 346.438 83.1826C344.859 83.1826 343.443 83.55 342.19 84.2848C340.938 84.9924 339.944 86.0537 339.209 87.4689C338.473 88.8568 338.106 90.5168 338.106 92.449L333.735 89.8773C333.708 86.8293 334.389 84.1487 335.778 81.8355C337.194 79.4951 339.1 77.6718 341.496 76.3655C343.892 75.0592 346.561 74.4061 349.502 74.4061C354.376 74.4061 358.106 75.8756 360.693 78.8148C363.307 81.7267 364.614 85.5639 364.614 90.3263V119.595H354.771ZM301.713 119.595V75.5082H310.413V89.1833H311.638V119.595H301.713ZM328.303 119.595V92.9389C328.303 89.8637 327.554 87.4689 326.056 85.7544C324.559 84.0399 322.516 83.1826 319.93 83.1826C317.424 83.1826 315.409 84.0399 313.885 85.7544C312.387 87.4689 311.638 89.7004 311.638 92.449L307.227 89.5099C307.227 86.6524 307.935 84.0807 309.351 81.7947C310.767 79.5087 312.673 77.7126 315.069 76.4063C317.493 75.0728 320.202 74.4061 323.197 74.4061C326.492 74.4061 329.242 75.1136 331.448 76.5288C333.681 77.9167 335.342 79.8217 336.431 82.2437C337.548 84.6386 338.106 87.3464 338.106 90.3672V119.595H328.303Z" fill="#E06060"/>
<path d="M392.399 120.82C387.988 120.82 384.135 119.826 380.84 117.84C377.545 115.853 374.986 113.118 373.161 109.635C371.364 106.124 370.465 102.096 370.465 97.5517C370.465 92.9253 371.391 88.8704 373.243 85.387C375.095 81.9036 377.668 79.1821 380.963 77.2227C384.258 75.2633 388.07 74.2836 392.399 74.2836C396.838 74.2836 400.705 75.2769 403.999 77.2635C407.294 79.2502 409.854 81.9988 411.678 85.5094C413.503 88.9929 414.415 93.0069 414.415 97.5517C414.415 102.124 413.489 106.165 411.638 109.676C409.813 113.159 407.254 115.894 403.959 117.881C400.664 119.84 396.811 120.82 392.399 120.82ZM392.399 111.594C396.321 111.594 399.234 110.288 401.14 107.675C403.046 105.063 403.999 101.688 403.999 97.5517C403.999 93.2791 403.033 89.8773 401.099 87.3464C399.166 84.7883 396.266 83.5092 392.399 83.5092C389.758 83.5092 387.58 84.1079 385.864 85.3053C384.176 86.4755 382.923 88.122 382.106 90.2447C381.289 92.3402 380.881 94.7759 380.881 97.5517C380.881 101.824 381.848 105.24 383.781 107.798C385.742 110.329 388.614 111.594 392.399 111.594Z" fill="#E06060"/>
<path d="M440.937 120.82C436.39 120.82 432.509 119.813 429.296 117.799C426.083 115.758 423.619 112.982 421.903 109.472C420.215 105.961 419.357 101.988 419.33 97.5517C419.357 93.0342 420.242 89.0337 421.985 85.5503C423.755 82.0396 426.26 79.291 429.5 77.3044C432.741 75.2905 436.594 74.2836 441.06 74.2836C446.07 74.2836 450.304 75.5491 453.762 78.08C457.248 80.5837 459.522 84.0127 460.584 88.3669L450.781 91.0203C450.018 88.6527 448.752 86.8157 446.982 85.5094C445.212 84.1759 443.197 83.5092 440.937 83.5092C438.377 83.5092 436.267 84.1215 434.606 85.3462C432.945 86.5436 431.72 88.2036 430.93 90.3263C430.14 92.449 429.745 94.8575 429.745 97.5517C429.745 101.743 430.685 105.131 432.564 107.716C434.443 110.302 437.234 111.594 440.937 111.594C443.551 111.594 445.607 110.995 447.105 109.798C448.63 108.601 449.773 106.873 450.536 104.614L460.584 106.859C459.222 111.349 456.84 114.805 453.436 117.228C450.032 119.622 445.866 120.82 440.937 120.82Z" fill="#E06060"/>
<path d="M467.053 119.595L467.135 60.8126H477.101V96.7353L493.235 75.5082H505.529L488.415 97.5517L507 119.595H493.97L477.101 98.3681V119.595H467.053Z" fill="#E06060"/>
</svg>
