<svg width="624" height="425" viewBox="0 0 624 425" fill="none" xmlns="http://www.w3.org/2000/svg">
<path d="M552.242 199.585H80.6724V423.657H552.242V199.585Z" fill="#E6E6E6"/>
<path d="M538.758 218.8H94.1572V405.75H538.758V218.8Z" fill="white"/>
<path d="M464.406 253.597H452.894V265.126H464.406V253.597Z" fill="#E6E6E6"/>
<path d="M157.32 253.597H145.808V265.126H157.32V253.597Z" fill="#F64B4B"/>
<path d="M183.851 286.62H145.474V325.049H183.851V286.62Z" fill="#E6E6E6"/>
<path d="M552.042 186.639H80.4717V206.7H552.042V186.639Z" fill="#F64B4B"/>
<path d="M95.3587 204.839C97.4094 204.839 99.0718 203.174 99.0718 201.12C99.0718 199.067 97.4094 197.402 95.3587 197.402C93.308 197.402 91.6455 199.067 91.6455 201.12C91.6455 203.174 93.308 204.839 95.3587 204.839Z" fill="white"/>
<path d="M109.453 204.839C111.504 204.839 113.166 203.174 113.166 201.12C113.166 199.067 111.504 197.402 109.453 197.402C107.402 197.402 105.74 199.067 105.74 201.12C105.74 203.174 107.402 204.839 109.453 204.839Z" fill="white"/>
<path d="M123.548 204.839C125.598 204.839 127.261 203.174 127.261 201.12C127.261 199.067 125.598 197.402 123.548 197.402C121.497 197.402 119.834 199.067 119.834 201.12C119.834 203.174 121.497 204.839 123.548 204.839Z" fill="white"/>
<path d="M317.676 290.463H223.653V295.868H317.676V290.463Z" fill="#E6E6E6"/>
<path d="M368.845 310.178H223.653V315.583H368.845V310.178Z" fill="#F64B4B"/>
<path d="M341.981 328.751H223.653V334.155H341.981V328.751Z" fill="#E6E6E6"/>
<path d="M292.731 347.255H223.653V352.66H292.731V347.255Z" fill="#E6E6E6"/>
<path d="M327.91 365.758H223.653V371.163H327.91V365.758Z" fill="#E6E6E6"/>
<path d="M484.235 253.597H472.722V265.126H484.235V253.597Z" fill="#E6E6E6"/>
<path d="M504.063 253.597H492.55V265.126H504.063V253.597Z" fill="#E6E6E6"/>
<path opacity="0.997" d="M480.681 352.659C493.594 352.659 504.062 342.177 504.062 329.247C504.062 316.316 493.594 305.834 480.681 305.834C467.768 305.834 457.3 316.316 457.3 329.247C457.3 342.177 467.768 352.659 480.681 352.659Z" fill="#F64B4B"/>
<path d="M126.334 63.3954C140.871 63.3954 152.656 51.5944 152.656 37.037C152.656 22.4797 140.871 10.6787 126.334 10.6787C111.796 10.6787 100.011 22.4797 100.011 37.037C100.011 51.5944 111.796 63.3954 126.334 63.3954Z" fill="#2F2E41"/>
<path d="M60.8265 262.563H49.2982L43.8149 218.047H60.8252L60.8265 262.563Z" fill="#FCC5C5"/>
<path d="M41.0692 259.265H63.2966V273.279H27.0737C27.0737 269.562 28.5482 265.998 31.1729 263.369C33.7975 260.741 37.3573 259.265 41.0692 259.265Z" fill="#2F2E41"/>
<path d="M42.8349 256.122L31.8389 252.666L39.9167 208.547L56.1461 213.648L42.8349 256.122Z" fill="#FCC5C5"/>
<path d="M24.9636 247.053L46.1719 253.718L41.9813 267.089L7.42041 256.228C7.97072 254.472 8.86104 252.842 10.0405 251.431C11.22 250.019 12.6656 248.854 14.2947 248.002C15.9238 247.15 17.7045 246.628 19.5352 246.465C21.3659 246.302 23.2107 246.502 24.9643 247.053L24.9636 247.053Z" fill="#2F2E41"/>
<path d="M46.5853 238.358C46.0817 238.358 45.5822 238.267 45.1108 238.09L36.6288 234.906C35.6769 234.546 34.8861 233.854 34.4005 232.959C33.9149 232.063 33.7669 231.022 33.9834 230.026C36.1181 220.415 43.3936 187.692 47.3776 170.14C52.1021 149.322 121.028 145.453 123.959 145.299L124.201 145.286L131.954 155.039C134.756 164.056 133.868 171.09 129.315 175.945C116.028 190.11 76.3611 181.321 71.6312 180.208L50.5485 235.631C50.2413 236.433 49.6982 237.123 48.991 237.61C48.2838 238.097 47.4457 238.358 46.5874 238.358H46.5853Z" fill="#2F2E41"/>
<path d="M58.8064 244.948C58.3028 244.948 57.8033 244.857 57.3319 244.68L48.8526 241.496C47.9006 241.135 47.1097 240.444 46.6241 239.548C46.1385 238.652 45.9905 237.612 46.2071 236.616C48.3418 227.004 55.6174 194.281 59.6013 176.73C64.3259 155.911 133.251 152.043 136.183 151.888L136.424 151.875L144.175 161.631C146.977 170.648 146.089 177.682 141.536 182.537C128.25 196.699 88.5821 187.913 83.8522 186.8L62.7669 242.22C62.4597 243.022 61.9166 243.713 61.2093 244.2C60.5021 244.687 59.664 244.947 58.8057 244.947L58.8064 244.948Z" fill="#2F2E41"/>
<path d="M34.2752 109.368C34.5866 109.786 34.8647 110.227 35.107 110.688L81.4733 115.579L88.149 106.415L103.276 114.694L90.1664 136.931L33.302 122.412C31.8673 123.813 30.0408 124.743 28.0654 125.079C26.0899 125.415 24.0592 125.14 22.2433 124.292C20.4273 123.444 18.9122 122.063 17.8995 120.331C16.8868 118.6 16.4244 116.601 16.5739 114.6C16.7234 112.599 17.4776 110.692 18.7363 109.13C19.995 107.569 21.6985 106.429 23.6202 105.861C25.542 105.293 27.5908 105.324 29.4944 105.95C31.3979 106.577 33.0659 107.769 34.2765 109.368L34.2752 109.368Z" fill="#FEB8B8"/>
<path d="M142.023 165.365C141.352 165.364 140.692 165.203 140.096 164.895C130.824 160.174 112.771 151.999 96.0291 150.288C95.4562 150.232 94.9013 150.056 94.4001 149.773C93.8989 149.489 93.4625 149.104 93.1189 148.641C92.7686 148.174 92.5182 147.639 92.3834 147.071C92.2486 146.502 92.2323 145.912 92.3354 145.336C93.8461 136.962 97.3113 115.638 96.8649 98.5488C96.7335 93.2941 98.3914 88.151 101.566 83.965C104.741 79.779 109.243 76.7991 114.334 75.5153C117.397 74.7059 120.509 74.0914 123.65 73.6757C127.261 73.2177 130.93 73.613 134.361 74.83C137.792 76.0469 140.891 78.0517 143.41 80.6836C145.928 83.3156 147.796 86.5016 148.864 89.9864C149.932 93.4713 150.17 97.1581 149.558 100.752C146.573 118.462 143.563 143.198 146.179 160.466C146.299 161.24 146.203 162.032 145.901 162.754C145.599 163.477 145.104 164.102 144.469 164.56C143.759 165.08 142.903 165.362 142.023 165.365Z" fill="#CCCCCC"/>
<path d="M97.7236 120.318C97.1456 120.317 96.574 120.198 96.0439 119.967L83.9654 114.732C82.9366 114.285 82.127 113.447 81.7142 112.403C81.3014 111.359 81.3192 110.193 81.7637 109.162L91.1002 87.5646C91.6548 86.2559 92.4614 85.0694 93.4739 84.0728C94.4864 83.0763 95.6851 82.2892 97.0014 81.7565C98.3177 81.2238 99.7258 80.9559 101.146 80.9682C102.565 80.9804 103.969 81.2726 105.276 81.8279C106.582 82.3833 107.767 83.191 108.763 84.2049C109.758 85.2188 110.544 86.419 111.076 87.7371C111.608 89.0552 111.875 90.4653 111.863 91.8869C111.851 93.3085 111.559 94.7138 111.004 96.0225C110.984 96.0701 110.964 96.1175 110.943 96.1648L101.606 117.763C101.278 118.521 100.735 119.166 100.046 119.62C99.3559 120.074 98.5489 120.317 97.7236 120.318Z" fill="#CCCCCC"/>
<path d="M125.372 66.3286C138.125 66.3286 148.462 55.9769 148.462 43.2073C148.462 30.4377 138.125 20.0859 125.372 20.0859C112.62 20.0859 102.282 30.4377 102.282 43.2073C102.282 55.9769 112.62 66.3286 125.372 66.3286Z" fill="#FCC5C5"/>
<path d="M101.867 31.845C112.804 38.5305 125.134 42.5988 137.897 43.7332L134.099 39.1767C136.864 40.2005 139.774 40.7791 142.72 40.8908C144.195 40.9337 145.66 40.6296 146.997 40.0031C148.333 39.3767 149.505 38.4451 150.417 37.2834C151.161 36.0775 151.604 34.7092 151.706 33.2951C151.808 31.881 151.568 30.4632 151.005 29.1624C149.847 26.5669 148.046 24.3111 145.772 22.6099C141.741 19.4169 136.984 17.2722 131.925 16.3667C126.865 15.4613 121.661 15.8233 116.775 17.4205C113.423 18.4234 110.422 20.3514 108.114 22.9837C105.925 25.6878 101.711 28.0972 102.832 31.392L101.867 31.845Z" fill="#2F2E41"/>
<path d="M127.437 12.3674C132.039 7.69279 137.609 4.08522 143.754 1.79873C147.654 0.155702 151.932 -0.375962 156.115 0.262451C160.239 1.09334 164.139 3.94979 165.289 8.00156C166.228 11.3144 165.259 14.8816 163.799 18.0018C162.339 21.122 160.39 24.0127 159.209 27.2477C158.004 30.5486 157.642 34.0985 158.155 37.5752C158.668 41.052 160.04 44.3453 162.146 47.1564C164.253 49.9675 167.027 52.2072 170.217 53.6722C173.407 55.1373 176.912 55.7812 180.414 55.5457C176.363 56.09 172.628 57.9967 168.667 59.0108C164.707 60.0249 160.033 59.9572 157.09 57.1155C153.976 54.1094 153.913 49.222 154.064 44.8937L154.734 25.5899C154.848 22.3086 154.946 18.922 153.764 15.8581C152.582 12.7943 149.773 10.113 146.494 10.1412C144.009 10.162 141.81 11.6701 139.817 13.1567C137.823 14.6433 135.714 16.2293 133.239 16.4508C130.764 16.6722 127.937 14.84 128.122 12.3567" fill="#2F2E41"/>
<path d="M86.5518 159.425C85.0219 159.423 83.5114 159.082 82.1293 158.425C80.7471 157.768 79.5276 156.812 78.5587 155.627C77.5897 154.441 76.8954 153.055 76.5257 151.569C76.1561 150.082 76.1203 148.532 76.421 147.03C76.7217 145.528 77.3513 144.111 78.2645 142.882C79.1778 141.653 80.3518 140.642 81.7022 139.922C83.0526 139.202 84.5457 138.791 86.0739 138.718C87.602 138.646 89.1273 138.913 90.5397 139.502C90.9646 139.682 91.3764 139.891 91.7723 140.127L133.834 121.22L135.015 109.797L153.146 109.311L153.026 128.328C153.004 130.532 152.273 132.669 150.942 134.423C149.61 136.178 147.749 137.455 145.635 138.066L96.4493 152.083C96.3544 152.409 96.2425 152.729 96.1142 153.042C95.325 154.93 93.9971 156.542 92.297 157.678C90.5968 158.813 88.5999 159.421 86.5564 159.424L86.5518 159.425Z" fill="#FCC5C5"/>
<path d="M151.611 118.629C151.095 118.891 150.532 119.043 149.955 119.078L136.818 119.887C135.698 119.954 134.598 119.574 133.758 118.831C132.917 118.087 132.406 117.04 132.336 115.919L130.894 92.4282C130.721 89.5643 131.691 86.7488 133.59 84.6003C135.489 82.4519 138.162 81.1461 141.022 80.9699C143.882 80.7937 146.695 81.7615 148.842 83.6607C150.99 85.5599 152.297 88.2351 152.476 91.0986L153.919 114.589C153.969 115.414 153.777 116.236 153.367 116.954C152.958 117.672 152.348 118.254 151.612 118.629H151.611Z" fill="#CCCCCC"/>
<path d="M125.158 155.21H46.6927C46.0345 155.21 45.501 155.745 45.501 156.404V160.607C45.501 161.266 46.0345 161.8 46.6927 161.8H125.158C125.816 161.8 126.35 161.266 126.35 160.607V156.404C126.35 155.745 125.816 155.21 125.158 155.21Z" fill="#3F3D56"/>
<path d="M15.3516 155.682V109.554C15.3535 107.931 15.9979 106.376 17.1435 105.229C18.289 104.082 19.8422 103.437 21.4622 103.435H105.131C106.751 103.437 108.304 104.082 109.45 105.229C110.596 106.376 111.24 107.931 111.242 109.554V155.682C111.24 157.304 110.596 158.859 109.45 160.006C108.304 161.154 106.751 161.799 105.131 161.801H21.4622C19.8422 161.799 18.289 161.153 17.1435 160.006C15.9979 158.859 15.3535 157.304 15.3516 155.682Z" fill="#3F3D56"/>
<path d="M64.3029 138.269C67.4182 138.269 69.9437 135.74 69.9437 132.62C69.9437 129.501 67.4182 126.972 64.3029 126.972C61.1876 126.972 58.6621 129.501 58.6621 132.62C58.6621 135.74 61.1876 138.269 64.3029 138.269Z" fill="white"/>
</svg>
