<svg xmlns="http://www.w3.org/2000/svg" width="36" height="36" viewBox="0 0 36 36" fill="none">
  <g clip-path="url(#clip0_5876_39208)">
    <path d="M18 36C27.9411 36 36 27.9411 36 18C36 8.05888 27.9411 0 18 0C8.05888 0 0 8.05888 0 18C0 27.9411 8.05888 36 18 36Z" fill="#FF4500"/>
    <path d="M30.006 18C30.0096 18.2466 29.979 18.4928 29.9142 18.7308C29.8494 18.9688 29.7513 19.197 29.6226 19.4076C29.4944 19.6182 29.3369 19.8099 29.1551 19.9768C28.9733 20.1438 28.769 20.2842 28.548 20.394C28.553 20.4597 28.557 20.5259 28.5593 20.592C28.5647 20.7239 28.5647 20.8561 28.5593 20.988C28.557 21.0541 28.553 21.1203 28.548 21.186C28.548 25.218 23.85 28.494 18.054 28.494C12.258 28.494 7.56002 25.218 7.56002 21.186C7.55508 21.1203 7.55103 21.0541 7.54877 20.988C7.54336 20.8561 7.54336 20.7239 7.54877 20.592C7.55103 20.5259 7.55508 20.4597 7.56002 20.394C7.21386 20.2349 6.90641 20.0025 6.65894 19.7128C6.41147 19.4231 6.22989 19.0832 6.12677 18.7164C6.02383 18.3495 6.0019 17.9646 6.06251 17.5883C6.12312 17.2121 6.26481 16.8535 6.47777 16.5375C6.69055 16.2215 6.96953 15.9556 7.29535 15.7582C7.62117 15.5609 7.98604 15.4368 8.36463 15.3945C8.74326 15.3521 9.1266 15.3925 9.48808 15.5129C9.84955 15.6333 10.1805 15.8309 10.458 16.092C10.9732 15.7428 11.513 15.4314 12.0731 15.1601C12.6333 14.8892 13.2125 14.6588 13.806 14.4715C14.3996 14.2843 15.0062 14.1408 15.6204 14.0413C16.2347 13.9419 16.8557 13.8874 17.478 13.878L18.81 7.632C18.8249 7.55955 18.8541 7.49115 18.896 7.42995C18.9374 7.3692 18.9909 7.317 19.0526 7.27695C19.1147 7.2369 19.184 7.20945 19.2569 7.19595C19.3293 7.1829 19.404 7.18425 19.476 7.2L23.886 8.082C24.3311 7.31745 25.2653 6.98985 26.0901 7.30845C26.915 7.62705 27.3866 8.4978 27.2021 9.3627C27.018 10.2276 26.2323 10.8306 25.3494 10.7852C24.4661 10.7397 23.7465 10.0593 23.652 9.18L19.8 8.37L18.63 13.986C19.2447 13.999 19.8581 14.0566 20.4647 14.1579C21.6794 14.3604 22.8586 14.7372 23.9657 15.2766C24.5186 15.5457 25.0514 15.8543 25.56 16.2C25.9257 15.8489 26.3852 15.6112 26.883 15.5156C27.3809 15.4196 27.8958 15.4697 28.3658 15.66C28.8358 15.8502 29.2407 16.1723 29.5317 16.5874C29.8228 17.0027 29.9876 17.4932 30.006 18ZM12.1428 20.4889C12.2337 20.7072 12.366 20.9056 12.5334 21.0726C12.7004 21.24 12.8988 21.3723 13.1171 21.4632C13.3355 21.5535 13.5696 21.6 13.806 21.6C14.5341 21.6 15.1902 21.1613 15.4692 20.4889C15.7478 19.8162 15.5934 19.0422 15.0786 18.5274C14.5638 18.0126 13.7898 17.8582 13.1171 18.1368C12.4448 18.4158 12.006 19.0719 12.006 19.8C12.006 20.0363 12.0524 20.2702 12.1428 20.4889ZM22.4523 24.8099C22.5446 24.7199 22.5972 24.597 22.599 24.4683C22.6008 24.3391 22.5509 24.215 22.4609 24.1227C22.3709 24.0304 22.248 23.9778 22.1193 23.976C21.9902 23.9742 21.866 24.0241 21.762 24.102C21.4914 24.2961 21.2047 24.467 20.9052 24.6128C20.6057 24.7586 20.2944 24.8789 19.9746 24.9723C19.6551 25.0654 19.328 25.1316 18.9972 25.1698C18.666 25.2081 18.3326 25.218 18 25.2C17.6679 25.2148 17.3349 25.2013 17.0051 25.1599C16.6751 25.119 16.3493 25.0497 16.0313 24.9529C15.7127 24.8566 15.4035 24.7334 15.1061 24.5849C14.8086 24.4363 14.5242 24.2626 14.256 24.066C14.1629 23.9895 14.0445 23.9503 13.9239 23.9562C13.8033 23.962 13.6895 24.0129 13.604 24.0979C13.5189 24.1835 13.4681 24.2973 13.4622 24.4179C13.4564 24.5385 13.4955 24.6569 13.572 24.75C13.8884 24.9885 14.2245 25.1991 14.5769 25.38C14.9292 25.5609 15.2969 25.7107 15.6749 25.8286C16.0529 25.9465 16.4403 26.0316 16.8332 26.0833C17.226 26.1346 17.6225 26.1522 18.018 26.136C18.4136 26.1522 18.81 26.1346 19.2029 26.0833C19.9897 25.9799 20.7529 25.7419 21.4592 25.38C21.8115 25.1991 22.1477 24.9885 22.464 24.75L22.4523 24.8099ZM22.122 21.744C22.3659 21.7467 22.608 21.6995 22.8335 21.6059C23.0589 21.5118 23.2628 21.3732 23.4329 21.1981C23.603 21.0231 23.7353 20.8152 23.8226 20.587C23.9099 20.3592 23.9499 20.1159 23.94 19.872C23.94 19.1439 23.5013 18.4878 22.829 18.2088C22.1562 17.9303 21.3822 18.0846 20.8674 18.5994C20.3526 19.1142 20.1983 19.8882 20.4768 20.561C20.7558 21.2333 21.4119 21.672 22.14 21.672L22.122 21.744Z" fill="white"/>
  </g>
  <defs>
    <clipPath id="clip0_5876_39208">
      <rect width="36" height="36" fill="white"/>
    </clipPath>
  </defs>
</svg>