<svg width="548" height="360" viewBox="0 0 548 360" fill="none" xmlns="http://www.w3.org/2000/svg">
<g clip-path="url(#clip0_3859_51763)">
<path d="M469.422 351.64L469.437 357.486V358.721H458.15V356.868L458.143 334.008L458.128 311.86V307.794L458.121 291.308L458.113 291.044L456.15 235.535V235.491L454.15 178.909V178.901L454.099 177.365L444.356 182.534L432.342 188.909L426.636 191.938L418.49 196.255L404.755 203.549H404.747L333.514 241.337L333.367 357.486V358.721H322.47L322.426 357.486L318.808 245.748L213.753 203.858L202.635 199.424L197.885 133.856C196.694 117.422 205.503 102.356 219.444 95.0172C222.885 93.2083 226.635 91.87 230.62 91.098L246.663 87.9876L286.706 80.2154L299.662 77.7079L316.595 74.4211L323.272 73.127L334.249 70.9945L335.242 70.8033L338.337 70.2004L339.44 69.9872L341.234 69.6416L342.499 71.8769C342.506 71.8769 342.506 71.8843 342.506 71.8916L349.947 85.0978L351.285 87.4802L351.293 87.4875L357.741 98.9216C357.741 98.9216 357.749 98.929 357.749 98.9363L364.028 110.084L376.351 112.532L382.424 113.738L420.07 121.216L425.033 122.209H425.041L437.599 124.702L440.923 125.363L456.444 128.444L456.562 128.466L463.451 129.834L475.054 132.143L469.253 291.308L469.363 330.111V330.118L469.422 351.64H469.422Z" fill="#B9B9B9"/>
<path d="M276.809 44.9137C275.162 41.8106 270.427 35.1708 264.972 27.7147C263.957 26.325 262.92 24.9132 261.876 23.4867C260.016 20.9646 258.126 18.3984 256.295 15.8983C255.126 14.2512 252.84 13.8615 251.193 15.0233L240.222 22.7881C238.575 23.9499 238.178 26.2368 239.347 27.8838L242.649 32.5531L243.516 33.781L244.796 35.5899L246.332 37.7591V37.7664L246.766 38.3694L248.296 40.5385L249.141 41.7297L256.545 52.2006L259.869 56.8992C261.03 58.5463 263.317 58.936 264.964 57.7742L274.508 51.0167L275.854 50.0682L275.934 50.0093C277.581 48.8475 277.979 46.5607 276.809 44.9137Z" fill="#B9B9B9"/>
<path d="M264.957 27.5533L262.096 23.5164C262.045 23.4429 261.949 23.4282 261.883 23.4797L261.876 23.4871C261.81 23.5312 261.795 23.6194 261.846 23.693L264.707 27.7372C264.751 27.8033 264.846 27.818 264.92 27.7739C264.942 27.7592 264.957 27.7372 264.971 27.7151C264.993 27.6636 264.993 27.6048 264.957 27.5533H264.957Z" fill="#B9B9B9"/>
<path d="M256.009 16.0981L276.528 45.1142C277.541 46.5472 277.255 48.5081 275.909 49.5964L275.908 49.5968C275.888 49.6128 275.868 49.6288 275.847 49.6447C275.811 49.6729 275.775 49.6999 275.737 49.7267C275.737 49.7267 275.591 49.8148 275.323 49.9754C275.053 50.1378 274.66 50.3733 274.168 50.6652C274.021 50.7532 273.866 50.8453 273.701 50.9425C273.374 51.1361 273.015 51.3486 272.628 51.5747C272.474 51.6655 272.314 51.7585 272.152 51.8538C271.319 52.3409 270.385 52.8832 269.395 53.4487C269.228 53.545 269.06 53.6415 268.89 53.7382C268.845 53.7633 260.388 57.0361 260.149 56.6976L239.63 27.6814C238.575 26.1891 238.929 24.1243 240.421 23.069L242.034 21.9283C242.292 21.7461 242.641 21.8004 242.845 22.0418C242.859 22.0575 242.873 22.0732 242.888 22.0881C243.117 22.3133 243.481 22.3258 243.744 22.14L249.413 18.1306C249.676 17.9448 249.786 17.5973 249.65 17.3059C249.641 17.2867 249.631 17.2683 249.621 17.2499C249.461 16.9772 249.526 16.6299 249.784 16.4476L251.397 15.307C252.889 14.2516 254.954 14.6057 256.009 16.0981H256.009Z" fill="#F0F0F0"/>
<path d="M243.509 33.6338L242.788 32.619C242.759 32.5749 242.707 32.5455 242.648 32.5529C242.626 32.5529 242.597 32.5676 242.575 32.5823C242.509 32.6338 242.487 32.7294 242.538 32.7955L243.251 33.8102C243.303 33.8764 243.398 33.8985 243.472 33.847C243.494 33.8323 243.509 33.8102 243.516 33.7808C243.538 33.7367 243.538 33.6779 243.509 33.6337L243.509 33.6338Z" fill="#B9B9B9"/>
<path d="M246.318 37.6124L244.935 35.6491C244.898 35.6049 244.847 35.5829 244.796 35.5903C244.766 35.5903 244.737 35.5976 244.722 35.6123C244.648 35.6638 244.634 35.7594 244.685 35.8329L246.068 37.7888C246.119 37.855 246.215 37.8771 246.281 37.8256C246.303 37.8109 246.318 37.7888 246.332 37.7667V37.7594C246.354 37.7153 246.354 37.6565 246.318 37.6124V37.6124Z" fill="#B9B9B9"/>
<path d="M248.281 40.3917L246.899 38.4284C246.862 38.3843 246.81 38.3622 246.766 38.3696C246.737 38.3696 246.707 38.3769 246.685 38.3916C246.612 38.4431 246.597 38.5387 246.649 38.6122L248.031 40.5681C248.082 40.6343 248.178 40.6564 248.244 40.6049C248.266 40.5902 248.288 40.5681 248.296 40.5387C248.318 40.4946 248.318 40.4358 248.281 40.3917V40.3917Z" fill="#B9B9B9"/>
<path d="M242.169 22.4968L240.022 24.0153C239.934 24.077 239.914 24.1976 239.975 24.2848C240.037 24.372 240.158 24.3927 240.245 24.3311L242.392 22.8125C242.479 22.7509 242.5 22.6302 242.438 22.543C242.377 22.4558 242.256 22.4351 242.169 22.4968Z" fill="#E6E6E6"/>
<path d="M250.541 16.9802C250.712 16.9802 250.85 16.8416 250.85 16.6707C250.85 16.4999 250.712 16.3613 250.541 16.3613C250.37 16.3613 250.231 16.4999 250.231 16.6707C250.231 16.8416 250.37 16.9802 250.541 16.9802Z" fill="#E6E6E6"/>
<path d="M251.235 16.4889C251.406 16.4889 251.545 16.3504 251.545 16.1795C251.545 16.0086 251.406 15.8701 251.235 15.8701C251.064 15.8701 250.925 16.0086 250.925 16.1795C250.925 16.3504 251.064 16.4889 251.235 16.4889Z" fill="#E6E6E6"/>
<path d="M251.93 15.9977C252.101 15.9977 252.24 15.8592 252.24 15.6883C252.24 15.5174 252.101 15.3789 251.93 15.3789C251.759 15.3789 251.62 15.5174 251.62 15.6883C251.62 15.8592 251.759 15.9977 251.93 15.9977Z" fill="#E6E6E6"/>
<path d="M334.249 33.9795H291.603V74.4216H334.249V33.9795Z" fill="#2F2E41"/>
<path d="M261.467 47.105C260.13 49.2754 258.415 50.964 256.643 52.0139L245.219 73.4939L235.157 67.7584L247.829 46.5867C247.969 44.5321 248.705 42.2399 250.041 40.0695C253.094 35.1112 258.126 32.6668 261.281 34.6096C264.437 36.5524 264.519 42.1467 261.467 47.105Z" fill="#A0616A"/>
<path d="M455.351 334.566L464.523 332.728L460.385 290.589L446.848 293.3L455.351 334.566Z" fill="#A0616A"/>
<path d="M490.939 346.558C491.286 348.099 490.473 349.595 489.124 349.899L471.013 353.975C471.013 353.975 467.618 347.211 459.658 345.763L461.462 356.124L452.119 358.226L449.544 341.493C449.544 341.493 445.061 333.24 449.237 327.565C453.413 321.891 449.35 323.464 449.35 323.464L449.097 312.806L463.589 311.289L467.295 327.275L477.722 341.625L488.889 344.328C489.883 344.568 490.688 345.445 490.939 346.558H490.939Z" fill="#2F2E41"/>
<path d="M297.118 118.908L297.853 124.055C297.853 124.055 313.294 140.967 316.97 148.32L361.57 126.261L353.734 107.878L297.118 118.908Z" fill="#A0616A"/>
<path d="M352.999 124.79C352.999 124.79 311.325 136.555 314.883 148.32C318.441 160.085 320.638 164.916 320.638 164.916C320.638 164.916 312.558 182.879 337.558 190.968C362.557 199.056 416.232 204.939 416.232 204.939L448.216 310.456L463.29 306.411L451.053 184.901L391.233 163.761L394.909 141.702L382.409 146.849L361.57 123.785L352.999 124.79V124.79Z" fill="#E6E6E6"/>
<path d="M415.273 227.659L424.172 230.543L441.175 191.766L428.042 187.509L415.273 227.659Z" fill="#A0616A"/>
<path d="M440.446 255.528C439.995 257.042 438.554 257.949 437.229 257.554L419.439 252.249C419.439 252.249 419.787 244.689 413.552 239.532L410.058 249.451L400.881 246.714L406.819 230.86C406.819 230.86 406.946 221.468 413.365 218.562C419.783 215.656 415.47 215.041 415.47 215.041L420.463 205.621L433.844 211.387L429.257 227.144L431.332 244.76L439.749 252.58C440.498 253.276 440.772 254.434 440.446 255.528L440.446 255.528V255.528Z" fill="#2F2E41"/>
<path d="M378.8 148.32L394.909 141.702L432.408 117.437C432.408 117.437 461.084 94.4974 463.29 125.453C465.496 156.408 444.908 204.203 444.908 204.203L418.438 196.85L421.127 164.083L386.454 174.423L378.8 148.32Z" fill="#E6E6E6"/>
<path d="M338.177 66.585L358.513 121.481L386.086 151.997L413.291 134.349L381.857 126.261L382.69 107.878L338.177 66.585Z" fill="#2F2E41"/>
<path d="M218.753 357.143V358.722H207.803L207.775 357.143L203.987 155.092H218.17L218.198 160.76L218.753 357.143Z" fill="#B9B9B9"/>
<path d="M446.616 137.691C444.329 136.567 442.485 135.019 441.272 133.355L418.805 124.022L423.558 113.461L445.837 124.065C447.895 124.01 450.247 124.524 452.534 125.648C457.76 128.216 460.671 132.994 459.037 136.32C457.403 139.645 451.842 140.259 446.616 137.691V137.691Z" fill="#A0616A"/>
<path d="M327.999 63.759L333.195 61.5039C333.195 61.5039 353.734 67.3545 355.572 70.704C357.41 74.0534 367.704 88.0243 367.704 88.0243L440.496 118.907L433.878 132.143L382.409 118.907L354.469 89.4949L327.999 63.7591V63.759Z" fill="#2F2E41"/>
<path d="M319.911 59.3476L295.647 57.877L283.147 64.4948L297.118 126.261C297.118 126.261 338.258 108.613 356.29 114.128C356.29 114.128 362.812 97.2292 351.288 87.4798L332.411 62.2888L319.911 59.3476V59.3476Z" fill="#F64C4C"/>
<path d="M294.177 61.5534L293.943 59.1684L269.913 68.1711C269.913 68.1711 261.089 74.7889 258.148 77.7302C255.207 80.6714 246.384 86.5539 246.384 86.5539L253.737 60.0827L241.972 54.9355C241.972 54.9355 206.679 101.26 223.59 104.937C240.502 108.613 269.913 101.995 269.913 101.995L271.383 183.615L332.779 185.453L307.412 100.525L294.177 61.5533V61.5534Z" fill="#2F2E41"/>
<path d="M312.475 54.5836C323.959 54.5836 333.268 45.2737 333.268 33.7893C333.268 22.305 323.959 12.9951 312.475 12.9951C300.991 12.9951 291.682 22.305 291.682 33.7893C291.682 45.2737 300.991 54.5836 312.475 54.5836Z" fill="#A0616A"/>
<path d="M302.632 0.154934C289.343 2.21195 289.976 7.15035 285.721 9.71397C278.224 14.2305 275.266 27.2729 279.225 35.8794C280.283 38.179 282.514 41.316 281.431 44.7031C280.6 47.3033 278.205 48.8372 277.755 49.115C274.073 51.3886 276.478 48.6838 274.814 50.5856C272.977 52.6848 275.822 55.65 274.078 59.4093C272.533 62.7421 269.346 62.4608 268.932 64.5565C268.219 68.1653 276.4 75.4215 285.108 74.8509C292.86 74.3428 298.62 67.7882 300.548 61.6153C301.84 57.4802 302.397 50.3676 299.078 46.9091C298.612 46.424 297.339 45.2493 296.137 43.2325C295.185 41.6365 293.932 39.5356 294.666 38.0854C295.448 36.5403 297.666 37.3535 299.078 35.8794C300.993 33.8803 298.718 30.5027 299.078 27.0557C299.688 21.2188 307.958 14.1986 316.724 15.2907C326.669 16.5296 330.317 27.3444 330.695 28.5263C331.477 30.9758 331.461 33.3457 331.43 38.0853C331.385 44.8871 331.357 49.1503 329.224 53.5269C326.156 59.8217 322.248 59.1416 321.136 63.8212C319.403 71.1174 327.556 78.4451 328.489 79.2627C335.403 85.324 345.845 87.1465 347.606 84.4099C349.192 81.9438 342.228 78.1078 342.459 70.439C342.659 63.7933 348.037 61.7674 346.871 57.2034C345.587 52.1795 338.736 53.3255 335.841 47.6444C333.14 42.3416 338.119 39.3994 337.312 28.5263C337.141 26.2262 336.419 19.625 332.165 13.0848C330.291 10.2035 328.385 7.27313 324.812 5.73168C320.813 4.00605 309.662 -0.933131 302.632 0.154934Z" fill="#2F2E41"/>
<path d="M293.809 18.5377C294.348 23.091 301.185 25.3224 304.103 25.8908C305.338 26.1315 309.514 26.9449 313.661 25.1555C315.194 24.494 315.753 23.8959 317.338 23.6848C319.483 23.3992 320.564 24.2153 323.955 25.1555C327.726 26.2009 329.611 26.7237 330.573 25.8908C332.144 24.5293 330.937 20.0754 329.102 17.0671C325.709 11.5046 319.499 9.78208 316.602 8.97865C313.293 8.06077 306.578 6.19807 300.426 9.71396C299.604 10.184 293.261 13.9115 293.809 18.5377V18.5377Z" fill="#2F2E41"/>
<path d="M454.616 137.834C444.804 142.41 440.904 136.434 440.904 136.434L440.908 134.653L440.937 111.741C447.771 107.28 459.305 113.759 459.305 113.759L454.867 136.545L454.616 137.834V137.834Z" fill="#B9B9B9"/>
<path d="M457.79 109.57C457.79 109.57 447.646 105.226 442.167 108.497C442.167 108.497 436.453 114.288 440.927 115.972L458.542 117.679C458.542 117.679 462.548 114.993 460.801 112.783C459.054 110.572 457.79 109.57 457.79 109.57V109.57Z" fill="#F64C4C"/>
<path d="M148.822 279.975C146.88 280.096 145.807 277.684 147.276 276.278L147.423 275.697C147.403 275.65 147.384 275.604 147.365 275.558C145.396 270.865 141.872 275.295 136.793 275.61C129.324 276.073 129.435 281.723 132.329 288.329C133.114 290.122 126.446 275.653 126.446 265.939C126.446 263.498 126.58 261.058 126.853 258.623C127.078 256.632 127.387 254.653 127.788 252.692C129.955 242.092 134.648 231.996 141.417 223.563C144.67 221.785 147.384 219.004 149.023 215.671C149.612 214.469 154.671 213.454 154.89 212.136C154.519 212.185 148.896 206.267 149.175 205.921C148.659 205.138 147.735 204.749 147.172 203.984C144.368 200.184 140.507 200.847 138.49 206.012C134.184 208.186 134.142 211.791 136.785 215.258C138.466 217.464 138.697 220.449 140.172 222.811C140.02 223.005 139.862 223.193 139.711 223.387C139.652 223.462 139.594 223.537 139.536 223.612C137.155 226.693 132.4 225.904 131.074 222.243C130.978 221.976 130.157 236.441 130.775 221.469C131.392 206.497 126.007 214.118 123.281 210.666C120.025 206.542 113.401 208.416 112.827 213.639C112.822 213.689 112.817 213.739 112.811 213.789C113.215 214.017 113.609 214.258 113.995 214.513C116.194 215.968 115.433 219.376 112.828 219.778L112.769 219.787C112.915 221.238 113.164 222.677 113.528 224.092C110.049 237.544 117.556 242.446 128.278 242.669L128.836 243.464C127.821 246.385 127.004 249.377 126.392 252.407C125.815 255.218 125.414 258.059 125.19 260.912L125.18 261.034C124.994 263.462 121.923 264.494 120.38 262.611C119.987 262.132 119.585 261.712 119.18 261.38C114.531 257.561 107.964 256.155 102.949 253.085C100.535 251.608 97.4417 253.517 97.8631 256.316L97.8836 256.45C98.6302 256.753 99.3587 257.106 100.063 257.5C100.466 257.728 100.862 257.97 101.248 258.225C103.447 259.68 102.686 263.089 100.079 263.489L100.02 263.498C99.9779 263.504 99.9415 263.511 99.899 263.517L99.9376 263.608C101.614 267.552 105.622 270.107 109.901 269.873C114.938 269.597 121.195 273.809 126.713 281.256L126.719 281.256C127.812 286.016 129.409 290.666 131.461 295.098H148.398C148.459 294.91 148.513 294.715 148.568 294.527C147.002 294.624 145.423 294.533 143.881 294.248C145.138 292.706 146.394 291.152 147.651 289.61C147.681 289.579 147.706 289.549 147.73 289.519C148.367 288.729 149.011 287.946 149.648 287.157L149.649 287.156C149.689 284.733 149.398 282.319 148.823 279.975L148.822 279.975Z" fill="#F64C4C"/>
<path d="M548 358.872C548 359.308 547.647 359.661 547.21 359.661H0V358.082H547.21C547.647 358.082 548 358.436 548 358.872Z" fill="#E6E6E6"/>
<path d="M94.958 291.384L103.417 360L168.27 359.06L169.07 291.384H94.958Z" fill="#B9B9B9"/>
</g>
<defs>
<clipPath id="clip0_3859_51763">
<rect width="548" height="360" fill="white"/>
</clipPath>
</defs>
</svg>
