<svg width="227" height="64" viewBox="0 0 227 64" fill="none" xmlns="http://www.w3.org/2000/svg">
<g id="uc-logo 1" clip-path="url(#clip0_5033_80535)">
<g id="Group">
<path id="Vector" d="M5.60708 0.377144C3.09617 1.17006 1.15162 3.17125 0.339823 5.71992C0.0188791 6.75827 0 8.06092 0 28.4125C0 49.3683 0.0188791 50.0291 0.377581 51.1807C1.11386 53.5594 3.02065 55.5984 5.36165 56.4857L6.51327 56.9199H28.413C49.0478 56.9199 50.3693 56.901 51.351 56.5801C53.7298 55.7872 55.9009 53.5972 56.6372 51.2373C57.0147 50.0102 57.0147 49.5948 57.0147 28.5258C57.0147 5.62552 57.0336 6.22965 56.0897 4.36063C55.5422 3.3034 54.2018 1.86859 53.0879 1.15118C51.1622 -0.0570755 52.3327 -0.00043869 28.4319 0.0184402C7.77817 0.0184402 6.64543 0.0373192 5.60708 0.377144ZM13.5929 24.4479C13.5929 30.8102 13.6873 31.4898 14.8012 32.5848C16.5947 34.3972 19.8608 34.0574 21.1068 31.9429L21.6165 31.0556L21.692 25.0521L21.7487 19.0674H24.0897H26.4307V24.9954C26.4307 28.2426 26.3363 31.3577 26.2419 31.924C25.7322 34.6049 24.0897 36.4361 21.2956 37.399C19.7286 37.9465 16.2171 38.0031 14.3481 37.5123C12.8189 37.0969 11.2897 36.0774 10.3457 34.8314C9.00531 33.0568 8.98643 32.9435 8.91091 25.6184L8.85428 19.0674H11.2142H13.5929V24.4479ZM43.2519 19.4261C44.5735 19.8415 46.197 21.0686 47.1976 22.409C47.7074 23.1075 48.1416 23.7305 48.1227 23.7872C48.1227 23.8438 47.2732 24.2969 46.2348 24.7878L44.328 25.694L43.6861 24.9388C42.8743 23.9948 42.0814 23.504 40.9109 23.2019C40.118 23.0131 39.8348 23.032 38.8342 23.3341C36.6065 23.9948 35.2283 25.996 35.2472 28.6013C35.2472 33.2456 40.8354 35.5866 43.5917 32.094L44.2903 31.2066L46.2348 32.1695L48.1605 33.1512L47.5563 33.9819C46.2159 35.8698 45.0832 36.776 43.2708 37.399C38.7965 38.9471 33.4726 36.8704 31.5847 32.8491C28.9605 27.2987 31.5847 21.0875 37.2861 19.4072C38.5699 19.0297 42.0248 19.0485 43.2519 19.4261Z" fill="white"/>
<path id="Vector_2" d="M110.386 1.26369C110.31 1.32033 110.254 7.05956 110.254 14.0071V26.6183H112.481H114.69L114.634 25.4478L114.558 24.2773L115.408 25.0513C118.655 28.0531 123.998 27.6189 127.15 24.1262C131.209 19.6141 129.85 11.5905 124.583 9.04186C121.487 7.53154 117.805 7.89024 115.559 9.9103L114.785 10.6088V5.87018V1.13154H112.651C111.462 1.13154 110.442 1.18817 110.386 1.26369ZM121.978 12.5911C122.978 13.0442 123.903 13.9315 124.47 14.9888C124.809 15.6307 124.885 16.0649 124.885 17.5563C124.885 19.1988 124.828 19.4442 124.319 20.3693C123.375 22.0873 121.77 23.0312 119.788 23.0312C117.654 23.0312 115.464 21.3888 114.879 19.3687C114.029 16.4236 115.408 13.3652 118.032 12.4212C119.24 11.987 120.769 12.0625 121.978 12.5911Z" fill="white"/>
<path id="Vector_3" d="M74.3835 10.1758C74.3835 20.4083 74.5157 21.3711 76.2715 23.7121C78.4237 26.6006 83.0868 27.8655 87.0325 26.6384C90.2797 25.6378 91.79 24.2596 92.9228 21.2201C93.3381 20.144 93.3381 19.8797 93.4136 10.9876L93.4703 1.88795H91.1104H88.7316V10.157C88.7316 19.4266 88.6939 19.8042 87.4856 21.1446C86.6361 22.0697 85.39 22.5605 83.9175 22.5416C81.8785 22.5228 80.4815 21.7298 79.613 20.1251C79.1977 19.37 79.1977 19.1812 79.1411 10.6101L79.0844 1.88795H76.7434H74.3835V10.1758Z" fill="white"/>
<path id="Vector_4" d="M104.496 8.1743C103.382 8.55188 102.929 8.83507 101.928 9.76014L101.022 10.6097L101.135 9.55247L101.248 8.49524H99.0396H96.8496V17.5572V26.6191H99.0207C100.21 26.6191 101.211 26.6003 101.23 26.5625C101.248 26.5436 101.305 24.0138 101.362 20.9554C101.475 15.6882 101.494 15.3483 101.89 14.6121C102.117 14.1967 102.589 13.5737 102.966 13.2716C103.91 12.4221 104.779 12.1955 106.478 12.3277L107.932 12.441L108.064 11.2893C108.253 9.4392 108.196 8.36309 107.932 8.24982C107.252 7.98551 105.194 7.94775 104.496 8.1743Z" fill="white"/>
<path id="Vector_5" d="M162.983 8.13655C161.718 8.38197 160.566 8.96722 159.641 9.81678L158.773 10.6286V9.55247V8.49525H156.602H154.431V17.5572V26.6191H156.602H158.773V21.3708C158.773 15.2162 158.886 14.6121 160.17 13.3094C161.152 12.3277 162.039 12.0068 163.493 12.12C164.927 12.2144 165.928 12.8752 166.532 14.1023C166.966 14.9896 166.985 15.1407 167.042 20.8044L167.099 26.6191H169.364H171.611V20.9932C171.611 17.9159 171.516 14.8386 171.403 14.159C170.893 10.9873 169.043 8.91059 166.136 8.23094C164.795 7.91 164.191 7.89112 162.983 8.13655Z" fill="white"/>
<path id="Vector_6" d="M137.779 8.47603C133.815 9.7598 131.361 13.6111 131.644 18.1232C131.87 21.4271 133.324 24.089 135.778 25.6937C137.326 26.6754 138.874 27.053 141.064 26.9586C143.103 26.8642 144.425 26.3734 145.728 25.2029L146.502 24.5043V25.5616V26.6188H148.578H150.655V17.5569V8.49491H148.578H146.502V9.57101V10.6471L145.992 10.1563C145.086 9.34447 144.349 8.91025 143.141 8.51379C141.65 8.00405 139.309 7.98517 137.779 8.47603ZM143.858 12.7616C144.897 13.3279 145.841 14.4041 146.256 15.5368C146.369 15.8766 146.483 16.7828 146.483 17.5569C146.502 19.2182 146.011 20.4831 144.953 21.5592C143.877 22.6164 143.028 22.9374 141.31 22.9374C139.554 22.9374 138.704 22.5976 137.572 21.4648C136.477 20.3698 136.061 19.2748 136.08 17.5569C136.118 14.8194 137.383 13.0825 139.894 12.2518C140.857 11.9309 142.801 12.1763 143.858 12.7616Z" fill="white"/>
<path id="Vector_7" d="M84.1062 31.3583C81.2366 31.8303 78.6879 33.2273 76.7245 35.3795C73.2508 39.1554 72.4767 44.9701 74.78 49.822C75.3841 51.1058 75.8183 51.7099 77.0832 52.9371C78.7446 54.5795 80.0095 55.3725 82.2183 56.1088C83.37 56.4863 83.8986 56.543 86.2773 56.543C88.7316 56.5241 89.1658 56.4863 90.544 56.0144C92.413 55.3913 94.0744 54.3341 95.7546 52.7105C97.1894 51.3323 97.1894 51.4456 95.6791 50.1996L94.7729 49.4256L93.3947 50.7093C91.2992 52.7105 89.0526 53.6167 86.2773 53.6167C78.9334 53.6167 74.4779 46.2539 77.7629 39.5518C80.7458 33.4728 89.0903 32.4533 93.7346 37.6073L94.5841 38.5512L95.7169 37.645C96.3399 37.1542 96.8496 36.6444 96.8496 36.5123C96.8496 36.097 94.3576 33.7371 93.2248 33.0763C90.5818 31.5093 87.0891 30.8486 84.1062 31.3583Z" fill="white"/>
<path id="Vector_8" d="M106.044 38.2482C100.059 39.7019 97.2084 46.1207 100.002 51.9166C101.777 55.598 106.837 57.637 111.066 56.3532C114.823 55.2204 117.277 52.0676 117.56 48.0464C117.881 43.27 114.86 39.1921 110.273 38.2104C108.725 37.8895 107.46 37.8895 106.044 38.2482ZM110.896 41.4198C112.142 42.024 113.331 43.2889 113.992 44.7048C114.426 45.611 114.502 46.0263 114.502 47.3856C114.483 48.7072 114.407 49.1791 113.992 50.0665C113.331 51.4824 112.217 52.6718 110.877 53.3514C109.933 53.8234 109.574 53.8989 108.271 53.8989C107.007 53.8989 106.591 53.8045 105.704 53.3703C104.401 52.7473 103.212 51.5013 102.551 50.0665C102.117 49.1603 102.041 48.726 102.041 47.3856C102.041 46.0263 102.117 45.611 102.57 44.6482C104.137 41.3066 107.762 39.8906 110.896 41.4198Z" fill="white"/>
<path id="Vector_9" d="M126.546 38.2303C125.432 38.5701 124.168 39.3441 123.601 40.0238L123.11 40.5901L122.997 39.5518L122.865 38.5135H121.468H120.071V47.3866V56.2598H121.562H123.073L123.129 50.3506C123.186 43.8751 123.205 43.7807 124.413 42.4025C126.358 40.2126 129.926 40.2881 131.379 42.5724C132.229 43.9317 132.342 44.8379 132.342 50.7848V56.2598H133.834H135.344L135.401 50.445C135.457 44.8568 135.476 44.6114 135.891 43.7052C136.722 41.9117 138.044 40.9677 139.988 40.8356C142.216 40.6657 143.972 42.1194 144.425 44.5359C144.519 45.0834 144.614 47.953 144.614 50.8981V56.2598H146.124H147.634V50.5205C147.634 47.3677 147.54 44.3471 147.445 43.7996C146.804 40.4014 144.463 38.2491 141.159 38.0037C138.686 37.8149 136.458 38.589 134.872 40.1937L133.966 41.0999L133.456 40.4014C132.002 38.4191 128.982 37.4562 126.546 38.2303Z" fill="white"/>
<path id="Vector_10" d="M158.15 38.1532C157.13 38.3987 155.601 39.2105 154.582 40.06L153.675 40.8152V39.6636V38.5119H152.165H150.655V51.0665V63.6211H152.165H153.675V58.7692V53.9173L154.298 54.4836C155.205 55.3332 155.922 55.7863 157.074 56.2205C159.377 57.0701 161.586 56.919 163.983 55.7863C168.59 53.5774 170.346 47.3096 167.721 42.4765C167.08 41.306 165.173 39.4748 163.983 38.9084C162.152 38.0211 159.943 37.7379 158.15 38.1532ZM162.228 41.306C163.511 41.8724 164.682 43.0618 165.305 44.4211C165.777 45.4406 165.834 45.8181 165.852 47.3851C165.852 48.9709 165.796 49.3108 165.305 50.3491C164.682 51.7084 163.511 52.8789 162.209 53.483C160.831 54.106 158.433 54.0494 157.036 53.3698C155.809 52.7656 154.846 51.7839 154.11 50.368C153.638 49.4807 153.581 49.1786 153.581 47.4795C153.581 45.7993 153.638 45.4594 154.11 44.4589C155.28 41.9291 157.319 40.7019 160.038 40.8529C160.812 40.9096 161.737 41.0984 162.228 41.306Z" fill="white"/>
<path id="Vector_11" d="M177.52 38.2287C175.254 38.8517 172.932 40.5886 171.932 42.4387C170.233 45.6104 170.44 49.8959 172.46 52.9543C175.254 57.1455 181.635 58.0139 185.26 54.6912L185.959 54.0304V55.1443V56.2582H187.469H188.979V47.385V38.493L187.526 38.5496L186.053 38.6063L185.997 39.7012L185.94 40.8151L185.109 40.0411C183.127 38.2287 180.182 37.5113 177.52 38.2287ZM181.805 41.0794C184.637 41.9101 186.185 44.1001 186.223 47.2906C186.242 50.1036 185.128 52.0859 182.863 53.2375C181.673 53.8417 181.409 53.8983 180.031 53.8794C178.086 53.8794 176.878 53.3697 175.67 52.0859C174.292 50.6133 173.971 49.726 173.971 47.385C173.971 45.5915 174.027 45.2894 174.499 44.3266C175.896 41.457 178.785 40.1732 181.805 41.0794Z" fill="white"/>
<path id="Vector_12" d="M199.268 38.1925C198.022 38.6078 197.23 39.0798 196.399 39.8916L195.587 40.6657V39.5896V38.5135H194.077H192.566V47.3866V56.2598H194.171H195.757V50.6338C195.738 44.6491 195.795 44.1394 196.739 42.7801C197.815 41.1943 200.08 40.4391 202.063 40.9866C202.95 41.232 204.158 42.2893 204.706 43.3087C205.102 44.045 205.121 44.3282 205.178 50.1618L205.234 56.2598H206.839H208.425V50.7282C208.425 44.8002 208.274 43.3276 207.575 41.7606C206.952 40.4202 205.499 39.0232 204.139 38.4946C202.799 37.9848 200.363 37.8338 199.268 38.1925Z" fill="white"/>
<path id="Vector_13" d="M223.415 38.6072C223.377 38.7016 222.452 41.2502 221.376 44.2709C220.3 47.2727 219.224 50.2555 218.997 50.8597L218.563 51.9735L217.071 48.311C216.241 46.2909 214.995 43.2892 214.296 41.6278L213.031 38.6072L211.294 38.5505C210.332 38.5317 209.558 38.5317 209.558 38.5883C209.558 38.6449 211.257 42.5718 213.333 47.3104C215.41 52.0679 217.109 56.0514 217.109 56.1647C217.109 56.5612 216.146 58.7322 215.656 59.4874C214.749 60.8656 213.409 61.2809 211.578 60.7712C211.162 60.6579 210.823 60.6013 210.785 60.639C210.747 60.6768 210.671 61.262 210.596 61.9794L210.464 63.2443L211.162 63.5464C212.125 63.9429 213.956 63.9429 215.146 63.5464C216.467 63.1122 217.864 61.6207 218.714 59.7895C219.243 58.619 226.738 38.8715 226.738 38.6261C226.738 38.4373 223.471 38.4184 223.415 38.6072Z" fill="white"/>
</g>
</g>
<defs>
<clipPath id="clip0_5033_80535">
<rect width="226.926" height="64" fill="white"/>
</clipPath>
</defs>
</svg>
